<?xml version="1.0" encoding="utf-8"?>
<!-- Generator: Adobe Adobe Illustrator 29.2.0, SVG Export Plug-In . SVG Version: 6.00 Build 0)  -->
<svg version="1.1" id="Layer_1" xmlns="http://www.w3.org/2000/svg" xmlns:xlink="http://www.w3.org/1999/xlink" x="0px" y="0px"
	 viewBox="0 0 500 500" style="enable-background:new 0 0 500 500;" xml:space="preserve">
<style type="text/css">
	.st0{fill:#B15508;}
	.st1{fill:#F6D017;}
	.st2{fill:#171796;}
	.st3{fill:#090A05;}
	.st4{fill:#BB6517;}
	.st5{fill:#BC640A;}
	.st6{fill:#BB6516;}
	.st7{fill:#BC6717;}
	.st8{fill:#BB6415;}
	.st9{fill:#FCFCFD;}
	.st10{fill:#4DA400;}
	.st11{fill:#FFFFFF;}
	.st12{fill:#FDFDFD;}
	.st13{fill:#B9122B;}
	.st14{fill:#FCFCFC;}
	.st15{fill:#B6122A;}
	.st16{fill:#B7122A;}
	.st17{fill:#F3CE17;}
	.st18{fill:#161693;}
	.st19{fill:#F6F6F6;}
	.st20{fill:#071000;}
	.st21{fill:#B31129;}
	.st22{fill:#4A9D00;}
	.st23{fill:#489800;}
	.st24{fill:#499B00;}
	.st25{fill:#F0F0F0;}
	.st26{fill:#FEFDFD;}
	.st27{fill:#FDFCFB;}
	.st28{fill:#FDFCFA;}
	.st29{fill:#081000;}
	.st30{fill:#060D00;}
	.st31{fill:#081100;}
	.st32{fill:#070F00;}
	.st33{fill:#060E00;}
	.st34{fill:#081200;}
	.st35{fill:#060C00;}
	.st36{fill:#070E00;}
	.st37{fill:#091400;}
	.st38{fill:#091300;}
	.st39{fill:#050B00;}
	.st40{fill:#0A1500;}
	.st41{fill:#091200;}
	.st42{fill:#4B9F00;}
	.st43{fill:#1A1A97;}
	.st44{fill:#1B1B98;}
	.st45{fill:#1A1A98;}
	.st46{fill:#377600;}
	.st47{fill:#336E00;}
	.st48{fill:#459300;}
	.st49{fill:#4BA000;}
	.st50{fill:#469500;}
	.st51{fill:#499C00;}
	.st52{fill:#449100;}
	.st53{fill:#4A9E00;}
	.st54{fill:#438E00;}
	.st55{fill:#FBFBFD;}
	.st56{fill:#A6C2CC;}
	.st57{fill:#FFFEFE;}
	.st58{fill:#BA132C;}
	.st59{fill:#FEFEFE;}
	.st60{fill:#1C1C98;}
	.st61{fill:#F9F9FC;}
	.st62{fill:#AF6C1C;}
	.st63{fill:#B25C08;}
	.st64{fill:#F6D01A;}
	.st65{fill:#AF6B1B;}
	.st66{fill:#1A1790;}
	.st67{fill:#AAA9A8;}
	.st68{fill:#595A5A;}
	.st69{fill:#AAA9A7;}
	.st70{fill:#B35409;}
	.st71{fill:#AA5E17;}
	.st72{fill:#A95E17;}
	.st73{fill:#B0540F;}
	.st74{fill:#AF5610;}
	.st75{fill:#974E27;}
	.st76{fill:#8C5139;}
	.st77{fill:#B3540A;}
	.st78{fill:#AF5410;}
	.st79{fill:#914F31;}
	.st80{fill:#AE5413;}
	.st81{fill:#8D4E38;}
	.st82{fill:#AC6317;}
	.st83{fill:#8D4B35;}
	.st84{fill:#FEFDFC;}
	.st85{fill:#FEFBF8;}
	.st86{fill:#5A595B;}
	.st87{fill:#F4CE1F;}
	.st88{fill:#F4CE1E;}
	.st89{fill:#B15F07;}
	.st90{fill:#8E4C3D;}
	.st91{fill:#181693;}
	.st92{fill:#171695;}
	.st93{fill:#1A1990;}
	.st94{fill:#AD5D10;}
	.st95{fill:#1B188E;}
	.st96{fill:#2D2D84;}
	.st97{fill:#703D51;}
	.st98{fill:#ABAAA5;}
	.st99{fill:#191791;}
	.st100{fill:#181793;}
	.st101{fill:#181694;}
	.st102{fill:#191990;}
	.st103{fill:#8F4A37;}
	.st104{fill:#332264;}
	.st105{fill:#AFB5B9;}
	.st106{fill:#A8BFC9;}
	.st107{fill:#F7CF1A;}
	.st108{fill:#171694;}
	.st109{fill:#9D4A1F;}
	.st110{fill:#A8BEC7;}
	.st111{fill:#ABBBC3;}
	.st112{fill:#ACABA6;}
	.st113{fill:#A8BFC8;}
	.st114{fill:#B2530A;}
	.st115{fill:#1B1A93;}
	.st116{fill:#1C1B93;}
	.st117{fill:#1B1B93;}
	.st118{fill:#1B1A92;}
	.st119{fill:#1C1C92;}
	.st120{fill:#1D1C92;}
	.st121{fill:#AAA9A5;}
	.st122{fill:#A95B18;}
	.st123{fill:#211981;}
	.st124{fill:#1C1B8F;}
	.st125{fill:#F7CF19;}
	.st126{fill:#1B1790;}
	.st127{fill:#1B178F;}
	.st128{fill:#F6CD1C;}
	.st129{fill:#984D25;}
	.st130{fill:#B56402;}
	.st131{fill:#B45706;}
	.st132{fill:#B45806;}
	.st133{fill:#A7C1CC;}
	.st134{fill:#A7C1CB;}
	.st135{fill:#1A178F;}
	.st136{fill:#A9BDC5;}
	.st137{fill:#FAFAFD;}
	.st138{fill:#F8F8FD;}
	.st139{fill:#B55906;}
	.st140{fill:#5A5A5A;}
	.st141{fill:#5B5B5B;}
	.st142{fill:#1D178C;}
</style>
<path class="st0" d="M396.41,3.29c0.43,0.33,0.72,0.68,1.04,1c16.52,16.52,33.04,33.05,49.57,49.55c0.75,0.74,1,1.13,0.19,2.18
	c-5.77,7.51-10.67,15.58-14.62,24.19c-3.28,7.15-6.11,14.48-8.05,22.13c-1.29,5.07-2.61,10.13-3.75,15.23
	c-0.67,2.99-1.03,6.06-1.47,9.1c-0.49,3.36-0.95,6.73-1.36,10.1c-0.26,2.19-0.5,4.39-0.55,6.59c-0.23,10.24-0.45,20.49-0.53,30.74
	c-0.03,3.8,0.29,7.6,0.53,11.39c0.21,3.32,0.49,6.64,0.82,9.95c0.41,4.05,0.89,8.1,1.36,12.15c0.95,8.28,2.67,16.41,4.64,24.51
	c1.45,5.94,2.6,11.96,3.9,17.94c0.03,0.16,0.2,0.28,0.18,0.26c1.51-4.09,2.87-8.34,4.65-12.39c1.3-2.95,3.18-5.62,5.45-8.01
	c2.85-2.99,5.97-5.58,9.77-7.22c3.07-1.32,6.26-2.27,9.65-2.31c2.73-0.03,5.47-0.18,8.13,0.78c7.2,2.59,11.77,7.43,13.2,15.07
	c0.96,5.15,1.91,10.31,3.02,15.44c1.16,5.36,3.06,10.5,5.18,15.56c2.91,6.94,6.55,13.48,10.51,19.87c1.1,1.77,1.31,4.1,2.03,6.22
	c0.1,1.52,0.1,2.99,0.1,4.58c-0.54,1.83-1.08,3.54-1.62,5.24c-0.92,2.92-2.82,5.23-4.8,7.44c-3.46,3.86-7.51,7.04-11.97,9.71
	c-0.29,0.18-0.55,0.73-0.52,1.08c0.2,2.23,0.57,4.45,0.71,6.68c0.14,2.09,0.21,4.21,0.04,6.29c-0.2,2.44-0.64,4.87-1.07,7.29
	c-0.75,4.3-2.15,8.41-3.84,12.42c-2.47,5.83-5.91,11.09-9.73,16.11c-1.74,2.29-3.74,4.37-5.66,6.51c-1.3,1.45-2.55,2.96-4,4.25
	c-4.02,3.58-8.01,7.21-12.23,10.55c-4.84,3.84-9.81,7.54-14.89,11.05c-4.04,2.79-8.34,5.21-12.55,7.76
	c-8.95,5.42-18.28,10.12-27.69,14.67c-4.86,2.35-9.9,4.3-14.84,6.48c-7.49,3.3-15.27,5.83-22.98,8.54
	c-7.57,2.66-15.06,5.58-22.49,8.62c-5.65,2.31-11.16,4.97-16.7,7.53c-3.59,1.67-7.21,3.32-10.68,5.21
	c-6.13,3.35-12.2,6.79-18.2,10.36c-4.41,2.62-8.77,5.34-12.96,8.29c-4.73,3.33-9.26,6.94-13.82,10.5c-2.47,1.93-4.8,4.03-7.22,6.14
	c-0.15,0.09-0.27,0.09-0.48,0.09c-1.59-1.35-3.03-2.75-4.59-4.03c-2.45-2-4.95-3.93-7.46-5.86c-2.65-2.03-5.25-4.16-8.04-5.99
	c-6.21-4.09-12.45-8.14-18.81-12c-4.01-2.43-8.23-4.51-12.38-6.72c-3.1-1.65-6.16-3.42-9.36-4.86c-8.02-3.6-16.05-7.19-24.19-10.5
	c-7.23-2.94-14.62-5.46-21.92-8.24c-6.32-2.4-12.64-4.81-18.89-7.4c-5.23-2.16-10.39-4.51-15.52-6.89
	c-4.76-2.21-9.53-4.42-14.14-6.92c-5.95-3.23-11.84-6.59-17.58-10.17c-5.96-3.73-11.76-7.72-17.53-11.75
	c-2.63-1.84-5.1-3.93-7.48-6.09c-4.62-4.2-9.29-8.38-13.63-12.87c-3.06-3.16-5.77-6.7-8.33-10.29c-2.15-3.01-4.08-6.22-5.74-9.52
	c-2.69-5.35-4.78-11.02-5.46-16.96c-0.52-4.56-0.15-9.23-0.09-13.85c0.02-1.42,0.39-2.83,0.48-4.25c0.02-0.36-0.36-0.85-0.7-1.09
	c-3.97-2.82-8.15-5.38-11.49-9.01c-3.18-3.46-5.57-7.37-6.67-11.99c-0.1-0.44-0.07-0.91-0.2-1.41C0,296.55,0,295.09,0,293.49
	c0.37-1.52,0.53-3.01,1.15-4.28c1.22-2.49,2.78-4.81,4.07-7.27c2.42-4.61,4.87-9.22,7.08-13.93c1.57-3.35,2.96-6.81,4.11-10.33
	c1.49-4.56,2.5-9.25,3.12-14.04c0.52-4.04,1.07-8.13,2.71-11.92c0.6-1.4,1.34-2.85,2.39-3.93c1.88-1.93,3.83-3.91,6.12-5.26
	c1.99-1.17,4.44-1.71,6.76-2.12c4.18-0.75,8.22,0.35,12.16,1.61c5.69,1.83,10.24,5.3,13.98,9.95c4,4.96,6.41,10.65,8.03,16.74
	c0.02,0.06,0.13,0.1,0.31,0.23c0.62-2.57,1.24-5.07,1.82-7.59c0.68-2.93,1.37-5.87,2-8.82c1.01-4.73,1.99-9.47,2.94-14.22
	c0.59-2.96,1.19-5.93,1.61-8.91c0.41-2.89,0.59-5.81,0.87-8.71c0.36-3.8,0.73-7.61,1.08-11.41c0.13-1.39,0.22-2.79,0.28-4.19
	c0.11-2.63,0.23-5.26,0.27-7.89c0.11-7.89,0.34-15.77,0.23-23.66c-0.07-4.95-0.65-9.9-1.05-14.84c-0.23-2.96-0.46-5.92-0.84-8.86
	c-0.46-3.5-0.98-6.99-1.66-10.45c-0.9-4.53-1.77-9.07-3.03-13.5c-1.64-5.77-3.49-11.49-5.56-17.12c-1.59-4.34-3.46-8.61-5.55-12.73
	c-2.84-5.62-5.96-11.11-9.78-16.15c-1.05-1.38-2.03-2.81-3.09-4.18c-0.53-0.68-0.1-1,0.33-1.43c5.24-5.23,10.49-10.46,15.71-15.71
	C80.2,26.88,91.8,15.17,103.43,3.38C201.07,3.29,298.68,3.29,396.41,3.29 M440.2,64.65c2.19-3.19,4.39-6.39,6.75-9.82
	c-0.39-0.3-0.83-0.56-1.19-0.91c-16.34-16.32-32.67-32.65-48.98-49c-0.78-0.78-1.55-1.08-2.64-1.08
	c-96.18,0.02-192.36,0.02-288.54,0c-1.04,0-1.78,0.29-2.51,1.04C94.67,13.4,86.22,21.9,77.77,30.39
	c-7.84,7.88-15.7,15.74-23.56,23.59c-0.35,0.35-0.87,0.52-1.31,0.78c0.45,0.6,0.57,0.79,0.71,0.96
	c9.12,11.96,15.81,25.19,20.53,39.44c3.7,11.16,6.16,22.59,7.69,34.25c1.25,9.56,1.99,19.16,2.08,28.79
	c0.07,7.08-0.01,14.17-0.33,21.25c-0.3,6.69-0.88,13.38-1.56,20.05c-0.63,6.16-1.29,12.34-2.42,18.43
	c-1.54,8.29-3.53,16.49-5.35,24.73c-0.71,3.21-1.46,6.4-2.25,9.84c-0.9-2.95-1.61-5.68-2.57-8.32
	c-4.04-11.05-10.94-19.2-22.83-22.22c-3.99-1.01-8.03-1.62-12-0.23c-7.38,2.57-11.89,7.71-13.22,15.5
	c-0.79,4.63-1.36,9.3-2.41,13.87c-2.83,12.23-8.05,23.48-14.8,34c-2.66,4.15-3.95,8.5-3.2,13.37c0.96,6.21,4.5,10.93,9.12,14.86
	c2.84,2.42,6.03,4.43,9.03,6.67c0.39,0.3,0.78,0.92,0.76,1.38c-0.05,1.31-0.31,2.62-0.47,3.93c-0.93,7.34-0.4,14.55,1.82,21.64
	c3.55,11.33,9.98,20.88,18.01,29.44c9.23,9.86,19.76,18.18,30.99,25.63c12.97,8.6,26.61,16.01,40.75,22.51
	c11.21,5.15,22.57,9.91,34.25,13.91c14.36,4.91,28.4,10.59,42.1,17.12c9.78,4.66,19.33,9.77,28.6,15.37
	c9.63,5.82,18.86,12.22,27.54,19.39c2.17,1.79,4.36,3.58,6.58,5.4c2.9-2.47,5.66-4.93,8.54-7.25
	c12.69-10.19,26.43-18.78,40.79-26.38c17.15-9.08,34.93-16.74,53.29-22.98c14.42-4.9,28.58-10.42,42.15-17.32
	c8.75-4.45,17.38-9.17,25.85-14.12c14.73-8.61,28.32-18.77,40.09-31.22c6.06-6.42,11.21-13.49,14.93-21.53
	c3.24-6.99,5.25-14.33,5.35-22.05c0.05-3.72-0.45-7.46-0.76-11.18c-0.07-0.9,0.03-1.53,0.91-2.04c1.34-0.78,2.61-1.68,3.88-2.58
	c4.34-3.1,8.33-6.59,11.11-11.22c4-6.64,4.26-13.31,0.02-20.01c-5.78-9.16-10.42-18.86-13.51-29.26
	c-1.77-5.95-3.27-11.95-3.87-18.16c-0.43-4.37-1.99-8.37-5.15-11.54c-4.54-4.55-10.03-6.39-16.45-5.73
	c-8.1,0.83-14.5,4.64-19.58,10.85c-3.87,4.73-5.97,10.32-7.64,16.1c-0.56,1.93-1.07,3.88-1.64,5.98c-1.64-7.21-3.16-14.2-4.82-21.16
	c-2.99-12.53-5.18-25.18-6.09-38.04c-0.52-7.37-1.09-14.75-1.31-22.14c-0.19-6.66,0.03-13.34,0.14-20.01
	c0.15-9.27,1.1-18.48,2.49-27.65c1.35-8.89,3.29-17.65,5.93-26.26C428.38,86.81,433.42,75.44,440.2,64.65z"/>
<path class="st1" d="M440.15,64.73c-6.73,10.71-11.77,22.07-15.44,34.06c-2.64,8.6-4.58,17.36-5.93,26.26
	c-1.39,9.17-2.33,18.37-2.49,27.65c-0.11,6.67-0.33,13.35-0.14,20.01c0.21,7.39,0.79,14.76,1.31,22.14
	c0.91,12.86,3.1,25.51,6.09,38.04c1.66,6.96,3.18,13.95,4.82,21.16c0.58-2.1,1.08-4.05,1.64-5.98c1.67-5.78,3.77-11.37,7.64-16.1
	c5.08-6.21,11.47-10.02,19.58-10.85c6.42-0.66,11.91,1.18,16.45,5.73c3.16,3.17,4.72,7.17,5.15,11.54
	c0.61,6.21,2.11,12.21,3.87,18.16c3.09,10.4,7.73,20.1,13.51,29.26c4.23,6.7,3.97,13.38-0.02,20.01
	c-2.79,4.63-6.77,8.11-11.11,11.22c-1.26,0.9-2.53,1.8-3.88,2.58c-0.88,0.51-0.98,1.14-0.91,2.04c0.31,3.72,0.81,7.46,0.76,11.18
	c-0.1,7.73-2.11,15.06-5.35,22.05c-3.72,8.04-8.87,15.11-14.93,21.53c-11.77,12.45-25.35,22.61-40.09,31.22
	c-8.47,4.95-17.1,9.67-25.85,14.12c-13.57,6.91-27.73,12.43-42.15,17.32c-18.37,6.24-36.15,13.89-53.29,22.98
	c-14.36,7.61-28.1,16.19-40.79,26.38c-2.88,2.31-5.64,4.78-8.54,7.25c-2.22-1.82-4.4-3.6-6.58-5.4
	c-8.68-7.17-17.91-13.57-27.54-19.39c-9.28-5.61-18.82-10.71-28.6-15.37c-13.7-6.53-27.74-12.22-42.1-17.12
	c-11.68-3.99-23.04-8.76-34.25-13.91c-14.14-6.49-27.78-13.9-40.75-22.51c-11.23-7.45-21.75-15.77-30.99-25.63
	c-8.02-8.56-14.46-18.11-18.01-29.44c-2.22-7.09-2.75-14.3-1.82-21.64c0.17-1.31,0.43-2.62,0.47-3.93c0.02-0.46-0.37-1.09-0.76-1.38
	c-2.99-2.25-6.18-4.25-9.03-6.67c-4.62-3.93-8.15-8.65-9.12-14.86c-0.75-4.87,0.54-9.22,3.2-13.37c6.75-10.53,11.97-21.77,14.8-34
	c1.06-4.57,1.62-9.24,2.41-13.87c1.33-7.8,5.84-12.93,13.22-15.5c3.97-1.38,8.01-0.78,12,0.23c11.89,3.02,18.79,11.17,22.83,22.22
	c0.96,2.64,1.67,5.37,2.57,8.32c0.79-3.43,1.54-6.63,2.25-9.84c1.81-8.24,3.81-16.44,5.35-24.73c1.13-6.08,1.79-12.26,2.42-18.43
	c0.68-6.67,1.26-13.36,1.56-20.05c0.32-7.07,0.4-14.17,0.33-21.25c-0.09-9.63-0.83-19.23-2.08-28.79c-1.53-11.66-4-23.09-7.69-34.25
	C69.42,80.91,62.73,67.67,53.6,55.71c-0.13-0.18-0.25-0.36-0.71-0.96c0.44-0.25,0.96-0.43,1.31-0.78
	c7.87-7.85,15.72-15.71,23.56-23.59c8.45-8.49,16.9-16.99,25.32-25.51c0.74-0.74,1.47-1.04,2.51-1.04
	c96.18,0.02,192.36,0.02,288.54,0c1.09,0,1.86,0.3,2.64,1.08c16.31,16.35,32.65,32.68,48.98,49c0.35,0.35,0.8,0.62,1.19,0.91
	C444.59,58.26,442.4,61.46,440.15,64.73 M95.57,320.31c6.05,6.02,12.65,11.35,19.71,16.13c14.53,9.84,30.27,17.33,46.5,23.85
	c11.95,4.8,24.07,9.17,35.96,14.08c15.22,6.29,29.55,14.23,42.6,24.36c3.28,2.54,6.42,5.27,9.68,7.96c0.25-0.22,0.52-0.44,0.78-0.69
	c4.75-4.65,9.94-8.77,15.44-12.49c17.31-11.73,36.31-19.99,55.93-26.85c16.67-5.82,33.16-11.98,48.61-20.62
	c11.63-6.5,22.39-14.16,31.75-23.72c5.21-5.32,9.53-11.2,12.39-18.1c5.87-14.17,7.06-28.84,4.24-43.81
	c-1.98-10.49-4.27-20.92-6.6-31.34c-2.48-11.07-4.2-22.24-4.98-33.56c-0.48-6.93-0.88-13.86-1.19-20.8
	c-0.51-11.33-0.32-22.66,0.52-33.98c0.81-10.95,2.31-21.78,4.75-32.48c4.15-18.19,10.89-35.32,21.32-50.88
	c0.67-1,0.6-1.54-0.24-2.38c-13.34-13.31-26.65-26.64-39.94-40c-0.77-0.77-1.53-1.1-2.62-1.1c-93.48,0.02-186.96,0.02-280.44,0
	c-1.04,0-1.78,0.29-2.52,1.03C95.1,27.15,82.97,39.34,70.82,51.51c-1.51,1.51-3.14,2.91-4.71,4.37c0.47,0.65,0.65,0.96,0.85,1.26
	C73.54,67,78.69,77.56,82.64,88.73c7.51,21.22,10.6,43.21,11.19,65.61c0.41,15.32-0.32,30.6-1.84,45.86
	c-1.16,11.7-3.14,23.24-5.75,34.69c-2.43,10.68-5.1,21.3-5.96,32.27c-0.75,9.52-0.81,19,1.29,28.36
	C83.72,305.11,87.92,313.59,95.57,320.31 M277.69,398.04c-10.34,6.39-19.82,13.85-28.41,23.02c-0.43-0.6-0.7-1.09-1.07-1.48
	c-6.6-7.03-14.02-13.09-22.04-18.41c-10.01-6.63-20.63-12.15-31.68-16.8c-13.34-5.61-26.8-10.91-40.2-16.39
	c-10.83-4.43-21.51-9.16-31.77-14.82c-13.63-7.51-26-16.62-36.58-28.09c-1.08-1.17-2.23-2.33-3.08-3.66
	c-4.77-7.41-8.62-15.25-11.05-23.76c-2.19-7.7-3.2-15.56-2.84-23.54c0.22-4.97,0.6-9.9-0.35-14.84c-1.59-8.2-4.12-16.01-9.14-22.8
	c-5.29-7.17-12.28-11.05-21.36-10.61c-3.15,0.16-5.98,1.26-8.28,3.48c-4.73,4.55-6.27,11.74-3.91,17.93
	c1.63,4.28,4.38,7.72,7.94,10.82c3.51-6.24,6.95-12.34,10.57-18.77c2.71,2.57,5.45,4.81,7.72,7.46c1.46,1.71,2.66,3.92,3.21,6.09
	c1.2,4.76,0.87,9.6-0.57,14.32c-2.44,7.99-7.27,14.57-12.39,20.98c-4.39,5.49-8.96,10.81-12.45,16.99
	c-5.77,10.23-8.07,21.07-6.56,32.69c1.03,7.95,3.86,15.24,8.29,21.96c5.91,8.95,13.02,16.79,21.08,23.84
	c8.17,7.15,17.01,13.37,26.26,19.02c11.4,6.96,23.2,13.15,35.35,18.7c10.47,4.78,21.1,9.16,32.02,12.84
	c13.65,4.59,27.02,9.89,39.96,16.18c8.42,4.09,16.73,8.43,24.91,12.98c13.15,7.31,25.8,15.42,37.13,25.41
	c1.11,0.98,1.72,0.67,2.6-0.09c7.78-6.75,16.12-12.73,24.8-18.26c15.26-9.73,31.45-17.65,47.96-24.98
	c11.9-5.29,24.2-9.55,36.41-14.02c19.3-7.07,37.93-15.57,55.64-26.03c14.89-8.8,28.7-19.02,40.67-31.6c6.66-7,12.41-14.6,15.99-23.7
	c3.56-9.05,4.66-18.35,2.94-27.94c-1.52-8.46-4.99-16.14-9.99-23.06c-3.5-4.84-7.48-9.33-11.15-14.04
	c-4.2-5.4-7.78-11.15-9.76-17.79c-1.19-3.99-1.69-8.06-1.18-12.18c0.66-5.31,3.84-9.17,7.79-12.48c1.18-0.99,2.4-1.92,3.7-2.96
	c0.49,0.79,0.88,1.4,1.24,2.03c2.9,5.07,5.81,10.15,8.69,15.23c0.41,0.72,0.76,1.13,1.53,0.36c5.24-5.22,8.37-11.33,7.34-18.91
	c-0.76-5.57-3.6-9.89-9.04-11.93c-5.39-2.02-10.53-0.77-15.4,1.87c-5.33,2.89-9,7.38-11.72,12.69c-3.27,6.36-4.91,13.23-6.33,20.17
	c-0.75,3.66-1.47,7.31-1.05,11.09c0.6,5.4,0.05,10.76-0.71,16.09c-0.99,6.95-3.01,13.63-5.95,20c-2.74,5.93-5.57,11.82-10.11,16.68
	c-7.67,8.22-16.15,15.48-25.45,21.8c-8.82,5.99-18.07,11.27-27.79,15.66c-7.28,3.28-14.6,6.55-22.12,9.18
	c-10,3.49-20.07,6.76-29.84,10.87C297.65,386.92,287.5,391.92,277.69,398.04 M494.23,293.55c-0.22-0.69-0.33-1.44-0.67-2.08
	c-1.96-3.66-3.98-7.29-5.95-10.94c-4.09-7.57-7.63-15.37-9.86-23.71c-0.44-1.64-0.86-3.28-1.3-4.94c-0.26,0.09-0.38,0.1-0.42,0.15
	c-0.21,0.3-0.4,0.61-0.58,0.92c-2.44,4.1-5.5,7.64-9.57,10.18c-3.45,2.15-7.18,3.41-11.3,2.77c-2.04-0.32-4.04-0.9-6.19-1.4
	c0.06,0.38,0.09,0.82,0.21,1.24c1.06,3.82,2.72,7.41,5.01,10.6c4,5.55,8.2,10.95,12.43,16.33c4.08,5.19,7.81,10.57,10.23,16.77
	c0.79,2.02,1.6,4.04,2.41,6.07c0.23-0.07,0.37-0.09,0.49-0.15c5.25-2.84,9.44-6.84,12.78-11.76
	C493.95,300.65,495.06,297.44,494.23,293.55 M31.91,262.14c-3.8-2.67-6.49-6.31-8.98-10.54c-0.24,0.68-0.38,0.99-0.46,1.32
	c-3.32,12.8-8.83,24.66-15.73,35.87c-2.69,4.37-2.76,8.57-0.47,12.95c2.65,5.07,6.85,8.72,11.36,12.06
	c0.93,0.69,1.92,1.28,2.87,1.91c0.2-0.28,0.28-0.34,0.31-0.42c0.12-0.34,0.23-0.69,0.34-1.04c2.37-7.54,6.05-14.38,10.98-20.54
	c3.4-4.24,6.88-8.41,10.23-12.69c3.34-4.27,6.02-8.93,7.85-14.06c0.29-0.81,0.42-1.68,0.7-2.83C44,267.19,37.85,266.4,31.91,262.14
	 M49.8,259.3c1.6-2.15,2.12-4.53,0.75-6.9c-1.08-1.86-2.53-3.52-3.89-5.21c-0.65-0.82-1.24-0.66-1.76,0.29
	c-1.61,2.96-3.3,5.89-4.94,8.83c-0.74,1.33-1.46,2.69-2.27,4.17c1.02,0.34,1.82,0.67,2.65,0.86
	C43.73,262.14,46.96,262.04,49.8,259.3 M455.95,261.56c1.87,0.01,3.68-0.27,5.36-1.1c-0.02-0.25,0.01-0.41-0.05-0.52
	c-2.37-4.21-4.76-8.4-7.13-12.61c-0.48-0.86-1.02-0.84-1.59-0.18c-1.19,1.37-2.58,2.64-3.44,4.21c-0.7,1.28-1.23,2.98-1.01,4.37
	C448.71,259.75,451.22,261.51,455.95,261.56z"/>
<path class="st56" d="M95.5,320.26c-7.58-6.67-11.78-15.14-13.92-24.73c-2.09-9.37-2.03-18.84-1.29-28.36
	c0.86-10.98,3.54-21.59,5.96-32.27c2.6-11.44,4.58-22.99,5.75-34.69c1.52-15.26,2.24-30.54,1.84-45.86
	c-0.6-22.4-3.68-44.38-11.19-65.61C78.69,77.56,73.54,67,66.97,57.14c-0.2-0.3-0.39-0.61-0.85-1.26c1.57-1.45,3.2-2.85,4.71-4.37
	c12.15-12.17,24.28-24.36,36.39-36.57c0.74-0.74,1.48-1.03,2.52-1.03c93.48,0.02,186.96,0.02,280.44,0c1.1,0,1.85,0.33,2.62,1.1
	c13.29,13.36,26.6,26.69,39.94,40c0.84,0.84,0.91,1.38,0.24,2.38c-10.43,15.56-17.17,32.69-21.32,50.88
	c-2.44,10.7-3.94,21.54-4.75,32.48c-0.84,11.32-1.02,22.65-0.52,33.98c0.31,6.94,0.71,13.87,1.19,20.8
	c0.78,11.31,2.5,22.48,4.98,33.56c2.33,10.42,4.62,20.85,6.6,31.34c2.82,14.97,1.63,29.64-4.24,43.81
	c-2.86,6.9-7.18,12.78-12.39,18.1c-9.36,9.56-20.12,17.22-31.75,23.72c-15.46,8.64-31.94,14.8-48.61,20.62
	c-19.62,6.86-38.62,15.12-55.93,26.85c-5.5,3.72-10.69,7.84-15.44,12.49c-0.25,0.25-0.53,0.47-0.78,0.69
	c-3.27-2.69-6.4-5.42-9.68-7.96c-13.04-10.13-27.38-18.07-42.6-24.36c-11.9-4.92-24.02-9.29-35.96-14.08
	c-16.22-6.52-31.97-14.01-46.5-23.85C108.23,331.67,101.62,326.33,95.5,320.26 M323.46,63.1c2.53-1.72,5.05-3.44,7.58-5.16
	c3.61-2.46,3.58-2.42,7.11,0.12c2.43,1.75,4.93,3.39,7.74,5.31c-0.17-0.78-0.23-1.17-0.34-1.54c-1.03-3.5-2.02-7.01-3.13-10.48
	c-0.31-0.96-0.11-1.53,0.66-2.09c2.06-1.51,4.09-3.06,6.11-4.62c1.23-0.94,2.43-1.92,3.64-2.88c-0.05-0.19-0.09-0.38-0.14-0.57
	c-4.1,0-8.2-0.03-12.29,0.02c-0.94,0.01-1.37-0.29-1.67-1.18c-1.15-3.42-2.37-6.8-3.58-10.2c-0.15-0.43-0.36-0.85-0.67-1.59
	c-0.31,0.79-0.48,1.2-0.63,1.63c-1.17,3.31-2.32,6.63-3.5,9.94c-0.25,0.71-0.43,1.4-1.53,1.41c-3.74,0.01-7.48,0.15-11.23,0.25
	c-0.43,0.01-0.87,0.05-1.3,0.08c-0.07,0.11-0.14,0.23-0.21,0.34c0.23,0.12,0.49,0.22,0.69,0.38c2.97,2.27,5.9,4.61,8.92,6.81
	c0.99,0.72,1.23,1.38,0.84,2.51c-0.66,1.94-1.23,3.91-1.79,5.89c-0.53,1.88-0.99,3.78-1.57,5.68
	C323.22,63.13,323.24,63.12,323.46,63.1 M176.76,63.2c0.03,0.01,0.05,0.03,0.08,0.04c-0.04-0.04-0.08-0.08-0.09-0.34
	c-0.04-0.27-0.06-0.55-0.13-0.81c-1.07-3.67-2.12-7.36-3.26-11.01c-0.26-0.83-0.04-1.28,0.58-1.73c1.72-1.28,3.43-2.58,5.13-3.88
	c1.59-1.22,3.17-2.45,4.75-3.68c-0.05-0.2-0.1-0.4-0.16-0.6c-4,0-8.01-0.05-12.01,0.03c-1.2,0.03-1.69-0.44-2.04-1.48
	c-1.14-3.37-2.35-6.72-3.54-10.07c-0.13-0.38-0.33-0.74-0.62-1.4c-0.34,0.87-0.55,1.37-0.73,1.88c-1.17,3.31-2.35,6.62-3.48,9.94
	c-0.25,0.74-0.57,1.1-1.43,1.11c-3.79,0.04-7.57,0.16-11.36,0.26c-0.41,0.01-0.81,0.05-1.6,0.1c3.54,2.71,6.7,5.17,9.91,7.56
	c0.92,0.68,1.15,1.31,0.77,2.42c-0.87,2.59-1.6,5.23-2.37,7.85c-0.35,1.18-0.66,2.37-1.08,3.94c0.8-0.5,1.22-0.75,1.63-1.03
	c2.94-2.01,5.88-4.01,8.79-6.06c0.74-0.52,1.25-0.56,2.04,0.02c2.13,1.57,4.35,3.02,6.54,4.5C174.28,61.56,175.51,62.33,176.76,63.2
	 M188.7,146.67c9.57-2.25,19.14-4.49,29.07-6.82c-7.8,8.77-15.35,17.25-23.16,26.02c0.86-0.13,1.34-0.19,1.82-0.28
	c14.97-2.87,29.94-5.75,44.9-8.63c17.88-3.44,35.76-6.89,53.64-10.32c4.21-0.81,8.43-1.56,12.73-2.16
	c3.3,7.21,9.24,10.5,16.84,11.01c0.33,1.88-0.01,3.35-0.85,4.72c-1.17,1.9-2.98,2.95-5.01,3.6c-1.72,0.56-3.52,0.89-5.45,1.36
	c4.72,2.6,9.25,5.27,15.36,3.59c-0.75,1.81-1.21,3.38-2,4.76c-1.86,3.23-4.88,5.02-8.76,6.16c1.28,0.51,2.19,0.89,3.11,1.23
	c1.99,0.75,3.98,1.48,5.93,2.4c-11,14.04-22.01,28.08-33.01,42.12c-0.1-0.03-0.19-0.06-0.29-0.09c0-9.72,0-19.44,0-29.44
	c-0.48,0.61-0.77,0.96-1.04,1.32c-18.49,24.74-36.97,49.48-55.46,74.21c-1.8,2.41-3.66,4.77-5.68,7.13
	c-5.08-3.81-10.65-6.68-16.61-8.86c-4.35-1.59-8.76-2.62-13.39-2.05c-5.3,0.65-9.92,2.98-14.12,6.21c-1.2,0.92-2.37,1.87-3.79,2.99
	c1.31,0.13,2.27,0.19,3.21,0.32c2.9,0.38,5.79,0.85,8.38,2.31c1.18,0.67,2.25,1.5,2.53,3.04c-0.56,0.16-1,0.3-1.43,0.4
	c-6.29,1.53-12.32,3.71-17.89,7.05c-3.97,2.39-7.5,5.26-9.47,9.61c-2.81,6.2-4.41,12.67-3.87,19.52c0.34,4.35,1.9,8.22,4.92,11.47
	c2.96,3.18,6.73,4.92,11.13,6.38c-6.6,0.83-12.48,0.01-18.11-3.78c0.26,0.65,0.32,0.86,0.43,1.05c2.89,5.19,6.44,9.86,10.9,13.81
	c8.37,7.42,18.37,8.33,27.89,2.48c2.04-1.26,3.95-2.73,5.97-4.15c0.17,0.35,0.32,0.67,0.48,0.98c2.21,4.31,4.95,8.2,8.81,11.22
	c4.78,3.75,10.13,4.87,15.98,3.36c4.18-1.07,7.83-3.25,11.18-5.91c1.83-1.45,3.55-3.05,5.52-4.75c-2.87-1.18-5.27-2.35-6.97-4.58
	c-1.82-2.39-2.48-5.83-1.36-7.5c0.23,0.11,0.48,0.21,0.71,0.35c3.24,1.93,6.69,3.29,10.39,4.11c7.19,1.6,13.57-0.91,17.5-7.12
	c2.19-3.46,3.63-7.24,4.17-11.36c-0.02,0.01-0.05,0.02-0.24,0.09c-2.11,1.43-4.1,3.06-6.35,4.22c-2.04,1.06-4.32,1.17-6.62-0.23
	c3.17-3.24,5.41-6.83,6.83-10.96c1.36-3.96,1.45-10.92,0.28-12.72c-0.25,0.47-0.44,0.94-0.73,1.33c-1.11,1.5-2.18,3.03-3.4,4.42
	c-0.71,0.81-1.71,1.34-2.95,0.81c0.11-0.4,0.2-0.75,0.29-1.1c1.25-4.65,0.98-9.12-1.6-13.29c-2.02-3.28-5.07-5.29-8.5-6.85
	c-1.59-0.72-3.19-1.19-4.88-0.52c-2.89,1.14-5.25,0.6-7.01-2.16c10.23-13.37,20.45-26.74,30.68-40.11c0.08,0.04,0.17,0.09,0.25,0.13
	c-0.55,10.48-1.1,20.97-1.66,31.45c0.11,0.05,0.23,0.09,0.34,0.14c0.09-0.16,0.16-0.33,0.27-0.46
	c14.26-17.21,28.53-34.41,42.8-51.61c10.77-12.97,21.55-25.94,32.43-38.75c4.26,2.87,8.78,3.59,13.62,1.61
	c3.04-1.24,5.31-3.49,7.48-5.83c0.89,0.32,1.68,0.66,2.51,0.89c2.03,0.57,3.8,0.07,4.68-1.58c1.67-3.16,1.65-7.62-1.7-10.34
	c-0.91-0.74-1.99-1.27-3.09-1.96c1.89,0,3.67,0.15,5.42-0.03c3.99-0.4,7.56-1.83,10.07-5.13c3.15-4.15,3.75-8.8,0.16-13
	c-0.6-0.7-1.36-1.26-2.1-1.93c10.71-2.9,16.14-10.03,15.8-20.96c-0.09-2.93-0.66-5.89-1.38-8.75c-1.43-5.72-4.78-9.95-10.29-12.37
	c-4.1-1.8-8.37-1.62-12.66-1.42c-0.59,0.03-1.17,0.14-1.76,0.21c-0.03-0.14-0.05-0.28-0.08-0.42c3.56-4.08,8.4-4.41,13.58-4.25
	c-1-1.56-1.77-3.02-2.79-4.29c-3.25-4.06-6.5-8.13-9.91-12.05c-1.94-2.24-4.17-4.26-7.03-5.33c-1.73-0.64-3.52-0.68-4.71,1
	c-1.53,2.17-2.89,4.46-4.14,6.43c-2.96-1.63-6.05-3.57-9.33-5.1c-3.95-1.85-8.12-2.53-12.3-0.65c-3.45,1.55-4.01,4.6-1.29,7.23
	c1.54,1.48,3.32,2.7,5.01,4.03c1.58,1.25,3.25,2.49,3.63,4.62c0.13,0.72-0.06,1.77-0.54,2.22c-0.33,0.32-1.55,0.1-2.1-0.28
	c-1.61-1.11-3.04-2.48-4.62-3.63c-2.05-1.5-4.04-3.19-6.31-4.25c-5-2.33-9.79-1.82-14.2,1.76c-3.89,3.16-6.39,7.22-8.09,11.83
	c-2.27,6.17-2.89,12.59-2.88,19.21c-17.73,4.05-35.46,8.09-53.43,12.2c0.37-0.54,0.59-0.87,0.83-1.19c3.14-4.1,6.28-8.19,9.41-12.3
	c2.93-3.85,5.83-7.72,8.8-11.62l-0.01-0.07c0,0-0.02,0.13-0.24,0.05c-0.32,0.05-0.64,0.07-0.95,0.14
	c-23.67,5.71-47.33,11.42-71,17.12c-3.81,0.92-7.63,1.76-11.63,2.54c-1.36-2.22-2.58-4.53-4.1-6.63c-3.86-5.29-8.7-9.2-15.44-10.19
	c-0.28-0.04-0.56-0.18-0.9-0.3c1.16-1.57,2.63-2.52,4.33-2.92c1.62-0.38,3.32-0.42,5.04-0.61c-3.96-3.76-8.71-5.97-14.25-6.19
	c-6.43-0.25-12.04,2.19-17.15,5.89c-1.94,1.41-3.76,3-5.75,4.59c-1.8-2.95-1.4-5.62,1.01-8.38c-2.9,0.32-5.44,0.47-7.94,0.9
	c-4.25,0.74-8.38,1.92-11.83,4.69c-1.96,1.57-3.37,3.51-3.78,6.14c3.77,0.41,7.8-0.23,10.25,3.8c-4.45,0.59-8.48,1.68-12.2,3.74
	c-4.45,2.47-7.7,5.93-9.15,10.93c-1.03,3.58-0.76,7.13,0.02,10.68c1.15,5.26,2.84,10.29,6.69,14.26c-1.04,1.42-2.15,1.9-3.73,1.28
	c-1.27-0.49-2.4-1.33-3.65-2.04c1.55,6.46,3.43,12.67,9.99,16.28c-0.89-8.04-0.67-9.71,1.2-11.27c1.44,3.07,2.6,6.39,4.42,9.29
	c5.46,8.69,12.84,14.16,23.77,12.84c4.38-0.53,8.43-1.95,11.91-4.77c0.49-0.4,1-0.77,1.51-1.16c0.12,0.09,0.23,0.17,0.35,0.26
	c-1.27,3.05-2.53,6.1-3.8,9.16c0.24,0,0.6,0.07,0.93-0.01c5.67-1.32,11.17-3.1,16.18-6.14c6.84-4.15,11.58-9.7,12.01-18.12
	c0.02-0.34,0.23-0.83,0.51-0.98c3.71-2.12,5.37-5.62,6.34-9.52C188.95,154.91,189.02,150.86,188.7,146.67 M266.18,43.48
	c0.71-0.58,1.42-1.15,2.36-1.92c-4.45-0.13-8.55-0.29-12.64-0.36c-0.91-0.02-1.39-0.25-1.68-1.16c-0.7-2.22-1.51-4.4-2.29-6.59
	c-0.6-1.69-1.21-3.38-1.92-5.36c-0.25,0.62-0.4,0.94-0.51,1.26c-1.24,3.53-2.51,7.05-3.68,10.6c-0.31,0.95-0.78,1.24-1.76,1.25
	c-3.83,0.03-7.67,0.16-11.5,0.26c-0.27,0.01-0.54,0.1-1.06,0.21c3.4,2.6,6.56,5.06,9.78,7.45c0.92,0.68,1.14,1.31,0.77,2.41
	c-0.96,2.9-1.8,5.84-2.67,8.77c-0.26,0.87-0.45,1.77-0.76,3c0.78-0.49,1.2-0.74,1.6-1.02c2.94-2.01,5.88-4.01,8.79-6.07
	c0.71-0.5,1.23-0.52,1.95-0.01c2.68,1.9,5.4,3.75,8.11,5.61c0.65,0.45,1.33,0.85,2.25,1.43c-0.13-0.68-0.18-1.03-0.27-1.36
	c-1.04-3.54-2.05-7.09-3.17-10.61c-0.29-0.91-0.12-1.45,0.61-1.99C261.02,47.43,263.52,45.51,266.18,43.48z"/>
<path class="st4" d="M277.77,397.98c9.72-6.06,19.87-11.06,30.33-15.46c9.77-4.11,19.84-7.37,29.84-10.87
	c7.53-2.63,14.85-5.9,22.12-9.18c9.72-4.39,18.96-9.66,27.79-15.66c9.3-6.31,17.78-13.58,25.45-21.8
	c4.53-4.86,7.37-10.75,10.11-16.68c2.94-6.37,4.96-13.05,5.95-20c0.76-5.33,1.31-10.7,0.71-16.09c-0.42-3.78,0.3-7.42,1.05-11.09
	c1.42-6.94,3.07-13.82,6.33-20.17c2.73-5.31,6.39-9.8,11.72-12.69c4.87-2.64,10.01-3.89,15.4-1.87c5.44,2.04,8.28,6.36,9.04,11.93
	c1.03,7.58-2.1,13.69-7.34,18.91c-0.77,0.76-1.12,0.35-1.53-0.36c-2.89-5.08-5.79-10.16-8.69-15.23c-0.36-0.63-0.75-1.23-1.24-2.03
	c-1.3,1.04-2.52,1.98-3.7,2.96c-3.95,3.31-7.13,7.17-7.79,12.48c-0.51,4.12-0.02,8.19,1.18,12.18c1.98,6.63,5.56,12.39,9.76,17.79
	c3.67,4.72,7.66,9.2,11.15,14.04c5,6.92,8.47,14.6,9.99,23.06c1.72,9.59,0.62,18.88-2.94,27.94c-3.57,9.09-9.33,16.7-15.99,23.7
	c-11.96,12.58-25.77,22.8-40.67,31.6c-17.71,10.46-36.34,18.95-55.64,26.03c-12.21,4.48-24.51,8.73-36.41,14.02
	c-16.5,7.34-32.7,15.26-47.96,24.98c-8.68,5.53-17.02,11.51-24.8,18.26c-0.88,0.76-1.48,1.07-2.6,0.09
	c-11.33-9.98-23.98-18.09-37.13-25.41c-8.18-4.55-16.49-8.89-24.91-12.98c-12.95-6.29-26.32-11.59-39.96-16.18
	c-10.92-3.67-21.54-8.05-32.02-12.84c-12.15-5.55-23.96-11.74-35.35-18.7c-9.25-5.65-18.09-11.87-26.26-19.02
	c-8.06-7.05-15.17-14.89-21.08-23.84c-4.43-6.72-7.27-14-8.29-21.96c-1.5-11.62,0.79-22.46,6.56-32.69
	c3.49-6.18,8.06-11.5,12.45-16.99c5.13-6.41,9.95-12.99,12.39-20.98c1.44-4.72,1.78-9.56,0.57-14.32c-0.55-2.18-1.75-4.38-3.21-6.09
	c-2.27-2.65-5.01-4.89-7.72-7.46c-3.62,6.43-7.06,12.53-10.57,18.77c-3.57-3.1-6.31-6.54-7.94-10.82
	c-2.36-6.19-0.81-13.37,3.91-17.93c2.3-2.22,5.13-3.33,8.28-3.48c9.08-0.45,16.07,3.44,21.36,10.61c5.02,6.8,7.55,14.61,9.14,22.8
	c0.96,4.94,0.58,9.87,0.35,14.84c-0.36,7.97,0.65,15.83,2.84,23.54c2.42,8.51,6.28,16.35,11.05,23.76c0.86,1.33,2,2.49,3.08,3.66
	c10.57,11.47,22.95,20.58,36.58,28.09c10.26,5.65,20.94,10.39,31.77,14.82c13.39,5.47,26.86,10.78,40.2,16.39
	c11.05,4.65,21.67,10.16,31.68,16.8c8.02,5.32,15.45,11.37,22.04,18.41c0.37,0.4,0.64,0.88,1.07,1.48
	C257.87,411.88,267.35,404.42,277.77,397.98 M416.94,321.58c-2.6,2.88-5.06,5.9-7.84,8.61c-20.55,20.08-45.37,33.06-72.18,42.42
	c-15.74,5.5-31.43,11.02-46.26,18.74c-15.06,7.84-28.92,17.32-40.61,29.76c-0.18,0.19-0.41,0.33-0.64,0.51
	c-0.29-0.27-0.53-0.48-0.74-0.7c-8.5-9.14-18.29-16.67-28.98-23.07c-12.62-7.55-26.06-13.34-39.64-18.89
	c-14.4-5.89-28.88-11.61-43.11-17.88c-15.41-6.79-29.8-15.37-42.4-26.68c-6.34-5.69-12.24-11.7-16.31-19.4
	c-7.06-13.36-10.69-27.44-9.8-42.57c0.25-4.22,0.39-8.37-0.37-12.55c-1.42-7.85-3.8-15.33-8.33-21.99
	c-4.32-6.35-10.05-10.47-17.89-11.36c-10.87-1.23-15.67,6.25-16.29,13.37c-0.63,7.23,3.16,12.48,8.12,17.28
	c3.51-6.23,6.95-12.34,10.46-18.58c3.34,2.69,6.62,5.17,9.13,8.48c1.77,2.35,2.96,4.93,3.23,7.88c0.58,6.38-0.51,12.44-3.34,18.23
	c-2.94,6-6.96,11.25-11.12,16.42c-4.18,5.19-8.43,10.31-11.71,16.19c-6.77,12.13-8.36,24.84-5.07,38.27
	c1.91,7.81,6.03,14.45,10.74,20.79c8.75,11.77,19.62,21.3,31.62,29.57c23.95,16.5,49.92,29.07,77.34,38.58
	c37.84,13.13,73.45,30.36,104.87,55.78c0.13-0.11,0.46-0.35,0.77-0.62c11.7-10.04,24.45-18.56,37.9-26.04
	c20.51-11.41,41.91-20.83,64.06-28.6c19.45-6.83,38.37-14.89,56.41-24.93c17.02-9.47,32.87-20.51,46.46-34.59
	c5.7-5.91,10.84-12.26,14.48-19.69c4.7-9.59,6.74-19.64,5.18-30.32c-1.3-8.86-4.72-16.88-9.86-24.11
	c-3.22-4.54-6.91-8.74-10.38-13.11c-4.48-5.65-8.46-11.59-10.68-18.54c-1.58-4.95-2.3-10.02-1.06-15.13
	c1.62-6.65,6.75-10.48,11.96-14.41c3.53,6.17,6.99,12.21,10.51,18.37c3.76-3.63,6.38-7.71,7.29-12.76
	c0.77-4.29,0.26-8.39-2.12-12.12c-3.54-5.57-10.12-7.51-17.22-5.12c-7.49,2.52-12.37,7.86-15.78,14.74
	c-2.89,5.82-4.44,12.05-5.79,18.36c-0.95,4.44-1.53,8.85-1.17,13.44c0.44,5.71-0.11,11.42-1.15,17.06
	C427.56,301.81,423.09,311.93,416.94,321.58z"/>
<path class="st6" d="M494.24,293.67c0.82,3.76-0.29,6.98-2.31,9.95c-3.33,4.91-7.53,8.92-12.78,11.76
	c-0.11,0.06-0.25,0.08-0.49,0.15c-0.81-2.03-1.62-4.04-2.41-6.07c-2.42-6.19-6.15-11.57-10.23-16.77
	c-4.23-5.38-8.43-10.78-12.43-16.33c-2.29-3.18-3.95-6.78-5.01-10.6c-0.12-0.42-0.14-0.85-0.21-1.24c2.15,0.49,4.15,1.08,6.19,1.4
	c4.12,0.64,7.85-0.62,11.3-2.77c4.08-2.55,7.13-6.08,9.57-10.18c0.19-0.31,0.38-0.62,0.58-0.92c0.04-0.06,0.16-0.06,0.42-0.15
	c0.43,1.65,0.86,3.3,1.3,4.94c2.22,8.35,5.76,16.15,9.86,23.71c1.97,3.65,4,7.28,5.95,10.94
	C493.9,292.11,494.01,292.86,494.24,293.67 M458.98,266.48c-3.34,0.65-6.56-0.05-9.91-1.21c1.24,4.17,2.95,7.82,5.27,11.09
	c3.27,4.62,6.74,9.1,10.26,13.53c4.35,5.48,8.67,10.97,11.46,17.47c1.03,2.41,2,4.85,3.05,7.38c6-3.53,10.88-8.12,13.88-14.4
	c0.76-1.59,0.83-3.65,0.76-5.47c-0.11-3.16-1.91-5.75-3.47-8.38c-5.94-10.06-11-20.5-13.78-31.92c-0.1-0.41-0.21-0.81-0.37-1.41
	C471.95,259.73,466.97,264.87,458.98,266.48z"/>
<path class="st4" d="M31.99,262.19c5.85,4.2,12.01,5,18.92,1.94c-0.28,1.15-0.41,2.01-0.7,2.83c-1.82,5.13-4.51,9.79-7.85,14.06
	c-3.35,4.28-6.83,8.45-10.23,12.69c-4.93,6.16-8.62,13-10.98,20.54c-0.11,0.35-0.22,0.7-0.34,1.04c-0.03,0.08-0.1,0.15-0.31,0.42
	c-0.95-0.63-1.94-1.22-2.87-1.91c-4.51-3.34-8.71-6.98-11.36-12.06c-2.29-4.38-2.22-8.58,0.47-12.95
	c6.9-11.21,12.41-23.07,15.73-35.87c0.09-0.33,0.22-0.65,0.46-1.32C25.43,255.82,28.11,259.47,31.99,262.19 M8.5,304.19
	c3.18,4.33,7.24,7.66,11.77,10.65c0.15-0.42,0.24-0.71,0.36-1c1.4-3.36,2.65-6.8,4.24-10.07c3.13-6.48,7.83-11.87,12.42-17.33
	c4.62-5.51,8.97-11.2,11.69-17.94c0.4-0.99,0.72-2.02,1.16-3.27c-0.66,0.2-1.04,0.3-1.4,0.44c-3.8,1.36-7.61,1.38-11.41,0.03
	c-5.86-2.08-10.04-6.16-13.37-11.26c-0.25-0.39-0.49-0.78-0.78-1.23c-0.16,0.25-0.23,0.32-0.26,0.4c-3.42,13-9.15,24.98-16.16,36.38
	c-1.08,1.75-1.63,3.65-1.56,5.73C5.31,298.86,6.65,301.52,8.5,304.19z"/>
<path class="st7" d="M49.73,259.38c-2.78,2.66-6,2.76-9.39,1.97c-0.83-0.19-1.62-0.52-2.65-0.86c0.81-1.49,1.52-2.84,2.27-4.17
	c1.64-2.95,3.33-5.87,4.94-8.83c0.52-0.96,1.11-1.11,1.76-0.29c1.36,1.69,2.81,3.35,3.89,5.21
	C51.92,254.77,51.4,257.15,49.73,259.38 M40.41,256.81c-0.59,1.07-1.18,2.14-1.83,3.32c2.93,1.07,5.76,1.47,8.62,0.28
	c2.32-0.96,3.52-2.88,3.4-5.3c-0.16-3.38-2.33-5.67-4.81-7.87C43.96,250.51,42.24,253.58,40.41,256.81z"/>
<path class="st8" d="M455.82,261.56c-4.6-0.05-7.11-1.81-7.73-5.83c-0.22-1.39,0.31-3.1,1.01-4.37c0.86-1.56,2.25-2.84,3.44-4.21
	c0.57-0.65,1.11-0.67,1.59,0.18c2.36,4.21,4.75,8.41,7.13,12.61c0.06,0.11,0.03,0.26,0.05,0.52
	C459.63,261.29,457.82,261.57,455.82,261.56 M448.54,254.62c0.05,2.08,0.77,3.84,2.48,5.09c2.23,1.63,7.08,1.75,9.55,0.22
	c-2.37-4.18-4.75-8.37-7.2-12.68C451.02,249.3,449.17,251.42,448.54,254.62z"/>
<path class="st11" d="M274.41,325.18c-0.46,4.11-1.9,7.88-4.09,11.35c-3.93,6.21-10.31,8.72-17.5,7.12
	c-3.69-0.82-7.15-2.18-10.39-4.11c-0.23-0.14-0.48-0.24-0.71-0.35c-1.13,1.68-0.47,5.11,1.36,7.5c1.7,2.22,4.1,3.4,6.97,4.58
	c-1.96,1.7-3.68,3.29-5.52,4.75c-3.35,2.66-7,4.83-11.18,5.91c-5.85,1.5-11.2,0.39-15.98-3.36c-3.86-3.02-6.59-6.91-8.81-11.22
	c-0.16-0.31-0.31-0.64-0.48-0.98c-2.03,1.42-3.93,2.89-5.97,4.15c-9.52,5.85-19.52,4.95-27.89-2.48c-4.46-3.95-8.01-8.62-10.9-13.81
	c-0.11-0.19-0.17-0.4-0.43-1.05c5.63,3.79,11.51,4.61,18.11,3.78c-4.4-1.46-8.17-3.2-11.13-6.38c-3.02-3.25-4.57-7.12-4.92-11.47
	c-0.54-6.86,1.06-13.32,3.87-19.52c1.97-4.35,5.5-7.22,9.47-9.61c5.56-3.35,11.6-5.52,17.89-7.05c0.44-0.11,0.87-0.24,1.43-0.4
	c-0.29-1.54-1.35-2.37-2.53-3.04c-2.59-1.46-5.48-1.93-8.38-2.31c-0.95-0.13-1.9-0.19-3.21-0.32c1.42-1.12,2.6-2.07,3.79-2.99
	c4.2-3.22,8.81-5.55,14.12-6.21c4.63-0.57,9.05,0.46,13.39,2.05c5.96,2.18,11.53,5.06,16.69,8.96c-2.27,3.27-4.62,6.44-7.05,9.72
	c-1.66-3.03-3.19-5.83-4.88-8.92c-2.94,13.85-5.81,27.33-8.74,41.14c10.94-6.92,21.55-13.63,32.32-20.44
	c-3.26-1.54-6.25-2.95-9.34-4.4c2.01-2.57,3.89-4.98,5.78-7.39c1.81,2.59,4.18,3.13,7.06,1.99c1.69-0.67,3.3-0.21,4.88,0.52
	c3.42,1.56,6.47,3.58,8.5,6.85c2.58,4.18,2.85,8.65,1.6,13.29c-0.09,0.35-0.18,0.7-0.29,1.1c1.23,0.53,2.23,0.01,2.95-0.81
	c1.23-1.39,2.29-2.93,3.4-4.42c0.29-0.39,0.48-0.86,0.73-1.33c1.17,1.8,1.08,8.76-0.28,12.72c-1.42,4.13-3.66,7.71-6.83,10.96
	c2.3,1.4,4.58,1.29,6.62,0.23c2.24-1.16,4.24-2.79,6.43-4.25C274.42,325.19,274.41,325.18,274.41,325.18z"/>
<path class="st57" d="M303.56,126.39c-0.19-6.53,0.43-12.95,2.7-19.12c1.7-4.61,4.2-8.68,8.09-11.83c4.41-3.57,9.2-4.09,14.2-1.76
	c2.27,1.06,4.26,2.76,6.31,4.25c1.58,1.15,3.01,2.52,4.62,3.63c0.55,0.38,1.76,0.59,2.1,0.28c0.47-0.45,0.67-1.51,0.54-2.22
	c-0.38-2.13-2.05-3.36-3.63-4.62c-1.68-1.33-3.47-2.55-5.01-4.03c-2.72-2.63-2.16-5.68,1.29-7.23c4.18-1.88,8.35-1.2,12.3,0.65
	c3.28,1.53,6.38,3.47,9.33,5.1c1.26-1.97,2.61-4.26,4.14-6.43c1.19-1.68,2.98-1.65,4.71-1c2.86,1.07,5.09,3.09,7.03,5.33
	c3.41,3.93,6.66,7.99,9.91,12.05c1.01,1.27,1.78,2.73,2.79,4.29c-5.17-0.17-10.02,0.17-13.58,4.25c0.03,0.14,0.05,0.28,0.08,0.42
	c0.59-0.07,1.17-0.19,1.76-0.21c4.29-0.2,8.57-0.39,12.66,1.42c5.51,2.43,8.86,6.66,10.29,12.37c0.72,2.86,1.28,5.82,1.38,8.75
	c0.35,10.93-5.09,18.05-15.8,20.96c0.74,0.67,1.5,1.23,2.1,1.93c3.59,4.2,2.99,8.85-0.16,13c-2.51,3.3-6.07,4.72-10.07,5.13
	c-1.75,0.18-3.53,0.03-5.42,0.03c1.11,0.69,2.19,1.22,3.09,1.96c3.35,2.72,3.37,7.18,1.7,10.34c-0.87,1.65-2.64,2.15-4.68,1.58
	c-0.83-0.23-1.62-0.57-2.51-0.89c-2.16,2.34-4.44,4.59-7.48,5.83c-4.83,1.98-9.35,1.26-13.62-1.78
	c5.66-7.01,11.35-13.84,17.01-20.69c2.84-3.44,5.64-6.9,8.54-10.37c0.06-0.08,0.04-0.13,0.02-0.19c-0.03,0.01-0.1,0.03-0.1,0.04
	c0,0.06,0.02,0.13-0.04,0.11c-0.57,0.16-1.07,0.39-1.55,0.64c-3.56,1.85-7.11,3.7-10.73,5.49c-0.12-0.09-0.17-0.13-0.18-0.25
	c5.42-9.39,10.81-18.69,16.2-27.99c-0.11-0.09-0.22-0.17-0.33-0.26c-6.71,6.88-13.43,13.77-20.35,20.86
	c0.39-2.68,0.72-5.02,1.1-7.65c-0.45,0.5-0.73,0.78-0.97,1.09c-5.08,6.47-10.15,12.95-15.25,19.42c-3.7,4.7-7.44,9.37-11.16,14.06
	c-1.99-0.74-3.99-1.47-5.98-2.21c-0.92-0.35-1.83-0.72-3.11-1.23c3.89-1.13,6.9-2.93,8.76-6.16c0.79-1.38,1.25-2.95,2-4.76
	c-6.11,1.68-10.64-0.99-15.36-3.59c1.93-0.47,3.73-0.8,5.45-1.36c2.02-0.65,3.84-1.7,5.01-3.6c0.84-1.37,1.18-2.84,0.85-4.72
	c-7.6-0.52-13.54-3.8-16.8-11.17c16.56-3.33,33.09-6.51,49.61-9.69c0-0.09-0.01-0.18-0.01-0.28c-4.84-1.07-9.68-2.14-14.89-3.29
	c10.54-4.2,20.7-8.24,30.86-12.28c-0.03-0.07-0.05-0.14-0.08-0.2c-9.53,0.98-19.05,1.96-28.58,2.93c-0.12-0.14-0.23-0.27-0.35-0.41
	c1.79-1.62,3.58-3.23,5.37-4.85c-0.47-0.2-0.74-0.19-1.01-0.13c-5.69,1.3-11.39,2.61-17.08,3.91
	C322.25,122.17,312.9,124.28,303.56,126.39 M373.79,135.17c0.06,0.02,0.12,0.05,0.18,0.07
	C373.96,135.17,373.94,135.11,373.79,135.17z"/>
<path class="st58" d="M303.46,126.44c9.44-2.16,18.78-4.27,28.13-6.39c5.7-1.29,11.39-2.61,17.08-3.91
	c0.26-0.06,0.54-0.07,1.01,0.13c-1.79,1.62-3.58,3.23-5.37,4.85c0.12,0.14,0.23,0.27,0.35,0.41c9.53-0.98,19.05-1.96,28.58-2.93
	c0.03,0.07,0.05,0.14,0.08,0.2c-10.16,4.04-20.32,8.09-30.86,12.28c5.21,1.15,10.05,2.22,14.89,3.29c0,0.09,0.01,0.18,0.01,0.28
	c-16.52,3.18-33.05,6.36-49.65,9.6c-4.3,0.84-8.52,1.59-12.73,2.4c-17.88,3.43-35.76,6.88-53.64,10.32
	c-14.97,2.88-29.94,5.75-44.9,8.63c-0.47,0.09-0.95,0.15-1.82,0.28c7.81-8.77,15.36-17.26,23.16-26.02
	c-9.93,2.33-19.5,4.57-29.27,6.87c-11.21,2.62-22.23,5.18-33.41,7.78c1.91,3.33,3.74,6.51,5.7,9.93
	c-13.28-2.11-26.27-4.17-39.62-6.29c11.51-8.89,22.73-17.56,34.27-26.46c-0.58,3.34-1.1,6.31-1.64,9.41c0.5-0.09,0.8-0.12,1.1-0.19
	c6.12-1.47,12.24-2.94,18.36-4.44c4.03-0.98,8.04-2.01,12.07-3.01c3.82-0.88,7.64-1.72,11.45-2.63c23.67-5.7,47.33-11.41,71-17.12
	c0.31-0.07,0.63-0.1,1.05-0.11c0.11,0.03,0.1,0.03,0.1,0.03c-2.92,3.86-5.82,7.73-8.75,11.57c-3.13,4.11-6.27,8.2-9.41,12.3
	c-0.24,0.32-0.46,0.65-0.83,1.19C267.91,134.58,285.64,130.53,303.46,126.44z"/>
<path class="st11" d="M185.24,133.4c-3.93,1.05-7.95,2.08-11.97,3.06c-6.12,1.49-12.24,2.96-18.36,4.44c-0.3,0.07-0.6,0.11-1.1,0.19
	c0.54-3.1,1.05-6.06,1.64-9.41c-11.53,8.91-22.76,17.57-34.27,26.46c13.35,2.12,26.35,4.18,39.62,6.29c-1.96-3.41-3.79-6.6-5.7-9.93
	c11.17-2.6,22.19-5.16,33.32-7.72c0.6,4.07,0.52,8.12-0.46,12.1c-0.97,3.9-2.63,7.4-6.34,9.52c-0.27,0.16-0.49,0.64-0.51,0.98
	c-0.43,8.42-5.17,13.97-12.01,18.12c-5.01,3.04-10.51,4.82-16.18,6.14c-0.33,0.08-0.7,0.01-0.93,0.01c1.27-3.06,2.54-6.11,3.8-9.16
	c-0.12-0.09-0.23-0.17-0.35-0.26c-0.5,0.38-1.02,0.76-1.51,1.16c-3.48,2.82-7.53,4.24-11.91,4.77
	c-10.94,1.32-18.31-4.15-23.77-12.84c-1.82-2.9-2.98-6.22-4.42-9.29c-1.88,1.56-2.09,3.23-1.2,11.27
	c-6.56-3.61-8.43-9.83-9.99-16.28c1.26,0.72,2.39,1.55,3.65,2.04c1.58,0.61,2.69,0.14,3.73-1.28c-3.85-3.97-5.54-9-6.69-14.26
	c-0.78-3.55-1.05-7.11-0.02-10.68c1.45-5,4.7-8.47,9.15-10.93c3.72-2.06,7.75-3.16,12.2-3.74c-2.46-4.03-6.48-3.4-10.25-3.8
	c0.41-2.63,1.82-4.57,3.78-6.14c3.45-2.78,7.58-3.95,11.83-4.69c2.49-0.43,5.03-0.58,7.94-0.9c-2.41,2.76-2.81,5.43-1.01,8.38
	c1.98-1.59,3.8-3.18,5.75-4.59c5.1-3.71,10.71-6.15,17.15-5.89c5.53,0.22,10.29,2.43,14.25,6.19c-1.71,0.19-3.41,0.23-5.04,0.61
	c-1.7,0.4-3.17,1.35-4.33,2.92c0.35,0.12,0.62,0.25,0.9,0.3c6.74,0.98,11.58,4.89,15.44,10.19
	C182.57,128.82,183.79,131.14,185.24,133.4z"/>
<path class="st58" d="M370.19,157.79c-2.82,3.45-5.62,6.92-8.46,10.35c-5.66,6.85-11.34,13.68-17.06,20.61
	c-10.82,13.06-21.6,26.02-32.37,38.99c-14.27,17.2-28.54,34.41-42.8,51.61c-0.11,0.14-0.18,0.31-0.27,0.46
	c-0.11-0.05-0.23-0.09-0.34-0.14c0.55-10.48,1.1-20.97,1.66-31.45c-0.08-0.04-0.17-0.09-0.25-0.13
	c-10.23,13.37-20.45,26.74-30.71,40.19c-1.91,2.49-3.79,4.9-5.8,7.48c3.09,1.46,6.07,2.86,9.34,4.4
	c-10.76,6.81-21.37,13.52-32.32,20.44c2.93-13.81,5.8-27.29,8.74-41.14c1.69,3.1,3.22,5.89,4.88,8.92c2.43-3.28,4.78-6.45,7.14-9.7
	c1.85-2.47,3.71-4.84,5.51-7.24c18.49-24.73,36.97-49.47,55.46-74.21c0.27-0.36,0.56-0.71,1.04-1.32c0,10,0,19.72,0,29.44
	c0.1,0.03,0.19,0.06,0.29,0.09c11-14.04,22.01-28.08,33.03-42.22c3.75-4.78,7.48-9.45,11.19-14.15
	c5.09-6.46,10.16-12.94,15.25-19.42c0.24-0.31,0.52-0.58,0.97-1.09c-0.38,2.63-0.72,4.97-1.1,7.65
	c6.92-7.09,13.63-13.98,20.35-20.86c0.11,0.09,0.22,0.17,0.33,0.26c-5.39,9.3-10.78,18.6-16.25,28.06c-0.06,0.23-0.04,0.3-0.02,0.38
	c0.11-0.05,0.21-0.09,0.32-0.14c3.55-1.85,7.11-3.7,10.66-5.55c0.49-0.25,0.98-0.48,1.54-0.64
	C370.21,157.8,370.19,157.79,370.19,157.79z"/>
<path class="st59" d="M266.1,43.55c-2.58,1.97-5.08,3.88-7.61,5.76c-0.72,0.54-0.89,1.08-0.61,1.99c1.11,3.52,2.12,7.07,3.17,10.61
	c0.1,0.33,0.14,0.68,0.27,1.36c-0.93-0.59-1.6-0.99-2.25-1.43c-2.71-1.86-5.43-3.71-8.11-5.61c-0.71-0.51-1.24-0.49-1.95,0.01
	c-2.91,2.05-5.86,4.05-8.79,6.07c-0.4,0.28-0.83,0.53-1.6,1.02c0.31-1.24,0.5-2.13,0.76-3c0.87-2.93,1.7-5.87,2.67-8.77
	c0.37-1.1,0.15-1.73-0.77-2.41c-3.22-2.38-6.38-4.85-9.78-7.45c0.52-0.11,0.79-0.2,1.06-0.21c3.83-0.1,7.67-0.23,11.5-0.26
	c0.98-0.01,1.45-0.31,1.76-1.25c1.18-3.55,2.45-7.07,3.68-10.6c0.11-0.33,0.26-0.64,0.51-1.26c0.71,1.98,1.32,3.66,1.92,5.36
	c0.78,2.19,1.59,4.38,2.29,6.59c0.29,0.91,0.76,1.15,1.68,1.16c4.09,0.07,8.19,0.22,12.64,0.36
	C267.6,42.33,266.89,42.91,266.1,43.55z"/>
<path class="st59" d="M176.73,63.11c-1.22-0.78-2.45-1.55-3.65-2.36c-2.2-1.48-4.42-2.92-6.54-4.5c-0.78-0.58-1.3-0.54-2.04-0.02
	c-2.91,2.05-5.86,4.05-8.79,6.06c-0.41,0.28-0.83,0.53-1.63,1.03c0.43-1.56,0.74-2.75,1.08-3.94c0.77-2.62,1.5-5.26,2.37-7.85
	c0.37-1.11,0.14-1.74-0.77-2.42c-3.22-2.39-6.38-4.85-9.91-7.56c0.79-0.05,1.19-0.09,1.6-0.1c3.79-0.1,7.57-0.22,11.36-0.26
	c0.86-0.01,1.18-0.37,1.43-1.11c1.13-3.32,2.31-6.63,3.48-9.94c0.18-0.51,0.39-1.01,0.73-1.88c0.3,0.66,0.49,1.02,0.62,1.4
	c1.19,3.35,2.4,6.7,3.54,10.07c0.35,1.04,0.84,1.51,2.04,1.48c4-0.09,8.01-0.03,12.01-0.03c0.05,0.2,0.1,0.4,0.16,0.6
	c-1.58,1.23-3.16,2.46-4.75,3.68c-1.7,1.3-3.41,2.6-5.13,3.88c-0.61,0.46-0.84,0.91-0.58,1.73c1.14,3.65,2.19,7.34,3.26,11.01
	c0.08,0.26,0.09,0.54,0.12,0.92C176.73,63.12,176.73,63.11,176.73,63.11z"/>
<path class="st59" d="M323.28,63.12c0.49-1.89,0.95-3.79,1.48-5.67c0.56-1.97,1.13-3.95,1.79-5.89c0.38-1.12,0.14-1.79-0.84-2.51
	c-3.02-2.2-5.95-4.53-8.92-6.81c-0.21-0.16-0.46-0.25-0.69-0.38c0.07-0.11,0.14-0.23,0.21-0.34c0.43-0.03,0.87-0.07,1.3-0.08
	c3.74-0.1,7.48-0.24,11.23-0.25c1.09,0,1.27-0.69,1.53-1.41c1.18-3.31,2.33-6.63,3.5-9.94c0.15-0.42,0.32-0.84,0.63-1.63
	c0.31,0.74,0.51,1.15,0.67,1.59c1.2,3.4,2.43,6.79,3.58,10.2c0.3,0.89,0.73,1.19,1.67,1.18c4.1-0.05,8.19-0.02,12.29-0.02
	c0.05,0.19,0.09,0.38,0.14,0.57c-1.21,0.96-2.41,1.94-3.64,2.88c-2.03,1.56-4.06,3.11-6.11,4.62c-0.77,0.57-0.97,1.13-0.66,2.09
	c1.1,3.47,2.1,6.98,3.13,10.48c0.11,0.37,0.17,0.76,0.34,1.54c-2.8-1.92-5.31-3.56-7.74-5.31c-3.52-2.54-3.5-2.58-7.11-0.12
	c-2.53,1.72-5.05,3.44-7.67,5.17C323.27,63.12,323.28,63.12,323.28,63.12z"/>
<path class="st59" d="M323.27,63.11c-0.03,0.01-0.05,0.01-0.04,0.02C323.28,63.12,323.27,63.12,323.27,63.11z"/>
<path class="st58" d="M268.95,113.63c0,0,0.02-0.12,0.02-0.12s0.01,0.07-0.01,0.09C268.93,113.62,268.94,113.62,268.95,113.63z"/>
<path class="st59" d="M176.73,63.12c0.03,0.04,0.07,0.08,0.11,0.12c-0.03-0.01-0.05-0.03-0.09-0.08
	C176.73,63.11,176.73,63.12,176.73,63.12z"/>
<path class="st11" d="M274.43,325.2c0.03-0.01,0.05-0.02,0.03-0.02C274.41,325.18,274.42,325.19,274.43,325.2z"/>
<path class="st12" d="M417,321.5c6.09-9.57,10.56-19.7,12.62-30.82c1.04-5.64,1.6-11.35,1.15-17.06c-0.36-4.59,0.22-9,1.17-13.44
	c1.35-6.31,2.9-12.54,5.79-18.36c3.42-6.88,8.29-12.22,15.78-14.74c7.1-2.39,13.68-0.44,17.22,5.12c2.38,3.74,2.89,7.83,2.12,12.12
	c-0.91,5.05-3.53,9.12-7.29,12.76c-3.52-6.16-6.98-12.19-10.51-18.37c-5.21,3.93-10.34,7.76-11.96,14.41
	c-1.25,5.11-0.52,10.18,1.06,15.13c2.22,6.95,6.2,12.89,10.68,18.54c3.47,4.37,7.15,8.57,10.38,13.11
	c5.14,7.24,8.57,15.26,9.86,24.11c1.56,10.67-0.48,20.72-5.18,30.32c-3.64,7.43-8.77,13.78-14.48,19.69
	c-13.58,14.08-29.44,25.12-46.46,34.59c-18.04,10.04-36.96,18.1-56.41,24.93c-22.14,7.77-43.55,17.19-64.06,28.6
	c-13.45,7.48-26.2,16-37.9,26.04c-0.31,0.27-0.64,0.51-0.77,0.62c-31.41-25.43-67.02-42.65-104.87-55.78
	c-27.42-9.52-53.39-22.08-77.34-38.58c-12-8.27-22.87-17.8-31.62-29.57c-4.71-6.33-8.83-12.98-10.74-20.79
	c-3.29-13.43-1.7-26.14,5.07-38.27c3.28-5.88,7.54-10.99,11.71-16.19c4.16-5.17,8.18-10.42,11.12-16.42
	c2.83-5.78,3.92-11.85,3.34-18.23c-0.27-2.95-1.45-5.54-3.23-7.88c-2.51-3.32-5.78-5.8-9.13-8.48c-3.51,6.24-6.95,12.35-10.46,18.58
	c-4.96-4.8-8.76-10.05-8.12-17.28c0.62-7.11,5.42-14.6,16.29-13.37c7.85,0.89,13.57,5.01,17.89,11.36
	c4.53,6.66,6.91,14.14,8.33,21.99c0.76,4.18,0.61,8.34,0.37,12.55c-0.88,15.12,2.75,29.2,9.8,42.57c4.07,7.7,9.97,13.71,16.31,19.4
	c12.61,11.31,26.99,19.89,42.4,26.68c14.23,6.27,28.71,12,43.11,17.88c13.57,5.55,27.02,11.34,39.64,18.89
	c10.69,6.4,20.48,13.93,28.98,23.07c0.21,0.23,0.45,0.43,0.74,0.7c0.24-0.19,0.47-0.33,0.64-0.51
	c11.68-12.45,25.55-21.92,40.61-29.76c14.82-7.72,30.51-13.24,46.26-18.74c26.81-9.36,51.63-22.33,72.18-42.42
	C411.88,327.48,414.34,324.46,417,321.5 M334.83,408.11c-0.04-0.04-0.07-0.09,0.02-0.27c0.16-0.09,0.32-0.17,0.48-0.26
	c4.46-2.44,6-6.23,4.37-10.78c-1.54-4.29-5.11-6.36-10.04-4.87c-6.44,1.95-12.67,4.54-19.08,6.89c0.27,0.96,0.48,1.72,0.7,2.53
	c0.53-0.17,0.92-0.29,1.31-0.42c2.35-0.81,2.68-0.66,3.4,1.75c1.17,3.89,2.31,7.78,3.47,11.67c1.17,3.93,2.37,7.86,3.5,11.8
	c0.49,1.72,0.19,2.23-1.37,2.89c-0.66,0.28-1.33,0.54-2.06,0.83c0.24,0.84,0.46,1.57,0.7,2.4c5.01-2.1,9.91-4.14,14.8-6.19
	c-0.14-0.48-0.22-0.84-0.34-1.18c-0.13-0.37-0.28-0.74-0.44-1.16c-0.76,0.28-1.43,0.55-2.12,0.77c-1.4,0.45-1.93,0.25-2.39-1.18
	c-1.21-3.82-2.34-7.66-3.54-11.63c1.07-0.34,2.04-0.71,3.05-0.96c2.33-0.58,3.51-0.1,4.63,2.04c0.69,1.32,1.19,2.76,1.73,4.16
	c0.45,1.14,0.77,2.34,1.28,3.46c1.1,2.41,3.24,3.45,5.84,2.92c5.46-1.11,7.71-5.66,5.32-10.84c-0.58,0.22-1.17,0.44-1.72,0.65
	c0.19,1.13,0.47,2.16,0.48,3.19c0.01,0.54-0.45,1.09-0.7,1.64c-0.54-0.25-1.24-0.36-1.59-0.77c-0.64-0.76-1.04-1.7-1.59-2.54
	c-1.05-1.6-2-3.28-3.23-4.72C338.52,408.51,336.89,407.77,334.83,408.11 M383.57,397.85c1.59,1.71,3.26,3.35,4.73,5.15
	c0.91,1.11,1.59,0.43,2.45,0.12c0.99-0.36,0.96-1,0.79-1.83c-1.76-8.82-3.52-17.64-5.26-26.46c-0.4-2.05-0.75-4.13,1.64-5.36
	c-0.39-0.77-0.71-1.41-1.06-2.11c-3.17,1.62-6.24,3.18-9.32,4.75c0.42,0.81,0.75,1.45,1.09,2.11c0.25-0.08,0.42-0.13,0.58-0.2
	c2.59-1.09,3.51-0.69,4.41,1.95c0.13,0.39,0.24,0.79,0.32,1.19c0.55,2.73,1.09,5.46,1.62,8.2c0.39,2.02,0.77,4.04,1.16,6.05
	c-3.83-4-7.4-8.09-10.98-12.18c-1.67-1.91-1.62-2.32,0.47-3.8c-0.33-0.67-0.67-1.34-1.03-2.06c-3.73,1.66-7.3,3.26-10.96,4.89
	c0.39,0.78,0.73,1.45,1.07,2.13c0.06-0.12,0.13-0.25,0.19-0.37c0.74,0.17,1.73,0.1,2.17,0.55c2.52,2.62,5.56,4.86,5.8,9.06
	c0.14,2.51,0.85,4.99,1.31,7.49c-0.54-0.11-0.84-0.35-1.09-0.63c-3.52-3.84-7.05-7.69-10.55-11.55c-1.66-1.83-1.59-2.31,0.49-3.68
	c-0.35-0.71-0.71-1.43-1.11-2.24c-4.13,1.7-8.14,3.35-12.24,5.04c0.42,0.81,0.74,1.44,1.14,2.23c1.65-1.31,2.63-0.25,3.66,0.83
	c4.28,4.45,8.53,8.94,12.91,13.28c3.05,3.02,6.31,5.84,9.48,8.74c0.08,0.28,0.6-0.03,1.16-0.19c0.93-0.27,1-0.81,0.82-1.66
	c-0.63-2.95-1.2-5.91-1.77-8.86c-0.53-2.72-1.04-5.44-1.55-8.15c0.09-0.05,0.18-0.1,0.27-0.15
	C378.73,392.66,381.08,395.19,383.57,397.85 M229.62,432.02c0.11-1.83,0.22-3.65,0.34-5.48c0.07-1.02,0.55-1.31,1.44-0.71
	c0.69,0.47,1.37,0.97,2.08,1.47c0.56-1.61,0.18-2.58-1.24-3.47c-3.78-2.39-7.44-4.97-11.15-7.48c-0.31-0.21-0.66-0.38-1-0.58
	c-0.61,1.58-0.32,2.71,1.11,3.56c1.72,1.02,2.21,2.62,2.05,4.58c-0.23,2.69-0.29,5.39-0.43,8.08c-0.31,5.84-0.63,11.69-0.97,17.53
	c-0.04,0.61-0.21,1.22-0.37,2.11c-1.27-0.82-2.31-1.48-3.38-2.17c-0.38,2.37-0.38,2.37,1.42,3.52c3.7,2.35,7.39,4.71,11.09,7.06
	c0.4,0.25,0.82,0.48,1.23,0.72c0.61-1.66,0.26-2.8-1.26-3.61c-1.55-0.82-2.25-2.18-2.1-3.98c0.12-1.46,0.12-2.92,0.19-4.38
	c0.11-2.17,0.24-4.33,0.38-6.76c3.29,2.41,6.35,4.63,9.37,6.9c0.24,0.18,0.32,0.72,0.31,1.09c-0.14,3.56-0.31,7.13-0.5,10.69
	c-0.02,0.47-0.2,0.93-0.37,1.67c-1.25-0.77-2.3-1.41-3.41-2.09c-0.2,2.47-0.2,2.47,1.7,3.76c3.73,2.55,7.47,5.1,11.2,7.65
	c0.44,0.3,0.89,0.57,1.38,0.88c0.44-1.63,0.19-2.81-1.38-3.55c-1.86-0.87-2.34-2.47-2.25-4.43c0.23-4.89,0.36-9.78,0.54-14.67
	c0.12-3.15,0.22-6.31,0.42-9.45c0.08-1.32,0.42-1.43,1.56-0.72c0.67,0.42,1.32,0.88,2.04,1.36c0.38-1.5,0.12-2.55-1.02-3.52
	c-3.98-3.36-7.88-6.82-11.82-10.23c-0.25-0.22-0.54-0.39-0.84-0.6c-0.52,1.62-0.1,2.63,1.24,3.57c0.89,0.62,1.93,1.79,1.95,2.74
	c0.12,4.18-0.11,8.37-0.21,12.55c-0.23,0.02-0.34,0.06-0.4,0.03c-2.99-2.18-5.98-4.35-8.94-6.57c-0.25-0.19-0.4-0.7-0.39-1.05
	C229.33,436.11,229.48,434.2,229.62,432.02 M304.34,428.45c-0.09-1.09-0.09-2.19-0.28-3.26c-0.71-4.17-1.48-8.33-2.23-12.5
	c-1.46,0.3-2.14,0.99-1.97,2.49c0.09,0.8-0.09,1.64-0.23,2.45c-0.48,2.77-2.06,4.67-4.77,5.9c-0.62-3.82-1.22-7.5-1.79-11.18
	c-0.18-1.13,0.32-1.99,1.29-2.5c1.49-0.78,2.97-1.64,4.55-2.17c2.85-0.96,4.8-0.25,6.54,2.24c0.75,1.07,1.33,2.27,2.04,3.5
	c0.62-0.35,1.22-0.7,1.8-1.02c-0.84-3.92-1.64-7.68-2.51-11.78c-8.04,4.34-15.83,8.53-23.61,12.75c-1.95,1.06-1.93,1.1-1.21,3.38
	c0.45-0.23,0.89-0.45,1.32-0.69c2.24-1.21,2.57-1.04,2.98,1.43c1.32,8.02,2.65,16.03,3.99,24.05c0.38,2.28,0.12,2.85-1.92,3.97
	c-1.95,1.07-1.95,1.07-1.19,3.27c0.09-0.01,0.19,0,0.26-0.04c8.68-4.46,17.36-8.92,26.02-13.42c0.28-0.15,0.55-0.69,0.52-1.02
	c-0.11-1.32-0.34-2.62-0.54-3.93c-0.45-2.97-0.9-5.94-1.35-8.9c-1.52,0.18-2.04,0.89-2.04,2.36c0,7.16-3.25,12.27-9.87,15.17
	c-1.87,0.82-2.36,0.66-2.73-1.3c-0.66-3.54-1.26-7.1-1.86-10.66c-0.05-0.32-0.06-0.79,0.12-1c1.32-1.47,4.32-1.33,5.47,0.29
	c0.65,0.91,1.11,1.95,1.68,2.97C303.28,429.03,303.72,428.8,304.34,428.45 M429.48,379.4c2.58-2.06,5.15-4.13,7.64-6.12
	c-0.67-0.81-1.17-1.4-1.64-1.97c-3.29,2.09-4.03,2.04-6.89-0.37c-0.35-0.29-0.69-0.6-1.03-0.91c-3.96-3.73-7.92-7.47-11.87-11.2
	c-0.28-0.27-0.54-0.56-0.99-1.04c0.7,0.06,1.14,0.06,1.57,0.13c9.7,1.54,19.4,3.03,29.08,4.7c1.77,0.31,2.62-0.33,3.42-1.71
	c-1.72-1.63-3.44-3.26-5.17-4.88c-5.3-4.98-10.61-9.94-15.9-14.93c-1.69-1.6-1.76-2.45-0.46-4.41c0.12-0.19,0.25-0.37,0.41-0.62
	c-0.58-0.54-1.12-1.05-1.72-1.6c-2.48,2.96-4.85,5.79-7.26,8.67c0.63,0.58,1.19,1.09,1.73,1.59c3-2.38,4.25-2.38,7.03,0.08
	c1.58,1.39,3.08,2.86,4.62,4.3c1.59,1.49,3.17,2.99,4.88,4.61c-0.51,0-0.83,0.04-1.13-0.01c-7.54-1.13-15.08-2.28-22.63-3.4
	c-0.52-0.08-1.22-0.2-1.56,0.06c-2.66,2.06-5.25,4.21-7.94,6.39c0.66,0.6,1.19,1.09,1.74,1.58c0.39-0.27,0.7-0.53,1.04-0.73
	c1.12-0.68,3.57-0.62,4.4,0.17c5.06,4.77,10.14,9.52,15.14,14.34c2.47,2.38,2.51,3.34,0.74,6.36c0.57,0.54,1.15,1.1,1.75,1.67
	C428.81,379.9,429.07,379.71,429.48,379.4 M197.84,412.63c0.21-0.4,0.4-0.82,0.64-1.21c1.63-2.66,3.97-3.47,6.64-1.85
	c1.62,0.98,3.11,2.42,4.23,3.96c2.19,3.01,3.12,6.59,3.5,10.25c0.16,1.56,0.95,1.8,2.21,1.93c0.34-3.77,0.69-7.45,0.97-11.14
	c0.04-0.53-0.1-1.27-0.45-1.6c-0.64-0.59-1.44-1.18-2.42-0.4c-0.3,0.24-0.7,0.35-1.07,0.52c-2.49-3.88-5.9-6.37-10.2-7.53
	c-1.41-0.38-3.02-0.54-4.44-0.29c-3.91,0.69-6.23,3.43-7.78,6.86c-1.89,4.18-2.38,8.64-1.9,13.14c0.69,6.54,3.45,12.03,9.19,15.58
	c3.77,2.34,7.77,3.14,11.94,0.45c0.25,1.57,0.63,3.04,0.67,4.53c0.05,1.57,1.02,2.03,2.23,2.49c0.13-0.8,0.24-1.52,0.36-2.24
	c0.54-3.43,1.08-6.86,1.64-10.28c0.25-1.5,0.76-1.78,2.17-1.23c0.52,0.2,1.03,0.43,1.78,0.74c-0.4-1.05,0.82-2.09-0.56-2.73
	c-4.38-2.04-8.76-4.08-13.14-6.13c-0.65,2.25-0.65,2.26,1.33,3.17c0.99,0.46,2.09,0.98,1.91,2.21c-0.3,2.1-0.62,4.25-1.37,6.21
	c-0.71,1.85-2.54,2.42-4.47,1.92c-3.43-0.88-5.42-3.22-6.01-6.57C194.17,426.33,195.39,419.49,197.84,412.63 M446.46,339.92
	c-1.27-0.81-2.57-1.57-3.81-2.43c-2.6-1.8-5.11-3.72-6.85-6.43c-2.81-4.36-0.85-9.45,4.17-10.81c2.81-0.76,5.65-1.03,8.5,0.08
	c0.32-0.68,0.58-1.24,0.87-1.86c-3.9-2.37-7.7-4.67-11.52-6.99c-1.58,2.53,1.14,3.81,1.43,5.73c-6.35,2.39-9.01,10.3-8.32,14.82
	c1.48,9.65,11.39,17.52,21.14,16.77c7.15-0.55,12.59-7.17,11.7-14.24c-0.1-0.83-0.35-1.64-0.56-2.58c1.09,0.13,2.03,0.24,2.97,0.34
	c0.23-0.63,0.43-1.18,0.64-1.76c-2.27-1.74-4.47-3.43-6.69-5.12c-2.66-2.03-2.66-2.03-1.12-5.1c-0.62-0.41-1.25-0.83-1.94-1.29
	c-2.5,4.17-4.93,8.23-7.4,12.35c0.7,0.46,1.3,0.85,1.98,1.29c0.46-0.73,0.86-1.38,1.27-2.03c0.55-0.88,1.35-1.19,2.21-0.61
	c1.54,1.05,3.17,2.04,4.46,3.36c1.92,1.96,2.11,4.28,0.91,6.56c-1.24,2.36-3.11,3.38-5.87,3.12
	C451.69,342.81,449.16,341.4,446.46,339.92 M279.29,415.87c-0.4,0.18-0.83,0.31-1.2,0.55c-1.87,1.22-3.75,2.45-5.58,3.72
	c-6.72,4.67-13.3,9.52-19.21,15.21c-0.34,0.33-0.78,0.78-0.78,1.18c-0.06,3.87-0.04,7.74-0.04,11.81c1.38-0.62,2.22-1.07,2.31-2.58
	c0.2-3.34,0.91-6.64,2.7-9.52c0.91-1.47,2.24-2.72,3.51-3.93c0.69-0.67,1.34-0.41,1.45,0.66c0.03,0.32,0.11,0.63,0.13,0.95
	c0.49,8.26,0.94,16.52,1.5,24.77c0.13,1.96-0.54,3.18-2.3,4.02c-1.93,0.92-1.9,1-1.3,3.18c0.4-0.25,0.78-0.47,1.15-0.72
	c4.18-2.78,8.36-5.57,12.53-8.36c1.62-1.08,1.72-1.4,1.09-3.53c-0.65,0.35-1.28,0.71-1.92,1.03c-1.49,0.74-1.79,0.58-2.03-1.06
	c-0.03-0.23-0.07-0.45-0.09-0.68c-0.47-8.35-0.94-16.7-1.38-25.05c-0.11-2.1,1.08-3.61,3.17-4.24c1.58-0.47,3.06,0.27,4.07,2.21
	c0.52,1,0.85,2.11,1.22,3.18c0.22,0.63,0.34,1.29,0.52,1.96c2.05-1,2.01-0.99,1.78-2.98C280.14,423.8,279.75,419.93,279.29,415.87
	 M144.96,405.79c-1.04,2.48-2.05,4.98-3.13,7.44c-0.62,1.39-1.2,1.59-2.62,1.08c-0.63-0.23-1.24-0.49-1.93-0.76
	c-0.29,0.72-0.53,1.34-0.82,2.05c5.16,1.93,10.22,3.83,15.37,5.76c0.33-0.82,0.61-1.52,0.94-2.32c-1.04-0.45-1.99-0.86-2.94-1.27
	c-0.95-0.42-1.29-1.07-0.89-2.09c0.72-1.82,1.39-3.66,2.1-5.49c0.72-1.85,1.46-3.69,2.18-5.53c3.41,1.1,3.75,1.95,3.45,8.43
	c0.5,0.2,1.03,0.41,1.7,0.67c2.07-4.91,4.09-9.72,6.16-14.63c-0.66-0.28-1.23-0.51-1.77-0.74c-3.57,4.72-5.43,5.51-8.45,3.63
	c1.15-2.72,2.3-5.44,3.45-8.17c1.48-3.51,1.79-3.62,5.24-2c2.75,1.29,4.86,3.16,5.18,6.37c0.15,1.53,0.05,3.11-0.12,4.64
	c-0.19,1.81-0.28,1.8,1.67,2.16c1.5-3.83,3-7.67,4.52-11.58c-8.27-3.11-16.41-6.16-24.65-9.25c-0.34,0.79-0.65,1.52-0.97,2.28
	c0.37,0.16,0.57,0.26,0.78,0.34c2.89,1.16,2.97,1.34,1.78,4.18C149.15,395.85,147.1,400.72,144.96,405.79 M62.48,355.06
	c-0.83-0.9-1.66-1.8-2.58-2.81c5.34-4.98,10.6-9.89,15.9-14.83c-0.8-1.07-1.38-2.14-3.19-1.83c-7.38,1.26-14.78,2.45-22.2,3.43
	c-2.15,0.29-3.38,1.46-4.73,2.89c2.56,2.72,5.05,5.37,7.56,8.04c-0.48,0.45-0.85,0.79-1.21,1.14c-3.34,3.19-2.97,2.5-5.46,0.07
	c-0.03-0.03-0.08-0.03-0.21-0.07c-0.56,0.52-1.16,1.07-1.85,1.7c2.89,3.58,5.75,7.11,8.68,10.73c0.69-0.65,1.26-1.2,1.89-1.79
	c-0.35-0.4-0.61-0.71-0.88-1.02c-1.18-1.38-1.17-1.67,0.05-2.98c1.02-1.11,2.01-2.24,3.17-3.53c1.13,1.24,2.01,2.2,2.98,3.27
	C61.18,356.67,61.87,355.95,62.48,355.06 M173,419.83c-0.43,1.35-0.82,2.71-1.3,4.04c-0.56,1.56-1.03,1.76-2.58,1.23
	c-0.71-0.24-1.42-0.51-2.17-0.77c-0.27,0.86-0.5,1.58-0.75,2.36c5.1,2.16,10.08,4.26,15.14,6.39c0.26-0.85,0.49-1.58,0.73-2.38
	c-0.63-0.25-1.17-0.47-1.72-0.68c-2.11-0.82-2.31-1.2-1.62-3.4c1.06-3.35,2.14-6.69,3.22-10.03c1.44-4.47,2.87-8.94,4.35-13.4
	c0.54-1.64,1.04-1.83,2.68-1.27c0.68,0.23,1.35,0.47,2.1,0.73c0.26-0.83,0.49-1.55,0.74-2.33c-5.13-2.02-10.16-4.01-15.28-6.03
	c-0.27,0.82-0.5,1.54-0.75,2.31c0.43,0.18,0.76,0.34,1.09,0.46c2.89,1.09,2.96,1.23,2.03,4.18
	C176.99,407.37,175.04,413.5,173,419.83 M82.45,362.77c2.8-3.24,5.6-6.49,8.38-9.7c-0.9-1.57-2.02-1.88-3.84-1.37
	c-6.63,1.86-13.29,3.6-20,5.15c-2.16,0.5-3.29,1.83-4.49,3.43c2.66,2.47,5.25,4.88,7.84,7.28c-0.17,0.25-0.23,0.37-0.32,0.48
	c-0.72,0.88-1.44,1.78-2.18,2.64c-1.41,1.63-1.78,1.64-3.43,0.18c-0.3-0.26-0.61-0.51-0.99-0.82c-0.59,0.71-1.12,1.36-1.71,2.06
	c3.47,2.86,6.83,5.64,10.22,8.44c0.64-0.78,1.15-1.39,1.7-2.05c-0.57-0.56-1.15-0.97-1.51-1.53c-0.25-0.39-0.45-1.14-0.24-1.44
	c0.92-1.33,1.99-2.56,3.03-3.85c1.08,0.92,2,1.7,3,2.55c0.71-0.85,1.35-1.61,2.04-2.44c-1-0.89-1.94-1.72-2.93-2.59
	C78.85,367.03,80.58,364.98,82.45,362.77 M401.17,358.44c-4.24,2.66-8.48,5.32-12.78,8.03c0.52,0.74,0.96,1.36,1.42,2.01
	c0.38-0.24,0.69-0.43,0.99-0.64c2.47-1.69,2.64-1.66,4.39,0.86c2.65,3.82,5.3,7.65,7.95,11.48c1.74,2.52,3.5,5.01,5.2,7.56
	c0.95,1.41,0.8,1.94-0.57,2.95c-0.57,0.42-1.15,0.82-1.76,1.25c0.55,0.77,0.99,1.39,1.47,2.07c4.66-2.96,9.18-5.83,13.75-8.74
	c-0.53-0.76-0.98-1.39-1.44-2.05c-0.34,0.21-0.61,0.37-0.87,0.55c-2.69,1.83-2.75,1.82-4.6-0.8c-3.7-5.26-7.41-10.53-11.11-15.79
	c-0.79-1.12-1.55-2.25-2.31-3.4c-0.61-0.93-0.41-1.72,0.48-2.36c0.69-0.49,1.38-0.98,2.08-1.48c-0.39-0.57-0.63-1.1-1.03-1.45
	C402.2,358.29,401.72,358.38,401.17,358.44 M97.34,395.05c-0.31,0.43-0.62,0.86-0.98,1.36c3.13,1.65,6.15,3.23,9.23,4.86
	c0.32-0.53,0.59-0.98,0.89-1.46c-0.29-0.17-0.49-0.28-0.68-0.39c-1.54-0.86-1.6-1.05-0.67-2.51c1.3-2.04,2.62-4.07,3.96-6.15
	c2.12,1.15,4.2,2.28,6.36,3.46c-1.17,1.82-2.27,3.54-3.38,5.26c-1.49,2.31-1.49,2.31-4.03,1.22c-0.27,0.42-0.55,0.86-0.88,1.39
	c3.2,1.6,6.28,3.13,9.39,4.68c0.33-0.53,0.58-0.94,0.83-1.34c-2.29-1.49-2.29-1.49-0.8-3.81c2.37-3.69,4.73-7.38,7.1-11.07
	c1.54-2.39,1.53-2.39,4.16-1.39c0.23-0.39,0.47-0.8,0.73-1.25c-3.11-1.68-6.07-3.28-9.13-4.93c-0.29,0.46-0.54,0.87-0.82,1.31
	c0.45,0.27,0.79,0.5,1.15,0.69c0.85,0.44,0.92,1.04,0.44,1.8c-1.2,1.88-2.4,3.76-3.64,5.71c-2.14-1.17-4.21-2.3-6.36-3.48
	c1.06-1.64,2.06-3.22,3.08-4.79c1.34-2.09,1.34-2.08,3.51-0.94c0.07,0.04,0.17,0.01,0.32,0.02c0.23-0.35,0.47-0.73,0.77-1.22
	c-2.99-1.76-5.91-3.49-8.93-5.27c-0.32,0.51-0.57,0.92-0.81,1.31c2.22,1.58,2.22,1.58,0.77,3.83c-2.59,4.03-5.19,8.06-7.79,12.1
	C99.74,396.24,99.74,396.24,97.34,395.05 M32.95,330.8c1.68,4.42,3.46,8.8,6.02,12.93c0.77-0.51,1.44-0.95,2.18-1.44
	c-0.52-0.82-1.03-1.57-1.49-2.35c-0.84-1.41-0.74-1.9,0.56-2.86c0.48-0.35,0.98-0.66,1.48-0.98c7.47-4.83,14.95-9.65,22.42-14.48
	c0.41-0.27,0.81-0.55,1.45-0.99c-0.52-0.64-0.87-1.33-1.42-1.71c-1.55-1.08-3.29-1.9-4.75-3.08c-1.17-0.95-2.05-2.28-3.08-3.46
	c-0.71,0.48-1.38,0.93-2.06,1.38c0.63,1,1.17,1.9,1.76,2.76c0.79,1.14,0.54,2.04-0.57,2.77c-5.53,3.62-11.07,7.24-16.61,10.86
	c-0.19,0.12-0.41,0.19-0.61,0.3c-0.87,0.49-1.61,0.32-2.12-0.51c-0.56-0.91-1.04-1.88-1.56-2.82
	C32.08,328.35,32.08,328.35,32.95,330.8 M89.19,368.41c-1.12,1.36-2.24,2.72-3.4,4.12c0.46,0.3,0.79,0.52,1.06,0.69
	c1.08-0.86,2-1.79,3.1-2.41c1-0.56,2.18-0.98,3.31-1.09c0.68-0.06,1.56,0.47,2.08,1c0.19,0.19-0.27,1.23-0.63,1.73
	c-3.02,4.13-6.1,8.21-9.14,12.33c-1.77,2.4-1.82,1.92-3.68,0.76c-0.06-0.04-0.17,0-0.33,0.01c-0.26,0.37-0.55,0.77-0.87,1.23
	c2.99,1.9,5.91,3.75,8.86,5.63c0.35-0.49,0.64-0.89,0.97-1.35c-0.3-0.22-0.53-0.44-0.8-0.58c-1.09-0.58-1.24-1.29-0.48-2.3
	c3.32-4.42,6.6-8.87,9.92-13.28c0.86-1.15,1.69-1.17,2.52-0.02c0.4,0.55,0.78,1.4,0.66,2c-0.37,1.76-0.99,3.46-1.52,5.18
	c-0.04,0.12-0.06,0.25-0.1,0.42c0.34,0.22,0.67,0.43,1.05,0.68c1.62-2.39,3.17-4.69,4.76-7.04c-5.11-3.44-10.14-6.83-15.22-10.25
	C90.6,366.72,89.96,367.49,89.19,368.41z"/>
<path class="st26" d="M459.1,266.47c7.87-1.6,12.85-6.74,17.02-13.31c0.16,0.6,0.27,1,0.37,1.41c2.78,11.42,7.84,21.86,13.78,31.92
	c1.55,2.63,3.36,5.22,3.47,8.38c0.06,1.83,0,3.88-0.76,5.47c-3,6.29-7.88,10.88-13.88,14.4c-1.04-2.53-2.01-4.97-3.05-7.38
	c-2.78-6.5-7.1-11.99-11.46-17.47c-3.52-4.43-6.99-8.91-10.26-13.53c-2.32-3.28-4.02-6.93-5.27-11.09
	C452.42,266.43,455.63,267.14,459.1,266.47z"/>
<path class="st26" d="M8.44,304.11c-1.79-2.59-3.13-5.26-3.24-8.4c-0.07-2.07,0.48-3.97,1.56-5.73
	c7.01-11.41,12.74-23.38,16.16-36.38c0.02-0.08,0.1-0.15,0.26-0.4c0.29,0.45,0.53,0.85,0.78,1.23c3.33,5.09,7.51,9.18,13.37,11.26
	c3.8,1.35,7.61,1.32,11.41-0.03c0.37-0.13,0.74-0.23,1.4-0.44c-0.44,1.25-0.76,2.28-1.16,3.27c-2.72,6.74-7.07,12.43-11.69,17.94
	c-4.58,5.46-9.28,10.85-12.42,17.33c-1.58,3.28-2.84,6.71-4.24,10.07c-0.12,0.29-0.21,0.58-0.36,1
	C15.74,311.85,11.67,308.52,8.44,304.11z"/>
<path class="st27" d="M40.47,256.72c1.77-3.15,3.49-6.21,5.32-9.48c2.49,2.2,4.65,4.49,4.81,7.87c0.12,2.42-1.08,4.34-3.4,5.3
	c-2.86,1.18-5.7,0.79-8.62-0.28C39.23,258.95,39.82,257.88,40.47,256.72z"/>
<path class="st28" d="M448.56,254.52c0.61-3.09,2.46-5.22,4.81-7.27c2.45,4.32,4.83,8.5,7.2,12.68c-2.47,1.53-7.32,1.42-9.55-0.22
	C449.31,258.46,448.58,256.7,448.56,254.52z"/>
<path class="st58" d="M373.86,135.11c0.08,0,0.1,0.07,0.12,0.13C373.91,135.21,373.85,135.19,373.86,135.11z"/>
<path class="st58" d="M370.22,157.81c0-0.06-0.02-0.12-0.03-0.19c0-0.01,0.06-0.03,0.1-0.04c0.02,0.06,0.04,0.11-0.02,0.19
	C370.19,157.79,370.21,157.8,370.22,157.81z"/>
<path class="st57" d="M357.86,163.86c-0.04,0.1-0.14,0.15-0.25,0.19c-0.02-0.07-0.04-0.14-0.01-0.28
	C357.69,163.73,357.74,163.76,357.86,163.86z"/>
<path class="st43" d="M383.5,397.78c-2.42-2.6-4.77-5.12-7.13-7.65c-0.09,0.05-0.18,0.1-0.27,0.15c0.52,2.72,1.02,5.44,1.55,8.15
	c0.58,2.96,1.14,5.92,1.77,8.86c0.18,0.84,0.11,1.39-0.82,1.66c-0.56,0.16-1.08,0.47-1.16,0.19c-3.17-2.91-6.43-5.72-9.48-8.74
	c-4.39-4.34-8.63-8.83-12.91-13.28c-1.04-1.08-2.02-2.13-3.66-0.83c-0.4-0.78-0.73-1.42-1.14-2.23c4.1-1.69,8.12-3.34,12.24-5.04
	c0.4,0.81,0.76,1.53,1.11,2.24c-2.08,1.36-2.15,1.85-0.49,3.68c3.51,3.86,7.03,7.7,10.55,11.55c0.26,0.28,0.56,0.52,1.09,0.63
	c-0.46-2.5-1.16-4.98-1.31-7.49c-0.24-4.19-3.28-6.44-5.8-9.06c-0.44-0.46-1.43-0.38-2.17-0.55c-0.06,0.12-0.13,0.25-0.19,0.37
	c-0.34-0.68-0.68-1.35-1.07-2.13c3.66-1.64,7.23-3.23,10.96-4.89c0.36,0.72,0.7,1.39,1.03,2.06c-2.09,1.48-2.14,1.89-0.47,3.8
	c3.57,4.09,7.15,8.18,10.98,12.18c-0.39-2.02-0.77-4.04-1.16-6.05c-0.53-2.73-1.07-5.47-1.62-8.2c-0.08-0.4-0.19-0.8-0.32-1.19
	c-0.9-2.63-1.82-3.04-4.41-1.95c-0.16,0.07-0.33,0.11-0.58,0.2c-0.34-0.67-0.67-1.3-1.09-2.11c3.08-1.57,6.15-3.14,9.32-4.75
	c0.35,0.7,0.67,1.34,1.06,2.11c-2.39,1.23-2.04,3.3-1.64,5.36c1.74,8.82,3.49,17.64,5.26,26.46c0.17,0.83,0.19,1.47-0.79,1.83
	c-0.87,0.32-1.54,1-2.45-0.12C386.83,401.2,385.16,399.56,383.5,397.78 M374.81,397.49c-0.06-0.01-0.12-0.01-0.18-0.02
	C374.65,397.51,374.68,397.55,374.81,397.49z"/>
<path class="st45" d="M229.61,432.15c-0.14,2.05-0.29,3.96-0.37,5.88c-0.02,0.35,0.13,0.86,0.39,1.05c2.96,2.22,5.95,4.39,8.94,6.57
	c0.05,0.04,0.17-0.01,0.4-0.03c0.1-4.17,0.33-8.36,0.21-12.55c-0.03-0.95-1.07-2.12-1.95-2.74c-1.34-0.94-1.75-1.95-1.24-3.57
	c0.3,0.21,0.59,0.38,0.84,0.6c3.94,3.41,7.84,6.87,11.82,10.23c1.15,0.97,1.4,2.02,1.02,3.52c-0.72-0.48-1.37-0.94-2.04-1.36
	c-1.14-0.71-1.47-0.6-1.56,0.72c-0.2,3.15-0.3,6.3-0.42,9.45c-0.19,4.89-0.31,9.78-0.54,14.67c-0.09,1.96,0.39,3.56,2.25,4.43
	c1.58,0.74,1.82,1.92,1.38,3.55c-0.49-0.31-0.94-0.59-1.38-0.88c-3.74-2.55-7.47-5.1-11.2-7.65c-1.9-1.3-1.9-1.3-1.7-3.76
	c1.11,0.68,2.16,1.32,3.41,2.09c0.17-0.74,0.35-1.2,0.37-1.67c0.19-3.56,0.36-7.12,0.5-10.69c0.01-0.37-0.07-0.9-0.31-1.09
	c-3.02-2.27-6.08-4.49-9.37-6.9c-0.14,2.43-0.27,4.6-0.38,6.76c-0.08,1.46-0.07,2.93-0.19,4.38c-0.15,1.8,0.55,3.15,2.1,3.98
	c1.52,0.81,1.87,1.95,1.26,3.61c-0.41-0.24-0.83-0.47-1.23-0.72c-3.7-2.35-7.4-4.71-11.09-7.06c-1.8-1.15-1.8-1.15-1.42-3.52
	c1.07,0.69,2.11,1.35,3.38,2.17c0.16-0.89,0.34-1.5,0.37-2.11c0.34-5.84,0.65-11.68,0.97-17.53c0.15-2.69,0.21-5.39,0.43-8.08
	c0.16-1.96-0.32-3.56-2.05-4.58c-1.43-0.85-1.71-1.98-1.11-3.56c0.34,0.2,0.68,0.36,1,0.58c3.71,2.5,7.37,5.08,11.15,7.48
	c1.41,0.89,1.79,1.87,1.24,3.47c-0.71-0.5-1.39-1-2.08-1.47c-0.88-0.6-1.36-0.31-1.44,0.71
	C229.84,428.37,229.74,430.2,229.61,432.15z"/>
<path class="st43" d="M334.93,408.26c1.96-0.49,3.59,0.25,4.78,1.66c1.23,1.45,2.18,3.13,3.23,4.72c0.55,0.84,0.95,1.79,1.59,2.54
	c0.35,0.41,1.05,0.52,1.59,0.77c0.25-0.55,0.7-1.1,0.7-1.64c-0.01-1.03-0.3-2.06-0.48-3.19c0.55-0.21,1.14-0.43,1.72-0.65
	c2.39,5.18,0.13,9.73-5.32,10.84c-2.6,0.53-4.74-0.51-5.84-2.92c-0.51-1.12-0.83-2.31-1.28-3.46c-0.55-1.4-1.04-2.83-1.73-4.16
	c-1.12-2.14-2.29-2.62-4.63-2.04c-1.01,0.25-1.98,0.62-3.05,0.96c1.2,3.97,2.33,7.82,3.54,11.63c0.45,1.43,0.99,1.63,2.39,1.18
	c0.69-0.22,1.36-0.49,2.12-0.77c0.16,0.42,0.31,0.79,0.44,1.16c0.12,0.34,0.2,0.7,0.34,1.18c-4.89,2.05-9.78,4.09-14.8,6.19
	c-0.24-0.83-0.46-1.56-0.7-2.4c0.73-0.29,1.4-0.55,2.06-0.83c1.56-0.66,1.86-1.18,1.37-2.89c-1.13-3.94-2.33-7.87-3.5-11.8
	c-1.16-3.89-2.3-7.78-3.47-11.67c-0.72-2.4-1.05-2.55-3.4-1.75c-0.39,0.13-0.78,0.25-1.31,0.42c-0.22-0.81-0.44-1.57-0.7-2.53
	c6.41-2.35,12.65-4.94,19.08-6.89c4.93-1.49,8.5,0.57,10.04,4.87c1.63,4.55,0.1,8.34-4.37,10.78c-0.16,0.09-0.32,0.17-0.63,0.34
	c-0.27,0.17-0.4,0.25-0.58,0.36c-0.04,0.1-0.02,0.17,0,0.24c0.04-0.06,0.09-0.11,0.22-0.15C334.6,408.35,334.76,408.3,334.93,408.26
	 M330.04,407.59c2.31-1.18,3.85-2.92,3.35-5.65c-0.31-1.67-0.93-3.32-1.66-4.86c-0.66-1.39-2.04-2.05-3.54-1.82
	c-1.6,0.25-3.16,0.79-4.71,1.28c-0.85,0.27-1.23,1-1,1.85c0.98,3.63,2,7.25,3.07,11.08C327.11,408.83,328.49,408.27,330.04,407.59z"
	/>
<path class="st44" d="M304.25,428.51c-0.53,0.29-0.97,0.52-1.45,0.77c-0.57-1.02-1.03-2.06-1.68-2.97
	c-1.15-1.62-4.15-1.76-5.47-0.29c-0.19,0.21-0.18,0.67-0.12,1c0.6,3.56,1.2,7.11,1.86,10.66c0.37,1.97,0.86,2.12,2.73,1.3
	c6.63-2.89,9.87-8.01,9.87-15.17c0-1.47,0.52-2.18,2.04-2.36c0.45,2.96,0.9,5.93,1.35,8.9c0.2,1.31,0.43,2.62,0.54,3.93
	c0.03,0.33-0.24,0.87-0.52,1.02c-8.66,4.5-17.34,8.96-26.02,13.42c-0.08,0.04-0.17,0.03-0.26,0.04c-0.76-2.2-0.76-2.2,1.19-3.27
	c2.05-1.12,2.31-1.69,1.92-3.97c-1.34-8.01-2.67-16.03-3.99-24.05c-0.41-2.47-0.74-2.64-2.98-1.43c-0.43,0.23-0.87,0.45-1.32,0.69
	c-0.72-2.28-0.74-2.32,1.21-3.38c7.78-4.22,15.57-8.41,23.61-12.75c0.88,4.1,1.68,7.87,2.51,11.78c-0.57,0.33-1.18,0.67-1.8,1.02
	c-0.71-1.23-1.29-2.43-2.04-3.5c-1.74-2.48-3.69-3.2-6.54-2.24c-1.58,0.53-3.06,1.39-4.55,2.17c-0.97,0.51-1.47,1.38-1.29,2.5
	c0.58,3.68,1.18,7.36,1.79,11.18c2.71-1.24,4.29-3.13,4.77-5.9c0.14-0.81,0.32-1.65,0.23-2.45c-0.17-1.49,0.51-2.19,1.97-2.49
	c0.75,4.17,1.52,8.33,2.23,12.5C304.24,426.25,304.25,427.36,304.25,428.51z"/>
<path class="st44" d="M429.4,379.46c-0.33,0.25-0.59,0.44-0.93,0.68c-0.6-0.57-1.18-1.13-1.75-1.67c1.77-3.02,1.73-3.98-0.74-6.36
	c-5-4.82-10.08-9.57-15.14-14.34c-0.83-0.78-3.28-0.85-4.4-0.17c-0.34,0.21-0.66,0.46-1.04,0.73c-0.54-0.5-1.08-0.98-1.74-1.58
	c2.69-2.18,5.28-4.33,7.94-6.39c0.34-0.26,1.04-0.14,1.56-0.06c7.54,1.12,15.09,2.27,22.63,3.4c0.3,0.04,0.61,0.01,1.13,0.01
	c-1.71-1.61-3.29-3.11-4.88-4.61c-1.53-1.44-3.04-2.91-4.62-4.3c-2.78-2.45-4.02-2.46-7.03-0.08c-0.54-0.5-1.1-1.01-1.73-1.59
	c2.41-2.88,4.78-5.71,7.26-8.67c0.59,0.55,1.14,1.06,1.72,1.6c-0.17,0.25-0.29,0.43-0.41,0.62c-1.29,1.96-1.23,2.81,0.46,4.41
	c5.29,4.99,10.6,9.95,15.9,14.93c1.73,1.62,3.45,3.26,5.17,4.88c-0.8,1.38-1.65,2.01-3.42,1.71c-9.68-1.67-19.38-3.15-29.08-4.7
	c-0.43-0.07-0.87-0.07-1.57-0.13c0.45,0.47,0.71,0.77,0.99,1.04c3.96,3.74,7.91,7.47,11.87,11.2c0.33,0.31,0.68,0.62,1.03,0.91
	c2.86,2.41,3.6,2.46,6.89,0.37c0.47,0.57,0.97,1.16,1.64,1.97C434.63,375.27,432.06,377.34,429.4,379.46z"/>
<path class="st44" d="M197.8,412.72c-2.41,6.77-3.63,13.61-2.39,20.67c0.59,3.35,2.59,5.69,6.01,6.57c1.94,0.5,3.77-0.08,4.47-1.92
	c0.75-1.96,1.08-4.11,1.37-6.21c0.17-1.23-0.93-1.75-1.91-2.21c-1.98-0.92-1.98-0.93-1.33-3.17c4.39,2.05,8.76,4.09,13.14,6.13
	c1.38,0.64,0.16,1.68,0.56,2.73c-0.75-0.31-1.26-0.54-1.78-0.74c-1.41-0.54-1.93-0.27-2.17,1.23c-0.56,3.42-1.1,6.85-1.64,10.28
	c-0.11,0.72-0.23,1.44-0.36,2.24c-1.21-0.46-2.18-0.91-2.23-2.49c-0.04-1.49-0.42-2.96-0.67-4.53c-4.17,2.7-8.17,1.89-11.94-0.45
	c-5.74-3.56-8.5-9.04-9.19-15.58c-0.48-4.51,0.01-8.96,1.9-13.14c1.55-3.43,3.87-6.17,7.78-6.86c1.43-0.25,3.03-0.09,4.44,0.29
	c4.3,1.16,7.71,3.65,10.2,7.53c0.36-0.17,0.77-0.28,1.07-0.52c0.97-0.78,1.78-0.19,2.42,0.4c0.35,0.33,0.49,1.07,0.45,1.6
	c-0.28,3.69-0.63,7.37-0.97,11.14c-1.26-0.13-2.05-0.37-2.21-1.93c-0.38-3.66-1.31-7.24-3.5-10.25c-1.12-1.54-2.6-2.98-4.23-3.96
	c-2.67-1.62-5.01-0.81-6.64,1.85C198.24,411.8,198.06,412.22,197.8,412.72z"/>
<path class="st44" d="M446.55,339.96c2.61,1.43,5.13,2.84,8.08,3.12c2.75,0.26,4.63-0.77,5.87-3.12c1.2-2.28,1.01-4.6-0.91-6.56
	c-1.29-1.31-2.92-2.31-4.46-3.36c-0.86-0.59-1.66-0.27-2.21,0.61c-0.41,0.65-0.81,1.3-1.27,2.03c-0.67-0.44-1.27-0.83-1.98-1.29
	c2.47-4.12,4.9-8.17,7.4-12.35c0.69,0.46,1.32,0.88,1.94,1.29c-1.55,3.06-1.55,3.06,1.12,5.1c2.21,1.69,4.42,3.39,6.69,5.12
	c-0.21,0.58-0.41,1.13-0.64,1.76c-0.94-0.11-1.88-0.22-2.97-0.34c0.21,0.94,0.46,1.75,0.56,2.58c0.9,7.07-4.55,13.69-11.7,14.24
	c-9.75,0.75-19.66-7.12-21.14-16.77c-0.69-4.52,1.97-12.43,8.32-14.82c-0.29-1.93-3.01-3.2-1.43-5.73
	c3.82,2.32,7.62,4.62,11.52,6.99c-0.29,0.62-0.55,1.18-0.87,1.86c-2.85-1.1-5.69-0.84-8.5-0.08c-5.01,1.36-6.97,6.45-4.17,10.81
	c1.74,2.71,4.25,4.63,6.85,6.43C443.89,338.35,445.19,339.11,446.55,339.96z"/>
<path class="st44" d="M279.32,415.97c0.44,3.97,0.82,7.83,1.26,11.69c0.22,1.98,0.26,1.98-1.78,2.98c-0.17-0.67-0.3-1.33-0.52-1.96
	c-0.37-1.07-0.69-2.18-1.22-3.18c-1.02-1.94-2.5-2.69-4.07-2.21c-2.08,0.62-3.28,2.14-3.17,4.24c0.44,8.35,0.92,16.7,1.38,25.05
	c0.01,0.23,0.05,0.45,0.09,0.68c0.25,1.64,0.55,1.8,2.03,1.06c0.64-0.32,1.27-0.68,1.92-1.03c0.63,2.13,0.53,2.45-1.09,3.53
	c-4.18,2.79-8.36,5.57-12.53,8.36c-0.37,0.25-0.76,0.47-1.15,0.72c-0.59-2.18-0.63-2.26,1.3-3.18c1.77-0.84,2.44-2.06,2.3-4.02
	c-0.55-8.25-1-16.51-1.5-24.77c-0.02-0.32-0.1-0.63-0.13-0.95c-0.11-1.07-0.76-1.32-1.45-0.66c-1.27,1.22-2.6,2.46-3.51,3.93
	c-1.78,2.88-2.5,6.18-2.7,9.52c-0.09,1.52-0.93,1.96-2.31,2.58c0-4.07-0.02-7.94,0.04-11.81c0.01-0.4,0.45-0.86,0.78-1.18
	c5.91-5.69,12.49-10.54,19.21-15.21c1.84-1.28,3.71-2.5,5.58-3.72C278.45,416.18,278.89,416.05,279.32,415.97z"/>
<path class="st44" d="M145.01,405.69c2.09-4.97,4.14-9.85,6.18-14.73c1.19-2.84,1.11-3.01-1.78-4.18c-0.21-0.08-0.41-0.18-0.78-0.34
	c0.32-0.76,0.63-1.48,0.97-2.28c8.24,3.09,16.37,6.14,24.65,9.25c-1.52,3.9-3.03,7.75-4.52,11.58c-1.95-0.36-1.87-0.35-1.67-2.16
	c0.16-1.54,0.27-3.11,0.12-4.64c-0.31-3.21-2.42-5.08-5.18-6.37c-3.45-1.62-3.76-1.5-5.24,2c-1.15,2.73-2.3,5.46-3.45,8.17
	c3.02,1.88,4.87,1.09,8.45-3.63c0.54,0.22,1.11,0.46,1.77,0.74c-2.06,4.9-4.09,9.72-6.16,14.63c-0.66-0.26-1.2-0.47-1.7-0.67
	c0.3-6.48-0.04-7.33-3.45-8.43c-0.73,1.83-1.46,3.68-2.18,5.53c-0.71,1.83-1.38,3.67-2.1,5.49c-0.4,1.02-0.06,1.68,0.89,2.09
	c0.95,0.41,1.9,0.82,2.94,1.27c-0.32,0.8-0.6,1.5-0.94,2.32c-5.15-1.93-10.21-3.82-15.37-5.76c0.28-0.71,0.53-1.34,0.82-2.05
	c0.69,0.27,1.3,0.54,1.93,0.76c1.42,0.51,2,0.31,2.62-1.08C142.91,410.76,143.92,408.27,145.01,405.69z"/>
<path class="st45" d="M62.52,355.15c-0.65,0.8-1.34,1.52-2.12,2.33c-0.97-1.06-1.85-2.03-2.98-3.27c-1.16,1.29-2.15,2.43-3.17,3.53
	c-1.22,1.32-1.23,1.6-0.05,2.98c0.26,0.31,0.53,0.61,0.88,1.02c-0.62,0.59-1.2,1.14-1.89,1.79c-2.93-3.62-5.79-7.15-8.68-10.73
	c0.69-0.63,1.28-1.18,1.85-1.7c0.14,0.05,0.19,0.05,0.21,0.07c2.49,2.43,2.12,3.12,5.46-0.07c0.36-0.35,0.73-0.69,1.21-1.14
	c-2.51-2.67-5-5.31-7.56-8.04c1.35-1.43,2.58-2.61,4.73-2.89c7.42-0.98,14.82-2.17,22.2-3.43c1.81-0.31,2.39,0.76,3.19,1.83
	c-5.29,4.94-10.56,9.85-15.9,14.83C60.82,353.25,61.65,354.16,62.52,355.15 M55.28,347.41c0.35-0.13,0.79-0.17,1.05-0.41
	c1.92-1.76,3.81-3.56,5.7-5.35c0.7-0.66,1.41-1.33,2.37-2.23c-5.01,0.81-9.63,1.55-14.47,2.33
	C51.77,343.7,53.46,345.49,55.28,347.41z"/>
<path class="st43" d="M173.05,419.73c1.99-6.23,3.94-12.36,5.88-18.49c0.94-2.95,0.86-3.09-2.03-4.18
	c-0.33-0.13-0.66-0.28-1.09-0.46c0.25-0.77,0.48-1.49,0.75-2.31c5.12,2.02,10.15,4,15.28,6.03c-0.25,0.79-0.48,1.51-0.74,2.33
	c-0.74-0.26-1.42-0.5-2.1-0.73c-1.64-0.56-2.14-0.37-2.68,1.27c-1.48,4.46-2.91,8.93-4.35,13.4c-1.08,3.34-2.17,6.68-3.22,10.03
	c-0.69,2.19-0.49,2.57,1.62,3.4c0.54,0.21,1.09,0.43,1.72,0.68c-0.25,0.8-0.47,1.53-0.73,2.38c-5.06-2.14-10.03-4.24-15.14-6.39
	c0.25-0.78,0.47-1.5,0.75-2.36c0.75,0.27,1.45,0.53,2.17,0.77c1.56,0.53,2.03,0.33,2.58-1.23
	C172.18,422.53,172.57,421.17,173.05,419.73z"/>
<path class="st44" d="M82.38,362.85c-1.8,2.13-3.54,4.18-5.35,6.33c0.98,0.87,1.92,1.71,2.93,2.59c-0.69,0.83-1.33,1.59-2.04,2.44
	c-1-0.85-1.92-1.63-3-2.55c-1.04,1.29-2.11,2.52-3.03,3.85c-0.21,0.3-0.01,1.05,0.24,1.44c0.36,0.56,0.94,0.97,1.51,1.53
	c-0.54,0.65-1.05,1.27-1.7,2.05c-3.4-2.8-6.75-5.58-10.22-8.44c0.58-0.7,1.11-1.34,1.71-2.06c0.38,0.31,0.69,0.56,0.99,0.82
	c1.66,1.46,2.02,1.45,3.43-0.18c0.75-0.86,1.46-1.76,2.18-2.64c0.09-0.1,0.15-0.23,0.32-0.48c-2.58-2.4-5.18-4.81-7.84-7.28
	c1.2-1.6,2.33-2.93,4.49-3.43c6.7-1.55,13.37-3.29,20-5.15c1.82-0.51,2.94-0.2,3.84,1.37C88.05,356.29,85.25,359.53,82.38,362.85
	 M76.73,360.08c1.05-1.25,2.1-2.49,3.15-3.74c-0.05-0.08-0.09-0.17-0.14-0.25c-4.29,1.16-8.59,2.33-13.15,3.57
	c2.06,1.91,3.94,3.65,5.88,5.45C73.91,363.42,75.26,361.82,76.73,360.08z"/>
<path class="st43" d="M401.26,358.39c0.46-0.01,0.94-0.11,1.17,0.09c0.4,0.35,0.64,0.87,1.03,1.45c-0.7,0.5-1.39,0.99-2.08,1.48
	c-0.89,0.64-1.09,1.43-0.48,2.36c0.75,1.14,1.52,2.28,2.31,3.4c3.7,5.27,7.4,10.53,11.11,15.79c1.84,2.62,1.9,2.63,4.6,0.8
	c0.26-0.18,0.53-0.33,0.87-0.55c0.46,0.66,0.91,1.29,1.44,2.05c-4.57,2.9-9.1,5.78-13.75,8.74c-0.48-0.68-0.92-1.3-1.47-2.07
	c0.6-0.43,1.19-0.83,1.76-1.25c1.38-1.01,1.52-1.54,0.57-2.95c-1.7-2.54-3.46-5.04-5.2-7.56c-2.65-3.83-5.29-7.66-7.95-11.48
	c-1.75-2.52-1.92-2.54-4.39-0.86c-0.3,0.21-0.61,0.4-0.99,0.64c-0.46-0.65-0.9-1.27-1.42-2.01
	C392.69,363.77,396.93,361.1,401.26,358.39z"/>
<path class="st44" d="M97.43,395.07c2.3,1.17,2.31,1.18,3.7-0.99c2.6-4.03,5.19-8.06,7.79-12.1c1.45-2.25,1.45-2.25-0.77-3.83
	c0.25-0.4,0.49-0.8,0.81-1.31c3.02,1.78,5.94,3.51,8.93,5.27c-0.31,0.48-0.55,0.86-0.77,1.22c-0.15-0.01-0.25,0.01-0.32-0.02
	c-2.17-1.15-2.17-1.15-3.51,0.94c-1.01,1.57-2.02,3.14-3.08,4.79c2.15,1.17,4.22,2.3,6.36,3.48c1.24-1.95,2.44-3.83,3.64-5.71
	c0.49-0.76,0.41-1.36-0.44-1.8c-0.36-0.19-0.7-0.42-1.15-0.69c0.28-0.44,0.53-0.85,0.82-1.31c3.06,1.65,6.02,3.25,9.13,4.93
	c-0.27,0.45-0.5,0.86-0.73,1.25c-2.63-1-2.63-1-4.16,1.39c-2.37,3.69-4.73,7.38-7.1,11.07c-1.49,2.32-1.49,2.32,0.8,3.81
	c-0.25,0.4-0.5,0.81-0.83,1.34c-3.11-1.55-6.19-3.08-9.39-4.68c0.34-0.53,0.62-0.97,0.88-1.39c2.54,1.1,2.54,1.1,4.03-1.22
	c1.11-1.72,2.21-3.45,3.38-5.26c-2.17-1.18-4.24-2.3-6.36-3.46c-1.35,2.09-2.67,4.11-3.96,6.15c-0.93,1.46-0.87,1.65,0.67,2.51
	c0.2,0.11,0.39,0.22,0.68,0.39c-0.29,0.48-0.57,0.93-0.89,1.46c-3.09-1.62-6.1-3.21-9.23-4.86
	C96.72,395.91,97.03,395.48,97.43,395.07z"/>
<path class="st43" d="M32.92,330.69c-0.85-2.34-0.85-2.34,1.65-3.58c0.51,0.94,0.99,1.91,1.56,2.82c0.51,0.83,1.25,1,2.12,0.51
	c0.2-0.11,0.42-0.18,0.61-0.3c5.54-3.62,11.07-7.24,16.61-10.86c1.11-0.73,1.36-1.62,0.57-2.77c-0.6-0.86-1.13-1.76-1.76-2.76
	c0.68-0.46,1.35-0.91,2.06-1.38c1.03,1.19,1.9,2.51,3.08,3.46c1.46,1.18,3.2,2,4.75,3.08c0.56,0.39,0.91,1.07,1.42,1.71
	c-0.64,0.44-1.04,0.72-1.45,0.99c-7.47,4.83-14.95,9.65-22.42,14.48c-0.5,0.32-1.01,0.63-1.48,0.98c-1.3,0.96-1.4,1.45-0.56,2.86
	c0.46,0.78,0.97,1.53,1.49,2.35c-0.74,0.49-1.41,0.93-2.18,1.44C36.41,339.59,34.63,335.22,32.92,330.69z"/>
<path class="st60" d="M89.25,368.33c0.7-0.84,1.34-1.61,2.05-2.46c5.09,3.43,10.12,6.81,15.22,10.25c-1.59,2.35-3.14,4.65-4.76,7.04
	c-0.39-0.25-0.71-0.46-1.05-0.68c0.04-0.17,0.07-0.3,0.1-0.42c0.52-1.72,1.15-3.43,1.52-5.18c0.13-0.6-0.26-1.44-0.66-2
	c-0.83-1.15-1.66-1.13-2.52,0.02c-3.32,4.42-6.6,8.87-9.92,13.28c-0.76,1.01-0.62,1.72,0.48,2.3c0.27,0.14,0.5,0.36,0.8,0.58
	c-0.33,0.46-0.62,0.86-0.97,1.35c-2.95-1.87-5.87-3.73-8.86-5.63c0.33-0.46,0.61-0.86,0.87-1.23c0.16-0.01,0.27-0.05,0.33-0.01
	c1.86,1.16,1.91,1.64,3.68-0.76c3.04-4.12,6.12-8.2,9.14-12.33c0.37-0.5,0.82-1.54,0.63-1.73c-0.53-0.53-1.4-1.06-2.08-1
	c-1.13,0.11-2.31,0.53-3.31,1.09c-1.1,0.62-2.02,1.55-3.1,2.41c-0.27-0.18-0.6-0.39-1.06-0.69
	C86.95,371.12,88.07,369.77,89.25,368.33z"/>
<path class="st12" d="M374.76,397.54c-0.08,0.01-0.11-0.03-0.13-0.06C374.68,397.48,374.75,397.49,374.76,397.54z"/>
<path class="st55" d="M329.95,407.64c-1.46,0.62-2.84,1.19-4.4,1.83c-1.06-3.82-2.09-7.44-3.07-11.08c-0.23-0.86,0.15-1.58,1-1.85
	c1.55-0.5,3.11-1.03,4.71-1.28c1.5-0.24,2.89,0.43,3.54,1.82c0.73,1.54,1.35,3.19,1.66,4.86
	C333.88,404.67,332.35,406.41,329.95,407.64z"/>
<path class="st12" d="M334.18,408.26c0.13-0.09,0.26-0.17,0.46-0.27c0.12,0.03,0.15,0.08,0.24,0.19c-0.12,0.12-0.28,0.16-0.56,0.17
	C334.22,408.31,334.18,408.26,334.18,408.26z"/>
<path class="st12" d="M334.24,408.33c-0.02,0.08-0.07,0.14-0.11,0.2c-0.02-0.07-0.04-0.15,0-0.24
	C334.18,408.26,334.22,408.31,334.24,408.33z"/>
<path class="st61" d="M55.21,347.34c-1.75-1.85-3.44-3.64-5.29-5.59c4.84-0.78,9.45-1.52,14.47-2.33c-0.96,0.9-1.66,1.57-2.37,2.23
	c-1.9,1.79-3.78,3.59-5.7,5.35C56.07,347.24,55.63,347.28,55.21,347.34z"/>
<path class="st61" d="M76.67,360.15c-1.41,1.67-2.76,3.26-4.19,4.96c-1.94-1.8-3.82-3.54-5.88-5.45c4.56-1.24,8.85-2.4,13.15-3.57
	c0.05,0.08,0.09,0.17,0.14,0.25C78.83,357.59,77.78,358.84,76.67,360.15z"/>
</svg>
