<?xml version="1.0" encoding="utf-8"?>
<!-- Generator: Adobe Adobe Illustrator 29.2.0, SVG Export Plug-In . SVG Version: 6.00 Build 0)  -->
<svg version="1.1" id="Layer_1" xmlns="http://www.w3.org/2000/svg" xmlns:xlink="http://www.w3.org/1999/xlink" x="0px" y="0px"
	 viewBox="0 0 500 500" style="enable-background:new 0 0 500 500;" xml:space="preserve">
<style type="text/css">
	.st0{fill:#FDFCFC;}
	.st1{fill:#FBF7F4;}
	.st2{fill:#FFCD00;}
	.st3{fill:#FFFFFF;}
	.st4{fill:none;stroke:#BB6125;stroke-width:0.5;stroke-miterlimit:10;}
	.st5{fill:#012E87;}
	.st6{fill:#08348B;}
	.st7{fill:#0A358B;}
	.st8{fill:#07338A;}
	.st9{fill:#09348B;}
	.st10{fill:#0B368C;}
	.st11{fill:#FDFDFD;}
	.st12{fill:#6199C4;}
	.st13{fill:#6099C4;}
	.st14{fill:#033088;}
	.st15{fill:#FCFDFD;}
	.st16{fill:#FBFBFD;}
	.st17{fill:#022F87;}
	.st18{fill:#BB0C2B;}
	.st19{fill:#BA0C2C;}
	.st20{fill:#B45C15;}
	.st21{fill:#F7D52E;}
	.st22{fill:#85D7E1;}
	.st23{fill:#171896;}
	.st24{fill:#B9641F;}
	.st25{fill:#B9631F;}
	.st26{fill:#B9631E;}
	.st27{fill:#FEFDFD;}
	.st28{fill:#BA152E;}
	.st29{fill:#BA162F;}
	.st30{fill:#1B1996;}
	.st31{fill:#1D1A96;}
	.st32{fill:#C87D8C;}
	.st33{fill:#CC9DAB;}
	.st34{fill:#FEFEFE;}
	.st35{fill:#F5D32F;}
	.st36{fill:#FFFEFE;}
	.st37{fill:#FEFDFC;}
	.st38{fill:#613A13;}
	.st39{fill:#2A278D;}
	.st40{fill:#1A1A97;}
	.st41{fill:#1B1B98;}
	.st42{fill:#1A1A98;}
	.st43{fill:#B15308;}
	.st44{fill:#AF5308;}
	.st45{fill:#B05308;}
	.st46{fill:#AD5209;}
	.st47{fill:#A95109;}
	.st48{fill:#A75009;}
	.st49{fill:#F5D42F;}
	.st50{fill:#F6D42F;}
	.st51{fill:#F6D52F;}
	.st52{fill:#F3D230;}
	.st53{fill:#F4D230;}
	.st54{fill:#F3D130;}
	.st55{fill:#EECE32;}
	.st56{fill:#F4D330;}
	.st57{fill:#EDCD33;}
	.st58{fill:#EECD33;}
	.st59{fill:#FCFCFE;}
	.st60{fill:#FAFAFD;}
	.st61{fill:#FDFDFE;}
</style>
<path class="st0" d="M56.59,265.75c5.78,5.02,10.54,6.62,18.24,4.73c-0.92,5.19-3.64,9.45-6.68,13.27
	c-6.98,8.77-14.88,16.86-18.36,27.93c-0.15,0.47-1.82,0.95-2.51,0.69c-5.71-2.14-11.34-10.92-11.02-17.05
	c0.05-1.04,0.22-2.21,0.74-3.06c6.19-10.06,11.05-20.72,14.44-32.16C53.17,262.01,54.78,263.79,56.59,265.75z"/>
<path class="st1" d="M433.37,266.34c-1.51,0.19-2.82,0.21-4.12,0.2c-3.44-0.04-5.14-1.38-5.71-4.45c-0.37-1.98,1.92-6.56,3.68-7.22
	c0.31-0.12,1.01,0,1.11,0.21C430.11,258.74,431.84,262.45,433.37,266.34z"/>
<g>
	<g>
		<path class="st2" d="M499.84,292.76c-0.74-5.71-4.67-10.08-7.39-14.92c-14.01-24.96-9.91-36.99-14.21-46.33
			c-5.97-12.97-21.67-13.55-32.52-6.65c-8.43,5.36-14,15.43-17.28,26.31c-0.34-1.65-0.66-3.3-1.07-4.97
			c-3.75-15.17-7.43-31.48-8.91-48.13c-5.88-58.87,1.28-106.5,28.88-143.99L396.26,2.68H103.74L52.65,54.08
			c27.59,37.49,34.75,85.12,28.88,143.99c-1.48,16.65-5.15,32.96-8.91,48.13c-0.41,1.66-0.73,3.31-1.07,4.97
			c-3.28-10.88-8.85-20.95-17.28-26.31c-10.86-6.9-26.56-6.32-32.52,6.65c-4.3,9.34-0.19,21.36-14.21,46.33
			c-2.72,4.84-6.65,9.22-7.39,14.92c-1.28,9.89,5.46,19.41,18.61,27.1c-1.46,6.94-1.14,12.58-0.68,16.94
			c2.15,20.4,14.68,35.29,26.65,46.21c30.82,28.12,66.21,43.25,100.16,55.65c37.96,13.86,80.47,34.32,105.1,58.34
			c24.63-24.02,67.14-44.48,105.1-58.34c33.95-12.4,69.34-27.53,100.16-55.65c11.97-10.92,24.5-25.81,26.65-46.21
			c0.46-4.36,0.79-10-0.68-16.94C494.39,312.16,501.13,302.65,499.84,292.76z"/>
		<g>
			<path class="st3" d="M479.87,314.69c-2.37-7.44-6.87-16.14-15.11-26.17c-6.76-8.23-12.97-16.53-15.22-24.16
				c5.04,2.38,11.53,2.4,17.22-0.94c4.16-2.44,7.92-6.25,10.42-10.84c1.48,7.21,4.28,16.2,10.78,27.77
				c0.79,1.41,1.68,2.78,2.56,4.16c2.05,3.17,3.82,5.91,4.21,8.91C495.7,300.8,490.31,308.29,479.87,314.69z"/>
			<path class="st3" d="M462.33,259.87c-1.7,0.69-3.5,1.04-5.27,1.04c-2.75,0-5.42-0.84-7.48-2.49c-0.33-0.26-0.61-0.55-0.89-0.84
				c0.27-3.95,2.09-7.63,6.02-10.91L462.33,259.87z"/>
			<path class="st3" d="M250,490c-29.55-26.75-77-46.56-103.34-56.18c-33.42-12.21-68.49-27.27-98.46-54.62
				c-9.72-8.87-22.89-22.98-25-42.95c-0.76-7.19-2.33-22.15,16.01-44.46c10.26-12.49,20-25.73,16.62-38.28
				c-1.55-5.74-5.58-10.43-12.23-14.22l-10.33,17.89c-4.93-3.99-9.6-11.08-8.13-19.31c0.31-1.56,0.71-2.96,1.28-4.21
				c1.73-3.76,4.55-6.24,8.4-7.37c7.24-2.13,15.16,0.91,20.45,5.95c9.17,8.74,13.02,23.24,13.66,34.98
				c0.28,5.15,0.21,10.31,0.81,15.44c2.36,23.7,13.41,44.42,32.07,58.65c21.52,16.41,46.79,25.54,71.23,34.38
				c28.86,10.43,51.77,20.83,76.96,45.07c25.2-24.23,48.1-34.63,76.96-45.07c24.44-8.83,49.71-17.97,71.23-34.38
				c18.66-14.23,29.71-34.94,32.07-58.65c0.6-5.13,0.53-10.29,0.81-15.44c0.64-11.74,4.49-26.24,13.66-34.98
				c5.28-5.04,13.21-8.08,20.45-5.95c3.84,1.13,6.67,3.61,8.4,7.37c0.57,1.25,0.96,2.64,1.28,4.21c1.48,8.23-3.2,15.32-8.13,19.31
				l-10.33-17.89c-6.65,3.79-10.69,8.48-12.23,14.22c-3.38,12.55,6.36,25.79,16.62,38.28c18.34,22.32,16.76,37.28,16.01,44.46
				c-2.1,19.97-15.27,34.08-25,42.95c-29.97,27.35-65.03,42.41-98.46,54.62C327,443.44,279.56,463.25,250,490L250,490z"/>
			<path class="st3" d="M5.26,293.42c0.39-3,2.16-5.74,4.21-8.91c0.89-1.37,1.77-2.75,2.56-4.16c6.5-11.58,9.3-20.57,10.78-27.77
				c2.5,4.6,6.26,8.4,10.42,10.84c5.69,3.34,12.19,3.32,17.22,0.94c-2.25,7.63-8.46,15.93-15.22,24.16
				C27,298.55,22.5,307.26,20.13,314.69C9.69,308.29,4.3,300.8,5.26,293.42z"/>
			<path class="st3" d="M45.28,246.68c3.93,3.28,5.74,6.96,6.02,10.91c-0.28,0.29-0.57,0.57-0.89,0.84
				c-2.06,1.65-4.72,2.49-7.48,2.49c-1.76,0-3.57-0.35-5.27-1.04L45.28,246.68z"/>
		</g>
		<g>
			<path class="st4" d="M499.84,292.76c-0.74-5.71-4.67-10.08-7.39-14.92c-14.01-24.96-9.91-36.99-14.21-46.33
				c-5.97-12.97-21.67-13.55-32.52-6.65c-8.43,5.36-14,15.43-17.28,26.31c-0.34-1.65-0.66-3.3-1.07-4.97
				c-3.75-15.17-7.43-31.48-8.91-48.13c-5.88-58.87,1.28-106.5,28.88-143.99L396.26,2.68H103.74L52.65,54.08
				c27.59,37.49,34.75,85.12,28.88,143.99c-1.48,16.65-5.15,32.96-8.91,48.13c-0.41,1.66-0.73,3.31-1.07,4.97
				c-3.28-10.88-8.85-20.95-17.28-26.31c-10.86-6.9-26.56-6.32-32.52,6.65c-4.3,9.34-0.19,21.36-14.21,46.33
				c-2.72,4.84-6.65,9.22-7.39,14.92c-1.28,9.89,5.46,19.41,18.61,27.1c-1.46,6.94-1.14,12.58-0.68,16.94
				c2.15,20.4,14.68,35.29,26.65,46.21c30.82,28.12,66.21,43.25,100.16,55.65c37.96,13.86,80.47,34.32,105.1,58.34
				c24.63-24.02,67.14-44.48,105.1-58.34c33.95-12.4,69.34-27.53,100.16-55.65c11.97-10.92,24.5-25.81,26.65-46.21
				c0.46-4.36,0.79-10-0.68-16.94C494.39,312.16,501.13,302.65,499.84,292.76z"/>
			<g>
				<path class="st4" d="M5.26,293.42c0.39-3,2.16-5.74,4.21-8.91c0.89-1.37,1.77-2.75,2.56-4.16c6.5-11.58,9.3-20.57,10.78-27.77
					c2.5,4.6,6.26,8.4,10.42,10.84c5.69,3.34,12.19,3.32,17.22,0.94c-2.25,7.63-8.46,15.93-15.22,24.16
					C27,298.55,22.5,307.26,20.13,314.69C9.69,308.29,4.3,300.8,5.26,293.42z"/>
				<path class="st4" d="M37.67,259.87l7.62-13.19c3.93,3.28,5.74,6.96,6.02,10.91c-0.28,0.29-0.57,0.57-0.89,0.84
					c-2.06,1.65-4.72,2.49-7.48,2.49C41.17,260.92,39.37,260.57,37.67,259.87z"/>
				<path class="st4" d="M476.79,336.26c-2.1,19.97-15.27,34.08-25,42.95c-29.97,27.35-65.03,42.41-98.46,54.62
					C327,443.44,279.56,463.25,250,490h0c-29.55-26.75-77-46.56-103.34-56.18c-33.42-12.21-68.49-27.27-98.46-54.62
					c-9.72-8.87-22.89-22.98-25-42.95c-0.76-7.19-2.33-22.15,16.01-44.46c10.26-12.49,20-25.73,16.62-38.28
					c-1.55-5.74-5.58-10.43-12.23-14.22l-10.33,17.89c-4.93-3.99-9.6-11.08-8.13-19.31c0.31-1.56,0.71-2.96,1.28-4.21
					c1.73-3.76,4.55-6.24,8.4-7.37c7.24-2.13,15.16,0.91,20.45,5.95c9.17,8.74,13.02,23.24,13.66,34.98
					c0.28,5.15,0.21,10.31,0.81,15.44c2.36,23.7,13.41,44.42,32.07,58.65c21.52,16.41,46.79,25.54,71.23,34.38
					c28.86,10.43,51.77,20.83,76.96,45.07c25.2-24.23,48.1-34.63,76.96-45.07c24.44-8.83,49.71-17.97,71.23-34.38
					c18.66-14.23,29.71-34.94,32.07-58.65c0.6-5.13,0.53-10.29,0.81-15.44c0.64-11.74,4.49-26.24,13.66-34.98
					c5.28-5.04,13.21-8.08,20.45-5.95c3.84,1.13,6.67,3.61,8.4,7.37c0.57,1.25,0.96,2.64,1.28,4.21c1.48,8.23-3.2,15.32-8.13,19.31
					l-10.33-17.89c-6.65,3.79-10.69,8.48-12.23,14.22c-3.38,12.55,6.36,25.79,16.62,38.28
					C479.13,314.11,477.55,329.07,476.79,336.26z"/>
				<path class="st4" d="M462.33,259.87c-1.7,0.69-3.5,1.04-5.27,1.04c-2.75,0-5.42-0.84-7.48-2.49c-0.33-0.26-0.61-0.55-0.89-0.84
					c0.27-3.95,2.09-7.63,6.02-10.91L462.33,259.87z"/>
				<path class="st4" d="M479.87,314.69c-2.37-7.44-6.87-16.14-15.11-26.17c-6.76-8.23-12.97-16.53-15.22-24.16
					c5.04,2.38,11.53,2.4,17.22-0.94c4.16-2.44,7.92-6.25,10.42-10.84c1.48,7.21,4.28,16.2,10.78,27.77
					c0.79,1.41,1.68,2.78,2.56,4.16c2.05,3.17,3.82,5.91,4.21,8.91C495.7,300.8,490.31,308.29,479.87,314.69z"/>
			</g>
		</g>
	</g>
	<g>
		<path class="st2" d="M499.84,292.76c-0.74-5.71-4.67-10.08-7.39-14.92c-14.01-24.96-9.91-36.99-14.21-46.33
			c-5.97-12.97-21.67-13.55-32.52-6.65c-8.43,5.36-14,15.43-17.28,26.31c-0.34-1.65-0.66-3.3-1.07-4.97
			c-3.75-15.17-7.43-31.48-8.91-48.13c-5.88-58.87,1.28-106.5,28.88-143.99L396.26,2.68H103.74L52.65,54.08
			c27.59,37.49,34.75,85.12,28.88,143.99c-1.48,16.65-5.15,32.96-8.91,48.13c-0.41,1.66-0.73,3.31-1.07,4.97
			c-3.28-10.88-8.85-20.95-17.28-26.31c-10.86-6.9-26.56-6.32-32.52,6.65c-4.3,9.34-0.19,21.36-14.21,46.33
			c-2.72,4.84-6.65,9.22-7.39,14.92c-1.28,9.89,5.46,19.41,18.61,27.1c-1.46,6.94-1.14,12.58-0.68,16.94
			c2.15,20.4,14.68,35.29,26.65,46.21c30.82,28.12,66.21,43.25,100.16,55.65c37.96,13.86,80.47,34.32,105.1,58.34
			c24.63-24.02,67.14-44.48,105.1-58.34c33.95-12.4,69.34-27.53,100.16-55.65c11.97-10.92,24.5-25.81,26.65-46.21
			c0.46-4.36,0.79-10-0.68-16.94C494.39,312.16,501.13,302.65,499.84,292.76z"/>
		<g>
			<path class="st3" d="M479.87,314.69c-2.37-7.44-6.87-16.14-15.11-26.17c-6.76-8.23-12.97-16.53-15.22-24.16
				c5.04,2.38,11.53,2.4,17.22-0.94c4.16-2.44,7.92-6.25,10.42-10.84c1.48,7.21,4.28,16.2,10.78,27.77
				c0.79,1.41,1.68,2.78,2.56,4.16c2.05,3.17,3.82,5.91,4.21,8.91C495.7,300.8,490.31,308.29,479.87,314.69z"/>
			<path class="st3" d="M462.33,259.87c-1.7,0.69-3.5,1.04-5.27,1.04c-2.75,0-5.42-0.84-7.48-2.49c-0.33-0.26-0.61-0.55-0.89-0.84
				c0.27-3.95,2.09-7.63,6.02-10.91L462.33,259.87z"/>
			<path class="st3" d="M250,490c-29.55-26.75-77-46.56-103.34-56.18c-33.42-12.21-68.49-27.27-98.46-54.62
				c-9.72-8.87-22.89-22.98-25-42.95c-0.76-7.19-2.33-22.15,16.01-44.46c10.26-12.49,20-25.73,16.62-38.28
				c-1.55-5.74-5.58-10.43-12.23-14.22l-10.33,17.89c-4.93-3.99-9.6-11.08-8.13-19.31c0.31-1.56,0.71-2.96,1.28-4.21
				c1.73-3.76,4.55-6.24,8.4-7.37c7.24-2.13,15.16,0.91,20.45,5.95c9.17,8.74,13.02,23.24,13.66,34.98
				c0.28,5.15,0.21,10.31,0.81,15.44c2.36,23.7,13.41,44.42,32.07,58.65c21.52,16.41,46.79,25.54,71.23,34.38
				c28.86,10.43,51.77,20.83,76.96,45.07c25.2-24.23,48.1-34.63,76.96-45.07c24.44-8.83,49.71-17.97,71.23-34.38
				c18.66-14.23,29.71-34.94,32.07-58.65c0.6-5.13,0.53-10.29,0.81-15.44c0.64-11.74,4.49-26.24,13.66-34.98
				c5.28-5.04,13.21-8.08,20.45-5.95c3.84,1.13,6.67,3.61,8.4,7.37c0.57,1.25,0.96,2.64,1.28,4.21c1.48,8.23-3.2,15.32-8.13,19.31
				l-10.33-17.89c-6.65,3.79-10.69,8.48-12.23,14.22c-3.38,12.55,6.36,25.79,16.62,38.28c18.34,22.32,16.76,37.28,16.01,44.46
				c-2.1,19.97-15.27,34.08-25,42.95c-29.97,27.35-65.03,42.41-98.46,54.62C327,443.44,279.56,463.25,250,490L250,490z"/>
			<path class="st3" d="M5.26,293.42c0.39-3,2.16-5.74,4.21-8.91c0.89-1.37,1.77-2.75,2.56-4.16c6.5-11.58,9.3-20.57,10.78-27.77
				c2.5,4.6,6.26,8.4,10.42,10.84c5.69,3.34,12.19,3.32,17.22,0.94c-2.25,7.63-8.46,15.93-15.22,24.16
				C27,298.55,22.5,307.26,20.13,314.69C9.69,308.29,4.3,300.8,5.26,293.42z"/>
			<path class="st3" d="M45.28,246.68c3.93,3.28,5.74,6.96,6.02,10.91c-0.28,0.29-0.57,0.57-0.89,0.84
				c-2.06,1.65-4.72,2.49-7.48,2.49c-1.76,0-3.57-0.35-5.27-1.04L45.28,246.68z"/>
		</g>
		<g>
			<path class="st4" d="M499.84,292.76c-0.74-5.71-4.67-10.08-7.39-14.92c-14.01-24.96-9.91-36.99-14.21-46.33
				c-5.97-12.97-21.67-13.55-32.52-6.65c-8.43,5.36-14,15.43-17.28,26.31c-0.34-1.65-0.66-3.3-1.07-4.97
				c-3.75-15.17-7.43-31.48-8.91-48.13c-5.88-58.87,1.28-106.5,28.88-143.99L396.26,2.68H103.74L52.65,54.08
				c27.59,37.49,34.75,85.12,28.88,143.99c-1.48,16.65-5.15,32.96-8.91,48.13c-0.41,1.66-0.73,3.31-1.07,4.97
				c-3.28-10.88-8.85-20.95-17.28-26.31c-10.86-6.9-26.56-6.32-32.52,6.65c-4.3,9.34-0.19,21.36-14.21,46.33
				c-2.72,4.84-6.65,9.22-7.39,14.92c-1.28,9.89,5.46,19.41,18.61,27.1c-1.46,6.94-1.14,12.58-0.68,16.94
				c2.15,20.4,14.68,35.29,26.65,46.21c30.82,28.12,66.21,43.25,100.16,55.65c37.96,13.86,80.47,34.32,105.1,58.34
				c24.63-24.02,67.14-44.48,105.1-58.34c33.95-12.4,69.34-27.53,100.16-55.65c11.97-10.92,24.5-25.81,26.65-46.21
				c0.46-4.36,0.79-10-0.68-16.94C494.39,312.16,501.13,302.65,499.84,292.76z"/>
			<g>
				<path class="st4" d="M5.26,293.42c0.39-3,2.16-5.74,4.21-8.91c0.89-1.37,1.77-2.75,2.56-4.16c6.5-11.58,9.3-20.57,10.78-27.77
					c2.5,4.6,6.26,8.4,10.42,10.84c5.69,3.34,12.19,3.32,17.22,0.94c-2.25,7.63-8.46,15.93-15.22,24.16
					C27,298.55,22.5,307.26,20.13,314.69C9.69,308.29,4.3,300.8,5.26,293.42z"/>
				<path class="st4" d="M37.67,259.87l7.62-13.19c3.93,3.28,5.74,6.96,6.02,10.91c-0.28,0.29-0.57,0.57-0.89,0.84
					c-2.06,1.65-4.72,2.49-7.48,2.49C41.17,260.92,39.37,260.57,37.67,259.87z"/>
				<path class="st4" d="M476.79,336.26c-2.1,19.97-15.27,34.08-25,42.95c-29.97,27.35-65.03,42.41-98.46,54.62
					C327,443.44,279.56,463.25,250,490h0c-29.55-26.75-77-46.56-103.34-56.18c-33.42-12.21-68.49-27.27-98.46-54.62
					c-9.72-8.87-22.89-22.98-25-42.95c-0.76-7.19-2.33-22.15,16.01-44.46c10.26-12.49,20-25.73,16.62-38.28
					c-1.55-5.74-5.58-10.43-12.23-14.22l-10.33,17.89c-4.93-3.99-9.6-11.08-8.13-19.31c0.31-1.56,0.71-2.96,1.28-4.21
					c1.73-3.76,4.55-6.24,8.4-7.37c7.24-2.13,15.16,0.91,20.45,5.95c9.17,8.74,13.02,23.24,13.66,34.98
					c0.28,5.15,0.21,10.31,0.81,15.44c2.36,23.7,13.41,44.42,32.07,58.65c21.52,16.41,46.79,25.54,71.23,34.38
					c28.86,10.43,51.77,20.83,76.96,45.07c25.2-24.23,48.1-34.63,76.96-45.07c24.44-8.83,49.71-17.97,71.23-34.38
					c18.66-14.23,29.71-34.94,32.07-58.65c0.6-5.13,0.53-10.29,0.81-15.44c0.64-11.74,4.49-26.24,13.66-34.98
					c5.28-5.04,13.21-8.08,20.45-5.95c3.84,1.13,6.67,3.61,8.4,7.37c0.57,1.25,0.96,2.64,1.28,4.21c1.48,8.23-3.2,15.32-8.13,19.31
					l-10.33-17.89c-6.65,3.79-10.69,8.48-12.23,14.22c-3.38,12.55,6.36,25.79,16.62,38.28
					C479.13,314.11,477.55,329.07,476.79,336.26z"/>
				<path class="st4" d="M462.33,259.87c-1.7,0.69-3.5,1.04-5.27,1.04c-2.75,0-5.42-0.84-7.48-2.49c-0.33-0.26-0.61-0.55-0.89-0.84
					c0.27-3.95,2.09-7.63,6.02-10.91L462.33,259.87z"/>
				<path class="st4" d="M479.87,314.69c-2.37-7.44-6.87-16.14-15.11-26.17c-6.76-8.23-12.97-16.53-15.22-24.16
					c5.04,2.38,11.53,2.4,17.22-0.94c4.16-2.44,7.92-6.25,10.42-10.84c1.48,7.21,4.28,16.2,10.78,27.77
					c0.79,1.41,1.68,2.78,2.56,4.16c2.05,3.17,3.82,5.91,4.21,8.91C495.7,300.8,490.31,308.29,479.87,314.69z"/>
			</g>
		</g>
	</g>
	<path class="st5" d="M82.63,248.67c4.02-16.32,7.65-32.82,9.15-49.56c4.77-47.94,2.24-102.72-25.82-143.79l42.07-42.33h283.94
		l42.07,42.33c-28.06,41.06-30.59,95.85-25.82,143.79c1.49,16.74,5.12,33.25,9.15,49.56c7.88,31.79,1.14,64.19-25.43,84.43
		c-21.86,16.7-48.56,25.66-74.12,34.93c-24.52,8.92-48.52,20.89-67.82,38.7c-19.3-17.81-43.3-29.78-67.82-38.7
		c-25.53-9.28-52.25-18.23-74.12-34.93C81.5,312.86,74.75,280.45,82.63,248.67L82.63,248.67z"/>
	<g>
		<path class="st6" d="M272.2,445.27c-0.02-3.54-0.03-6.69-0.07-9.84c-0.07-5.69-0.73-6.39-6.39-7.04
			c3.71-2.67,7.42-5.35,11.16-7.97c0.27-0.19,0.83,0.03,1.26,0.06c-0.14,0.62-0.07,1.59-0.45,1.81c-3.03,1.79-1.68,3.5-0.19,5.48
			c2.82,3.76,5.49,7.64,8.94,11.37c0-6.19,0.08-12.37-0.1-18.55c-0.02-0.77-1.38-1.6-2.25-2.2c-0.44-0.3-1.2-0.14-1.82-0.19
			c0.33-0.68,0.49-1.62,1.03-2.01c1.85-1.3,3.8-2.49,5.81-3.55c0.56-0.3,1.44-0.02,2.17,0c-0.22,0.55-0.48,1.09-0.66,1.65
			c-0.7,2.24-1.95,4.48-1.97,6.73c-0.1,8.9,0.24,17.81,0.27,26.72c0,1.15-0.87,2.3-1.34,3.45c-0.92-0.65-2.07-1.12-2.71-1.98
			c-3.2-4.24-6.27-8.59-9.38-12.89c-0.34,0.07-0.69,0.14-1.03,0.21c0,3.71-0.01,7.42,0,11.12c0.01,3.29,0.24,6.6-0.07,9.86
			c-0.12,1.2-1.53,2.27-2.34,3.4c-0.74-0.64-1.63-1.16-2.2-1.93c-3.89-5.3-7.8-10.59-11.5-16.02c-1.48-2.17-2.82-3.59-5.68-1.46
			c1.75-5.39,7.09-6.92,10.29-11.5c0.25,1.22,0.57,1.85,0.4,2.05c-2.77,3.17-0.93,5.37,1.2,7.93c2.47,2.95,4.44,6.32,7.32,10.5
			C272.04,448.14,272.12,446.9,272.2,445.27z"/>
		<path class="st7" d="M325.53,405.53c1.62,5.3,3.26,10.6,4.86,15.9c0.88,2.92,2.5,4.68,5.84,4.3c0.65-0.07,1.36,0.47,2.04,0.73
			c-0.59,0.42-1.13,0.93-1.77,1.23c-3.06,1.42-6.13,2.81-9.23,4.13c-0.52,0.22-1.21,0.03-1.83,0.02c0.12-0.6,0.05-1.52,0.4-1.74
			c4.26-2.64,2.75-6.33,1.73-9.78c-1.64-5.56-3.63-11.01-5.26-16.58c-0.9-3.09-2.96-3.03-5.43-2.74c-0.6,0.07-1.28-0.5-1.93-0.77
			c0.49-0.33,0.95-0.72,1.48-0.97c2.08-0.97,4.11-2.1,6.29-2.76c1.1-0.33,2.68-0.13,3.69,0.45c7.93,4.53,15.78,9.2,24.46,14.31
			c-2.25-5.81-3.87-11.13-6.4-15.97c-0.93-1.77-4.02-2.41-6.79-3.94c3.81-1.46,7.55-2.91,11.33-4.24c0.1-0.04,1.01,1.69,0.94,1.74
			c-5.79,4.04-1.25,8.36-0.12,12.31c1.67,5.82,3.82,11.53,6.17,17.11c1.24,2.94-0.43,2.78-2.06,2.45c-1.53-0.31-3.03-1.1-4.4-1.91
			c-7.61-4.55-15.19-9.16-23.17-14.02C325.84,404.86,325.69,405.19,325.53,405.53z"/>
		<path class="st6" d="M364.41,382.3c-3.6,2.53-4.56,6.04-3.68,9.61c1.49,6.02,3.88,11.75,8.09,16.53c2.37,2.69,5.64,3.24,8.48,2.16
			c2.07-0.78,4.5-3.23,4.85-5.27c0.43-2.48-1.02-5.35-2-7.93c-0.12-0.31-2.34,0.27-3.58,0.25c-0.7-0.01-1.39-0.4-2.08-0.63
			c0.43-0.39,0.8-0.9,1.3-1.14c3.98-1.94,7.98-3.85,12.01-5.7c0.42-0.19,1.07,0.12,1.61,0.19c-0.2,0.57-0.25,1.45-0.64,1.65
			c-2.6,1.34-1.96,2.97-0.83,4.98c1.19,2.1,2.1,4.37,3.04,6.6c0.26,0.62,0.21,1.37,0.3,2.05c-0.89-0.06-1.92,0.14-2.65-0.23
			c-1.03-0.53-1.85-1.49-2.9-2.38c-1.55,9.27-13.11,14.05-21.51,9.44c-6.71-3.68-9.75-9.91-10.05-16.99
			c-0.28-6.7,3.07-12.22,9.45-15.16c2.01-0.93,4.4-1.26,6.65-1.37c1.68-0.09,3.96,1.66,3.53-1.98c0.98,0.08,2.52-0.19,2.83,0.31
			c1.62,2.61,2.94,5.41,4.31,8.17c0.23,0.46,0.19,1.06,0.28,1.59c-0.68-0.03-1.57,0.21-2.01-0.13c-1.29-1-2.32-2.32-3.59-3.35
			C372.31,380.88,368.64,380.3,364.41,382.3z"/>
		<path class="st8" d="M156.66,406.25c-2.5,6.68-10.6,12.02-15.96,11.27c-3.62-0.5-7.67-3.39-8.77-6.76
			c-0.76-2.34,1.49-5.76,3.87-5.53c1.07,0.11,2.69,0.95,2.93,1.78c0.34,1.19-0.26,2.7-0.65,4.02c-0.25,0.84-0.84,1.58-1.28,2.36
			c0.98,0.36,1.93,0.95,2.93,1.05c3.16,0.34,4.92-1.99,6.57-4.05c1.31-1.63,2.11-3.67,3.25-5.73c-2.57-0.34-5.22-0.19-7.43-1.1
			c-3.71-1.54-5.53-5.69-4.78-9.31c1.03-4.92,5.08-9.34,8.93-9.72c10.56-1.04,15.72,7,12.61,16.64
			C158.35,402.82,157.53,404.39,156.66,406.25z M151.56,387.34c-4.14,0.66-9.01,7.32-8.3,11.35c0.46,2.63,3.09,3.95,5.67,2.85
			c3.07-1.31,6.58-7.79,5.67-11C154.28,389.43,152.98,388.59,151.56,387.34z"/>
		<path class="st9" d="M182.23,401.56c-4.26,2.56-7.53-0.22-11.04-1.31c-0.5-0.16-1.44-0.37-1.52-0.22
			c-0.73,1.43-1.36,2.93-1.85,4.45c-0.04,0.14,1.08,0.91,1.7,0.96c4.4,0.35,8,1.72,10.35,5.91c2.44,4.35,1.19,8.24-1.02,11.9
			c-2.24,3.71-6.05,5.02-10.22,4.67c-4.2-0.36-7.9-1.97-9.93-6c-1.19-2.35-1.43-4.93,0.77-6.73c1.15-0.94,3.06-1.41,4.55-1.26
			c0.83,0.08,1.91,1.79,2.08,2.89c0.13,0.83-0.89,1.97-1.63,2.77c-0.87,0.95-1.99,1.68-3,2.5c1.45,0.92,2.82,2.36,4.38,2.61
			c1.38,0.22,3.77-0.43,4.34-1.46c1.77-3.24,3.37-6.75,4.04-10.34c0.27-1.46-1.66-4.03-3.25-4.94c-1.66-0.95-4.21-1.11-5.79,1.25
			c-0.39,0.57-1.37,0.74-2.08,1.1c-0.09-0.84-0.51-1.83-0.21-2.49c2.11-4.48,4.61-8.8,6.49-13.37c0.92-2.24,1.65-1.76,3.26-1.05
			c4.15,1.84,8.4,3.46,12.84,5.25C184.75,399.33,183.63,400.36,182.23,401.56z"/>
		<path class="st7" d="M234.87,461.65c-2.51-1.55-5.93-2.59-7.24-4.84c-0.95-1.65,1-4.89,1.42-7.46c0.24-1.51,0.65-3.76-0.13-4.51
			c-2.11-2.02-4.81-3.42-7.33-4.97c-0.07-0.04-1.05,0.97-1.2,1.59c-0.52,2.13-1.37,4.36-1.1,6.43c0.24,1.81,1.81,3.44,3.29,6.03
			c-4.49-2.5-8.19-4.57-11.9-6.64c3.47-0.08,3.31-2.22,3.46-4.6c0.31-4.9,1.17-9.77,1.43-14.68c0.12-2.35-0.62-4.75-1.05-7.7
			c3.38,2.13,6.96,4.39,10.54,6.65c0.05,0.38,0.1,0.76,0.14,1.14c-2.74-1.09-3.65-0.53-3.95,2.11c-0.76,6.48-0.98,6.45,4.58,9.94
			c1.26,0.79,2.5,1.61,4.29,2.75c0.34-4.83,1.69-9.36-1.74-13.64c3.14,2.34,6.29,4.67,9.42,7.04c0.39,0.29,0.65,0.74,0.98,1.12
			c-0.39,0.22-0.84,0.37-1.14,0.68c-0.77,0.8-1.98,1.61-2.11,2.53c-0.69,5.01-1.26,10.04-1.54,15.09c-0.09,1.54,0.86,3.15,1.27,5.17
			C235.08,461.44,234.97,461.55,234.87,461.65z"/>
		<path class="st8" d="M305.1,430.14c-1.39-6.28-2.58-12.26-3.93-18.19c-0.48-2.1-1.79-2.53-3.69-1.29
			c-0.43,0.28-1.24-0.03-1.88-0.07c0.32-0.65,0.46-1.64,0.98-1.91c4.29-2.22,8.64-4.34,13.01-6.41c0.41-0.19,1.03,0.09,1.56,0.14
			c-0.19,0.6-0.28,1.67-0.57,1.73c-4.46,0.87-3.21,4.03-2.65,6.71c1.56,7.41,3.23,14.81,5.08,22.15c0.15,0.6,2.06,0.78,3.17,1.09
			c0.71,0.2,1.46,0.27,2.19,0.4c-0.33,0.49-0.54,1.22-1,1.44c-4.23,2.03-8.49,3.98-12.77,5.9c-0.44,0.2-1.04,0.03-1.57,0.04
			c0.07-0.52-0.01-1.41,0.23-1.5C309.08,438.08,305.78,434,305.1,430.14z"/>
		<path class="st10" d="M193.69,426.67c0.81-3.78,1.63-7.22,2.12-10.7c0.16-1.1-0.56-2.33-0.88-3.5c-1.47,0.54-3.13,0.81-4.36,1.68
			c-1.17,0.83-1.89,2.29-2.88,3.58c-0.39-0.55-0.7-0.79-0.66-0.96c2.37-9.93,2.38-9.94,11.32-5.34c2.51,1.29,4.85,3.09,7.5,3.93
			c3.35,1.06,3.65,3.28,3.17,5.99c-0.36,2.06-1.06,4.07-1.61,6.09c-0.3-0.05-0.59-0.09-0.89-0.14c-0.25-2.09-0.33-4.21-0.79-6.25
			c-0.31-1.39-1.01-2.74-1.79-3.95c-0.37-0.57-1.35-0.75-2.05-1.11c-0.34,0.71-0.85,1.38-1.01,2.13c-1.18,5.57-2.01,11.23-3.53,16.7
			c-0.71,2.56-0.32,3.84,1.93,4.84c0.27,0.12,0.58,0.63,0.52,0.89c-0.06,0.26-0.67,0.66-0.83,0.58c-3.83-1.85-7.64-3.76-11.3-5.92
			c4.06,0.63,4.38,0.35,4.93-3.85C192.79,429.89,193.24,428.45,193.69,426.67z"/>
		<path class="st7" d="M114.46,405.9c-1.82-0.93-3.38-1.74-4.83-2.71c-0.46-0.31-0.62-1.06-0.92-1.6c0.6-0.14,1.47-0.61,1.76-0.37
			c4.05,3.34,5.13-0.01,6.77-2.75c2.96-4.94,6.19-9.72,9.22-14.62c1.16-1.87,1.82-3.7-1.25-4.68c-0.84-0.27-1.36-1.53-2.03-2.33
			c1.12-0.02,2.26-0.18,3.36-0.04c2.39,0.3,4.75,0.84,7.15,1.12c2.08,0.24,2.9,0.55,1.43,2.84c-4.42,6.88-8.6,13.91-12.84,20.89
			c-1.51,2.48-2.67,4.91,1.53,6.01c0.43,0.11,0.69,0.83,1.03,1.27c-0.66,0.2-1.46,0.74-1.96,0.54
			C120.14,408.39,117.47,407.14,114.46,405.9z"/>
		<path class="st11" d="M325.71,405.38c-0.02-0.19,0.13-0.52,0.4-0.66C326.11,405.02,325.99,405.12,325.71,405.38z"/>
	</g>
	<g>
		<path class="st12" d="M323.72,111.86c10,9.01,17.75,19.72,24,31.58c0.57,1.08,1.07,2.18,1.26,3.57c-1.58,0.29-2.92-0.03-4.03,0.35
			c-3.1,1.06-5.14-0.28-7.57-2.07c-3.74-2.74-8-4.04-12.75-1.89c-1,0.45-2.87-0.02-3.87-0.72c-6.67-4.7-14.98-3.45-19.39,2.37
			c-0.84,1.12-2.58,2.03-3.99,2.17c-7.54,0.72-16.02,6.57-15.52,16.84c0.09,1.87-0.34,2.9-2.42,3.44
			c-3.98,1.03-7.85,2.49-11.77,3.78c3.24,0.74,6.34,0.84,9.43,0.7c2.19-0.1,3,0.5,3.19,2.91c0.39,5,2.63,9.02,7.37,11.45
			c3.95,2.02,7.88,1.6,11.91,0.61c1.13-0.28,3.08-0.88,3.31-0.5c2.55,4.07,7.04,4.28,10.85,5.76c7.41,2.88,14.29,0.33,16.59-5.69
			c0.38-0.99,1.95-1.51,2.95-2.28c2.08-1.62,4.1-3.31,6.21-4.88c0.86-0.64,1.89-1.52,2.82-1.49c4.97,0.12,9.44-1.1,13.33-4.24
			c1.64-1.32,2.35-0.66,2.79,1.08c0.53,2.08,1.15,4.14,1.46,6.4c-0.35,0.86-0.51,1.53-0.49,2.19c0.22,6.26,1.05,12.57,0.56,18.78
			c-0.59,7.4-2.31,14.7-3.87,22.03c-1.68-0.2-3.1-0.18-4.37-0.61c-12.6-4.22-25.39-7.95-37.7-12.91
			c-24.49-9.86-46.21-24.41-66.12-41.32c4.05-0.34,7.73-0.56,12.47-0.83c-24.35-12.42-47.65-24.32-70.96-36.21
			c-0.23,0.35-0.46,0.71-0.69,1.06c17.59,18.18,35.18,36.37,53.37,55.18c0.13-1.85,0.24-2.52,0.21-3.18
			c-0.14-3.15-0.33-6.3-0.24-9.35c26.56,21.54,55.78,38.02,87.24,50.79c-1.92,0.36-3.7,0.46-5.38,0.12
			c-6.94-1.42-13.95-2.62-20.75-4.55c-11.61-3.29-23.28-6.54-34.57-10.76c-18.25-6.82-35.09-16.52-51.41-27.1
			c-5.44-3.52-10.79-7.18-15.84-10.88c4.11-0.44,7.89-0.78,12.12-1.15c-0.7-0.75-1.06-1.38-1.59-1.65
			c-14.45-7.3-28.93-14.51-43.36-21.83c-7.33-3.72-14.57-7.6-21.73-11.67c0.46-0.69,0.85-1.09,1.13-1.55
			c10.11-16.56,23.52-29.77,40.23-39.64c2.96-1.75,5.86-3.6,9.13-5.4c6.87-2.28,13.41-4.56,19.95-6.83
			c5.65-0.83,11.27-2.14,16.94-2.39c8.29-0.36,16.65-0.46,24.9,0.22c13.11,1.08,25.5,5.16,37.44,11.46
			c-0.36,1.39-1.37,2.3-1.25,3.02c1.19,7.14-4.92,5.79-8.46,7.36c-0.81,0.36-1.81,0.28-2.73,0.4c2.54,0.79,5.08,1.16,7.61,1.06
			c2.43-0.1,3.72,1.01,4.81,2.98c3.26,5.85,8.39,7.37,14.58,4.57c1.05-0.47,2.29-0.68,3.46-0.7
			C317.6,111.74,320.66,111.83,323.72,111.86z M279.31,121.05c3.12-0.7,6.25-1.4,9.37-2.1c0-0.43-0.01-0.86-0.01-1.29
			c-2.62,0-5.25,0.13-7.86-0.07c-1.01-0.08-2.35-0.64-2.87-1.43c-2.5-3.78-4.53-7.88-7.19-11.53c-3.18-4.37-7.94-4.13-13.07,0.21
			c-6.94-8.96-19.07-7.89-24.1,0.34c-0.53,0.87-1.91,1.29-2.97,1.74c-2.69,1.14-5.85,1.65-8.01,3.41c-2.39,1.93-4.89,2.52-7.64,3.28
			c-4.67,1.3-9.19,3.15-13.77,4.76c2.8,0.74,5.41,0.9,7.98,0.7c3.28-0.25,5.75,0.24,7.16,3.82c0.54,1.36,2.55,2.31,4.07,3.09
			c4.28,2.19,6.05,7.71,11.38,8.47c0.16,0.02,0.28,0.45,0.39,0.7c4.48,10.01,17.51,8.27,21.56,0.24c0.95-1.89,1.85-1.79,3.81-1.53
			c7.14,0.93,12.62,1.51,16.96-8.7C275.17,123.54,277.24,122.53,279.31,121.05z"/>
		<path class="st12" d="M230.31,232.85c10.47,6.09,21.39,11.32,33.13,14.31c11.42,2.91,22.99,5.6,34.66,7.09
			c14.06,1.79,28.3,2.22,42.84,3.4c-2.13,3.95-4.28,8.04-7.22,11.45c-4.33,5.03-9.21,9.58-13.9,14.6
			c-6.53-0.54-13.12-0.91-19.49-2.28c-9.42-2.03-18.66-4.9-28.04-7.13c-2.16-0.51-2.32-1.45-1.95-3.07c0.42-1.88-1.3-4.54,2.17-5.33
			c2.84-0.65,5.6-1.67,8.26-3.28c-2.96,0-5.91-0.03-8.87,0.01c-1.71,0.02-2.71-0.13-3.52-2.28c-1.56-4.19-5.28-5.78-9.64-4.7
			c-1.82,0.45-2.53,0.03-3.6-1.46c-1.77-2.45-4.19-3.87-7.47-2.23c-0.75,0.37-1.98,0.09-2.88-0.21c-3.46-1.15-6.74-1.38-9.33,1.71
			c-1.28,1.53-2.51,1.76-4.16,0.72c-26.99-16.89-53.42-34.6-76.56-56.64c-7.67-7.31-14.49-15.51-21.63-23.81
			c0.41-2.23,0.52-4.04,1.14-5.66c3.63-9.47,7.38-18.9,11.33-28.22c0.72,0.61,1.21,1.09,1.69,1.58
			c15.26,15.79,30.52,31.59,45.81,47.36c0.77,0.79,1.83,1.29,2.75,1.93c0.14-1.02,0.39-2.04,0.39-3.05
			c0.03-3.55-0.03-7.1-0.06-10.65c11.8,8.49,23.41,17.28,35.45,25.41c18.17,12.28,37.65,22.21,58.43,29.22
			c12.72,4.29,25.8,7.6,38.8,10.99c5.34,1.39,10.93,1.85,16.41,2.73c-0.03,0.35-0.05,0.7-0.08,1.05c-10.72,0-21.47,0.47-32.16-0.13
			c-10.34-0.58-20.73-1.66-30.88-3.65c-9.57-1.87-18.92-5.03-28.26-7.96c-6.73-2.11-13.28-4.79-19.97-7.66
			c3.86-2.2,7.78-3.94,12.4-6.01c-24.74-7.98-48.74-15.71-72.73-23.45c-0.12,0.26-0.23,0.52-0.35,0.77
			c19.56,16.21,39.12,32.42,58.93,48.84C231.48,242.03,230.89,237.44,230.31,232.85z"/>
		<path class="st13" d="M130.98,191.32c14.65,19.38,31.92,36.46,50.6,52.19c4.74,3.99,9.7,7.72,14.38,12.39
			c-1.39-0.08-2.77-0.15-4.16-0.25c-7.17-0.51-12.33,2.62-15.67,8.83c-1.22,2.27-2.32,3.51-5.34,2.57
			c-4.11-1.29-8.08,0.17-12.06,2.19c-2.92-3.01-5.84-5.8-8.1-9.04c-9.72-13.92-15.5-29.55-18.4-46.13
			C130.94,206.73,131.29,199.12,130.98,191.32z"/>
		<path class="st13" d="M202.85,301.54c0.08-3.31,2.22-2.82,4.11-2.5c7.25,1.22,11.49-0.65,15.25-6.48
			c0.63-0.97,2.27-1.94,3.36-1.85c4.43,0.35,7.33-1.57,9.18-5.36c0.75-1.54,1.42-2.32,3.35-1.35c13.41,6.77,26.89,13.43,40.42,20.41
			c-2.79,1.33-5.58,2.71-8.54,3.34c-12.95,2.74-26.15,3.51-39.15,1.55C221.37,307.86,212.23,304.39,202.85,301.54z"/>
		<path class="st14" d="M359.89,181.09c10.82,8.26,20.86,17.21,27.85,28.99c1.41,2.38,2.33,5.15,3,7.86
			c1.67,6.77-1.42,10.94-8.56,10.77c-5.68-0.13-11.34-1.24-16.98-2.13c-2.8-0.44-5.53-1.35-8.53-2.26
			c0.99-7.56,2.71-14.87,3.3-22.27c0.49-6.2-0.34-12.51-0.56-18.78C359.38,182.62,359.54,181.95,359.89,181.09z"/>
		<g>
			<path class="st15" d="M217.03,83.59c-6.34,2.52-12.88,4.79-20.01,6.94c-10.86-7.63-22.15-12.66-34.67-15.24
				c-12.25-2.52-24.02-2.14-35.26,3.74c-9.4,4.92-15.25,12.8-18.13,22.84c-3.05,10.64-1.18,21.25,1.88,31.45
				c4.46,14.9,11.85,28.41,22.03,40.63c7.34,8.04,14.15,16.25,21.83,23.56c23.15,22.04,49.57,39.75,76.56,56.64
				c1.65,1.04,2.88,0.81,4.16-0.72c2.59-3.09,5.87-2.86,9.33-1.71c0.9,0.3,2.14,0.59,2.88,0.21c3.28-1.64,5.7-0.22,7.47,2.23
				c1.07,1.49,1.79,1.91,3.6,1.46c4.36-1.08,8.08,0.51,9.64,4.7c0.8,2.15,1.8,2.3,3.52,2.28c2.96-0.04,5.91-0.01,8.87-0.01
				c-2.66,1.61-5.41,2.63-8.26,3.28c-3.46,0.79-1.74,3.46-2.17,5.33c-0.37,1.62-0.21,2.56,1.95,3.07c9.38,2.23,18.62,5.1,28.04,7.13
				c6.37,1.37,12.95,1.73,19.44,2.55c9.56,0.21,19.15,0.98,28.66,0.44c8.24-0.46,16.42-2.25,24.57-3.79
				c3.81-0.72,7.47-2.23,11.42-3.45c-4.39,11.9-32.08,26.21-52.85,27.86c6.49,3.01,13.3,5.05,20.39,6.14
				c7.05,1.08,14.13,2,21.34,3.59c-1.18,0.39-2.34,0.99-3.55,1.14c-14.56,1.82-29.04,2.7-43.75,0.61
				c-15.55-2.22-30.56-5.99-45.11-11.8c-0.47-0.19-1.08-0.01-2.04-0.3c-13.86-6.99-27.33-13.65-40.75-20.41
				c-1.92-0.97-2.59-0.19-3.35,1.35c-1.85,3.79-4.75,5.71-9.18,5.36c-1.09-0.09-2.73,0.88-3.36,1.85c-3.76,5.83-7.99,7.7-15.25,6.48
				c-1.88-0.32-4.02-0.81-4.21,2.22c-1.63,1.07-3.17,2.33-4.9,3.19c-7.39,3.69-14.52,1.87-19.47-5.3c-1.1-1.6-1.08-1.35-2.67-0.63
				c-8.33,3.79-17.73,2.63-21.51-6.98c-0.85-2.16-1.97-2.81-4.18-2.63c-7.36,0.61-14.74,1.07-22.14,1.59
				c0.99-4.22,3.75-5.95,9.78-6.52c4.61-0.44,9.22-0.98,13.77-1.79c0.94-0.17,1.86-1.6,2.39-2.65c1.62-3.19,3.04-6.48,4.87-10.02
				c4.02-2.32,7.98-3.78,12.1-2.49c3.02,0.95,4.13-0.3,5.34-2.57c3.34-6.21,8.5-9.34,15.67-8.83c1.38,0.1,2.77,0.17,4.16,0.25
				c-4.68-4.66-9.64-8.39-14.38-12.39c-18.67-15.73-35.95-32.81-50.51-52.5c-6-10.35-12.45-20.46-17.88-31.1
				c-6.17-12.09-10.63-25.07-12.21-38.51c-2.9-24.8,6.34-45.77,33.14-55.18c7.76-2.72,16.02-3.31,24.28-2.8
				C179.69,64.74,198.82,72.42,217.03,83.59z"/>
			<path id="_x3C_Compound_Path_x3E_" class="st15" d="M247.54,169.39c20.28,16.78,42,31.33,66.49,41.19
				c12.3,4.95,25.1,8.69,37.7,12.91c1.27,0.43,2.69,0.41,4.61,0.83c3.33,0.93,6.06,1.83,8.86,2.27c5.64,0.88,11.31,1.99,16.98,2.13
				c7.14,0.17,10.23-4,8.56-10.77c-0.67-2.71-1.58-5.48-3-7.86c-6.99-11.78-17.03-20.73-27.57-29.19c-0.58-2.07-1.21-4.13-1.74-6.21
				c-0.44-1.74-1.16-2.4-2.79-1.08c-3.88,3.13-8.36,4.36-13.33,4.24c-0.93-0.02-1.97,0.86-2.82,1.49c-2.11,1.58-4.14,3.26-6.21,4.88
				c-0.99,0.77-2.57,1.29-2.95,2.28c-2.3,6.02-9.18,8.57-16.59,5.69c-3.81-1.48-8.3-1.69-10.85-5.76c-0.24-0.38-2.19,0.23-3.31,0.5
				c-4.04,0.99-7.96,1.41-11.91-0.61c-4.74-2.43-6.98-6.45-7.37-11.45c-0.19-2.41-0.99-3.01-3.19-2.91
				c-3.09,0.14-6.19,0.03-9.43-0.7c3.92-1.28,7.79-2.74,11.77-3.78c2.08-0.54,2.51-1.57,2.42-3.44
				c-0.5-10.28,7.98-16.13,15.52-16.84c1.41-0.13,3.14-1.05,3.99-2.17c4.41-5.82,12.72-7.07,19.39-2.37c1,0.71,2.87,1.18,3.87,0.72
				c4.75-2.15,9.01-0.85,12.75,1.89c2.43,1.79,4.47,3.13,7.57,2.07c1.11-0.38,2.45-0.06,4.05-0.05c2.54,2.41,4.55,3.2,7.63,0.84
				c3.03-2.31,6.16-0.4,9.03,1.33c0.93,0.57,2.08,1.17,3.11,1.13c3.42-0.13,6.69-0.46,9.25,2.72c0.6,0.75,2.55,0.41,3.88,0.56
				c2.71,0.3,5.41,0.59,8.15,1.37c-3.09,0.68-6.21,1.25-9.24,2.11c-1.23,0.35-2.57,1.12-3.35,2.1c-3.59,4.52-7.88,6.64-13.73,5.08
				c-0.69-0.18-2.46,0.9-2.46,1.42c-0.02,1.38,0.21,3.22,1.11,4.09c6.82,6.6,14.23,12.65,20.66,19.59
				c6.69,7.23,12.31,15.47,15.11,25.11c3.76,12.99,0.15,27.36-14.08,34.54c-8.84,4.46-18.54,5.87-28.31,6.73
				c-4.62,0.41-9.22,1.01-14.51,1.49c-14.84-1.05-29.08-1.48-43.15-3.27c-11.67-1.49-23.24-4.18-34.66-7.09
				c-11.73-2.99-22.65-8.22-33.21-14.48c-1.46-4.83-1.46-4.83,3.43-5.44c6.91,2.62,13.46,5.3,20.2,7.41
				c9.34,2.93,18.68,6.09,28.26,7.96c10.15,1.99,20.54,3.07,30.88,3.65c10.69,0.6,21.44,0.13,32.16,0.13
				c0.03-0.35,0.05-0.7,0.08-1.05c-5.48-0.88-11.07-1.34-16.41-2.73c-13.01-3.39-26.08-6.7-38.8-10.99
				c-20.78-7.01-40.26-16.95-58.43-29.22c-12.04-8.13-23.65-16.92-35.53-25.65c-0.76-1.73-1.4-3.2,1.29-3.1
				c1.23,0.04,2.45,0.02,3.68,0.02c5.39,3.59,10.74,7.25,16.18,10.77c16.32,10.58,33.16,20.28,51.41,27.1
				c11.29,4.22,22.96,7.47,34.57,10.76c6.8,1.93,13.81,3.13,20.75,4.55c1.69,0.35,3.47,0.24,5.38-0.12
				c-31.46-12.77-60.68-29.25-87.34-51.13C241.21,168.93,241.21,168.93,247.54,169.39z"/>
			<path class="st16" d="M323.82,111.59c-3.16,0.24-6.22,0.14-9.27,0.21c-1.16,0.03-2.41,0.23-3.46,0.7
				c-6.19,2.8-11.33,1.28-14.58-4.57c-1.1-1.97-2.38-3.08-4.81-2.98c-2.53,0.1-5.07-0.27-7.61-1.06c0.91-0.12,1.92-0.04,2.73-0.4
				c3.54-1.56,9.65-0.21,8.46-7.36c-0.12-0.72,0.88-1.63,1.4-2.76c3.03-1.84,5.87-4.22,9.5-1.61c0.31,0.22,1.73-0.39,2.01-0.94
				c2.65-5.22,10.15-4.96,12.25,0.39c0.25,0.64,1.52,1.37,2.21,1.29c4.46-0.57,6.55,1.17,5.7,5.57c-0.42,2.16,0.21,2.28,1.88,2.3
				c3.58,0.06,7.16,0.23,10.74,0.35c-0.01,0.3-0.02,0.61-0.04,0.91c-3.02,0.39-6.03,0.85-9.05,1.17c-2.65,0.27-4.55,1.08-5.22,4.11
				C326.3,108.51,324.87,109.86,323.82,111.59z"/>
			<path class="st17" d="M145.3,139.69c-3.71,9.44-7.46,18.87-11.09,28.35c-0.62,1.62-0.73,3.43-1.27,5.41
				c-10.24-11.72-17.63-25.23-22.1-40.13c-3.05-10.2-4.93-20.81-1.88-31.45c2.88-10.04,8.73-17.92,18.13-22.84
				c11.25-5.88,23.02-6.27,35.26-3.74c12.51,2.58,23.81,7.6,34.33,15.24c-2.67,1.93-5.57,3.78-8.53,5.53
				c-16.71,9.87-30.12,23.08-40.23,39.64c-0.28,0.46-0.67,0.86-1.41,1.52c-1.11,0.36-1.82,0.48-2.53,0.6
				C144.42,138.45,144.86,139.07,145.3,139.69z"/>
			<path class="st15" d="M278.99,121.14c-1.75,1.38-3.82,2.4-4.51,4.01c-4.34,10.21-9.82,9.64-16.96,8.7
				c-1.96-0.26-2.86-0.36-3.81,1.53c-4.05,8.03-17.07,9.77-21.56-0.24c-0.11-0.25-0.23-0.67-0.39-0.7
				c-5.33-0.75-7.1-6.28-11.38-8.47c-1.52-0.78-3.54-1.72-4.07-3.09c-1.41-3.58-3.89-4.07-7.16-3.82c-2.58,0.19-5.18,0.04-7.98-0.7
				c4.58-1.62,9.1-3.46,13.77-4.76c2.75-0.77,5.26-1.35,7.64-3.28c2.16-1.76,5.33-2.27,8.01-3.41c1.06-0.45,2.44-0.87,2.97-1.74
				c5.03-8.23,17.16-9.3,24.1-0.34c5.13-4.34,9.9-4.58,13.07-0.21c2.66,3.65,4.69,7.76,7.19,11.53c0.52,0.79,1.86,1.35,2.87,1.43
				c2.6,0.2,5.24,0.07,7.86,0.07c0,0.43,0.01,0.86,0.01,1.29C285.55,119.65,282.43,120.35,278.99,121.14z"/>
			<path class="st18" d="M247.91,169.26c-6.7-0.34-6.7-0.34-6.2,6.24c0.27,3.49,0.46,6.64,0.6,9.78c0.03,0.67-0.08,1.34-0.21,3.18
				c-18.19-18.81-35.78-37-53.37-55.18c0.23-0.35,0.46-0.71,0.69-1.06c23.31,11.89,46.61,23.78,70.96,36.21
				C255.63,168.71,251.95,168.93,247.91,169.26z"/>
			<path class="st19" d="M145.54,139.82c-0.68-0.75-1.12-1.37-1.56-1.99c0.71-0.12,1.42-0.24,2.41-0.33
				c7.55,3.83,14.8,7.71,22.13,11.43c14.43,7.32,28.92,14.54,43.36,21.83c0.53,0.27,0.89,0.9,1.59,1.65
				c-4.22,0.37-8,0.71-12.12,1.15c-1.56,0.1-2.79,0.13-4.02,0.08c-2.69-0.09-2.05,1.37-1.29,3.1c0.11,3.78,0.17,7.33,0.14,10.88
				c-0.01,1.02-0.26,2.04-0.39,3.05c-0.92-0.63-1.99-1.14-2.75-1.93c-15.29-15.77-30.55-31.56-45.81-47.36
				C146.75,140.91,146.26,140.43,145.54,139.82z"/>
			<path class="st18" d="M230.23,232.67c0.67,4.76,1.26,9.35,1.91,14.46c-19.82-16.42-39.38-32.63-58.93-48.84
				c0.12-0.26,0.23-0.52,0.35-0.77c24,7.74,47.99,15.48,72.73,23.45c-4.62,2.06-8.53,3.81-12.68,5.81
				C228.77,227.84,228.77,227.84,230.23,232.67z"/>
		</g>
	</g>
</g>
</svg>
