<?xml version="1.0" encoding="utf-8"?>
<!-- Generator: Adobe Adobe Illustrator 29.2.0, SVG Export Plug-In . SVG Version: 6.00 Build 0)  -->
<svg version="1.1" id="Layer_1" xmlns="http://www.w3.org/2000/svg" xmlns:xlink="http://www.w3.org/1999/xlink" x="0px" y="0px"
	 viewBox="0 0 500 500" style="enable-background:new 0 0 500 500;" xml:space="preserve">
<style type="text/css">
	.st0{fill:#FFCD00;}
	.st1{fill:#FFFFFF;}
	.st2{fill:none;stroke:#BB6125;stroke-width:0.5;stroke-miterlimit:10;}
	.st3{fill:#001689;}
	.st4{fill:#61A60E;}
	.st5{fill:#C10230;}
	.st6{fill:#75391C;}
	.st7{fill:#BB6125;}
	.st8{fill:none;stroke:#2C440A;stroke-width:0.5102;stroke-linecap:round;stroke-linejoin:round;stroke-miterlimit:10;}
	.st9{fill-rule:evenodd;clip-rule:evenodd;fill:#001689;}
</style>
<g>
	<g>
		<g>
			<path class="st0" d="M494.52,290.45c-0.73-5.52-4.55-9.75-7.21-14.43c-13.67-24.14-9.67-35.76-13.86-44.79
				c-5.81-12.53-21.14-13.11-31.72-6.43c-8.21,5.18-13.65,14.91-16.85,25.43c-0.32-1.59-0.65-3.2-1.04-4.8
				c-3.66-14.66-7.24-30.43-8.68-46.53c-5.73-56.92,1.25-102.97,28.17-139.22L393.49,10H108.18L58.34,59.69
				c26.92,36.24,33.89,82.3,28.17,139.22c-1.44,16.1-5.02,31.87-8.68,46.53c-0.4,1.6-0.71,3.21-1.04,4.8
				c-3.2-10.52-8.63-20.26-16.85-25.43c-10.59-6.67-25.9-6.11-31.72,6.43c-4.2,9.03-0.19,20.65-13.86,44.79
				c-2.66,4.68-6.48,8.92-7.21,14.43c-1.25,9.57,5.32,18.76,18.15,26.2c-1.43,6.7-1.1,12.16-0.66,16.37
				c2.1,19.73,14.32,34.12,25.99,44.68c30.07,27.19,64.59,41.82,97.69,53.8c37.03,13.4,78.49,33.19,102.51,56.41
				c24.03-23.22,65.49-43,102.51-56.41c33.11-11.98,67.63-26.62,97.69-53.8c11.67-10.55,23.89-24.95,25.99-44.68
				c0.45-4.21,0.77-9.67-0.66-16.37C489.2,309.22,495.77,300.02,494.52,290.45z"/>
			<g>
				<path class="st1" d="M475.03,311.66c-2.31-7.19-6.7-15.61-14.74-25.3c-6.6-7.95-12.66-15.99-14.84-23.36
					c4.91,2.3,11.25,2.32,16.8-0.91c4.05-2.37,7.72-6.04,10.16-10.49c1.45,6.97,4.17,15.65,10.51,26.85
					c0.77,1.36,1.63,2.69,2.5,4.02c2,3.06,3.73,5.71,4.11,8.62C490.47,298.23,485.22,305.47,475.03,311.66z"/>
				<path class="st1" d="M457.92,258.66c-1.66,0.67-3.42,1.01-5.13,1.01c-2.69,0-5.29-0.81-7.29-2.41c-0.31-0.25-0.6-0.53-0.87-0.81
					c0.27-3.83,2.04-7.38,5.87-10.54L457.92,258.66z"/>
				<path class="st1" d="M250.83,481.16c-28.83-25.86-75.1-45.01-100.79-54.32c-32.6-11.8-66.8-26.36-96.03-52.8
					c-9.49-8.57-22.33-22.21-24.37-41.52c-0.74-6.95-2.28-21.41,15.61-42.99c10.01-12.08,19.51-24.88,16.22-37.02
					c-1.51-5.55-5.45-10.08-11.93-13.75l-10.08,17.29c-4.81-3.86-9.36-10.71-7.92-18.67c0.31-1.52,0.69-2.87,1.25-4.07
					c1.69-3.64,4.44-6.03,8.19-7.12c7.06-2.07,14.79,0.89,19.94,5.75c8.95,8.45,12.7,22.47,13.33,33.82
					c0.28,4.98,0.2,9.97,0.79,14.92c2.3,22.91,13.08,42.95,31.27,56.7c20.99,15.86,45.64,24.69,69.47,33.23
					c28.15,10.09,50.49,20.15,75.07,43.58c24.58-23.43,46.92-33.49,75.07-43.58c23.84-8.54,48.48-17.37,69.47-33.23
					c18.2-13.75,28.97-33.79,31.27-56.7c0.59-4.96,0.51-9.95,0.79-14.92c0.62-11.35,4.37-25.37,13.33-33.82
					c5.16-4.87,12.88-7.81,19.94-5.75c3.75,1.1,6.51,3.5,8.19,7.12c0.56,1.21,0.94,2.56,1.25,4.07c1.44,7.95-3.11,14.81-7.92,18.67
					l-10.08-17.29c-6.48,3.66-10.42,8.2-11.93,13.75c-3.29,12.14,6.21,24.94,16.22,37.02c17.89,21.58,16.35,36.04,15.61,42.99
					c-2.05,19.3-14.9,32.95-24.37,41.52c-29.23,26.44-63.43,41-96.03,52.8C325.94,436.14,279.66,455.29,250.83,481.16L250.83,481.16
					z"/>
				<path class="st1" d="M12.13,291.1c0.38-2.9,2.11-5.55,4.11-8.62c0.87-1.33,1.73-2.66,2.5-4.02c6.34-11.2,9.07-19.89,10.51-26.85
					c2.43,4.45,6.1,8.12,10.16,10.49c5.55,3.23,11.89,3.21,16.8,0.91c-2.19,7.38-8.25,15.4-14.84,23.36
					c-8.04,9.69-12.42,18.11-14.74,25.3C16.44,305.47,11.19,298.23,12.13,291.1z"/>
				<path class="st1" d="M51.16,245.9c3.83,3.18,5.6,6.73,5.87,10.54c-0.27,0.28-0.55,0.55-0.87,0.81c-2.01,1.6-4.61,2.41-7.29,2.41
					c-1.72,0-3.48-0.34-5.13-1.01L51.16,245.9z"/>
			</g>
			<g>
				<path class="st2" d="M494.52,290.45c-0.73-5.52-4.55-9.75-7.21-14.43c-13.67-24.14-9.67-35.76-13.86-44.79
					c-5.81-12.53-21.14-13.11-31.72-6.43c-8.21,5.18-13.65,14.91-16.85,25.43c-0.32-1.59-0.65-3.2-1.04-4.8
					c-3.66-14.66-7.24-30.43-8.68-46.53c-5.73-56.92,1.25-102.97,28.17-139.22L393.49,10H108.18L58.34,59.69
					c26.92,36.24,33.89,82.3,28.17,139.22c-1.44,16.1-5.02,31.87-8.68,46.53c-0.4,1.6-0.71,3.21-1.04,4.8
					c-3.2-10.52-8.63-20.26-16.85-25.43c-10.59-6.67-25.9-6.11-31.72,6.43c-4.2,9.03-0.19,20.65-13.86,44.79
					c-2.66,4.68-6.48,8.92-7.21,14.43c-1.25,9.57,5.32,18.76,18.15,26.2c-1.43,6.7-1.1,12.16-0.66,16.37
					c2.1,19.73,14.32,34.12,25.99,44.68c30.07,27.19,64.59,41.82,97.69,53.8c37.03,13.4,78.49,33.19,102.51,56.41
					c24.03-23.22,65.49-43,102.51-56.41c33.11-11.98,67.63-26.62,97.69-53.8c11.67-10.55,23.89-24.95,25.99-44.68
					c0.45-4.21,0.77-9.67-0.66-16.37C489.2,309.22,495.77,300.02,494.52,290.45z"/>
				<g>
					<path class="st2" d="M12.13,291.1c0.38-2.9,2.11-5.55,4.11-8.62c0.87-1.33,1.73-2.66,2.5-4.02
						c6.34-11.2,9.07-19.89,10.51-26.85c2.43,4.45,6.1,8.12,10.16,10.49c5.55,3.23,11.89,3.21,16.8,0.91
						c-2.19,7.38-8.25,15.4-14.84,23.36c-8.04,9.69-12.42,18.11-14.74,25.3C16.44,305.47,11.19,298.23,12.13,291.1z"/>
					<path class="st2" d="M43.73,258.66l7.43-12.76c3.83,3.18,5.6,6.73,5.87,10.54c-0.27,0.28-0.55,0.55-0.87,0.81
						c-2.01,1.6-4.61,2.41-7.29,2.41C47.15,259.68,45.39,259.34,43.73,258.66z"/>
					<path class="st2" d="M472.03,332.52c-2.05,19.3-14.9,32.95-24.37,41.52c-29.23,26.44-63.43,41-96.03,52.8
						c-25.69,9.29-71.96,28.45-100.79,54.32l0,0c-28.83-25.86-75.1-45.01-100.79-54.32c-32.6-11.8-66.8-26.36-96.03-52.8
						c-9.49-8.57-22.33-22.21-24.37-41.52c-0.74-6.95-2.28-21.41,15.61-42.99c10.01-12.08,19.51-24.88,16.22-37.02
						c-1.51-5.55-5.45-10.08-11.93-13.75l-10.08,17.29c-4.81-3.86-9.36-10.71-7.92-18.67c0.31-1.52,0.69-2.87,1.25-4.07
						c1.69-3.64,4.44-6.03,8.19-7.12c7.06-2.07,14.79,0.89,19.94,5.75c8.95,8.45,12.7,22.47,13.33,33.82
						c0.28,4.98,0.2,9.97,0.79,14.92c2.3,22.91,13.08,42.95,31.27,56.7c20.99,15.86,45.64,24.69,69.47,33.23
						c28.15,10.09,50.49,20.15,75.07,43.58c24.58-23.43,46.92-33.49,75.07-43.58c23.84-8.54,48.48-17.37,69.47-33.23
						c18.2-13.75,28.97-33.79,31.27-56.7c0.59-4.96,0.51-9.95,0.79-14.92c0.62-11.35,4.37-25.37,13.33-33.82
						c5.16-4.87,12.88-7.81,19.94-5.75c3.75,1.1,6.51,3.5,8.19,7.12c0.56,1.21,0.94,2.56,1.25,4.07c1.44,7.95-3.11,14.81-7.92,18.67
						l-10.08-17.29c-6.48,3.66-10.42,8.2-11.93,13.75c-3.29,12.14,6.21,24.94,16.22,37.02C474.31,311.1,472.77,325.56,472.03,332.52
						z"/>
					<path class="st2" d="M457.92,258.66c-1.66,0.67-3.42,1.01-5.13,1.01c-2.69,0-5.29-0.81-7.29-2.41
						c-0.31-0.25-0.6-0.53-0.87-0.81c0.27-3.83,2.04-7.38,5.87-10.54L457.92,258.66z"/>
					<path class="st2" d="M475.03,311.66c-2.31-7.19-6.7-15.61-14.74-25.3c-6.6-7.95-12.66-15.99-14.84-23.36
						c4.91,2.3,11.25,2.32,16.8-0.91c4.05-2.37,7.72-6.04,10.16-10.49c1.45,6.97,4.17,15.65,10.51,26.85
						c0.77,1.36,1.63,2.69,2.5,4.02c2,3.06,3.73,5.71,4.11,8.62C490.47,298.23,485.22,305.47,475.03,311.66z"/>
				</g>
			</g>
		</g>
		<path class="st3" d="M87.58,247.83c3.92-15.78,7.47-31.74,8.92-47.91c4.65-46.35,2.19-99.31-25.18-139.02l41.04-40.92H389.3
			l41.04,40.92c-27.37,39.7-29.83,92.66-25.18,139.02c1.45,16.18,5,32.15,8.92,47.91c7.69,30.73,1.1,62.06-24.8,81.63
			c-21.33,16.15-47.35,24.8-72.29,33.77c-23.92,8.63-47.33,20.2-66.15,37.41c-18.83-17.21-42.23-28.79-66.15-37.41
			c-24.9-8.97-50.97-17.62-72.29-33.77C86.48,309.88,79.89,278.56,87.58,247.83L87.58,247.83z"/>
		<path class="st1" d="M250.83,381.94c18.28-14.14,39.45-24.27,61.22-32.12c23.31-8.41,48.63-16.65,68.53-31.71
			c21.35-16.15,25.75-42.12,19.55-66.89c-4.12-16.43-7.62-33.09-9.27-49.98c-4.52-46.13-2.24-97.12,21.26-138.33l-28.79-28.7H118.34
			l-28.79,28.7c23.5,41.21,25.78,92.2,21.26,138.33c-1.64,16.9-5.16,33.55-9.27,49.98c-6.21,24.77-1.81,50.73,19.55,66.89
			c19.9,15.06,45.21,23.3,68.53,31.71C211.38,357.67,232.55,367.81,250.83,381.94L250.83,381.94z"/>
		<path class="st4" d="M200.22,200.95c-6.67-1.54-13.16-2.67-19.83-4.2c-1.48-2.63-2.59-2.29-3.9-3.42
			c1.17,1.47,0.88,2.48,1.33,3.73c-2.76-3.16-4.21-2.7-6.83-4.96c0.95,1.57,2.5,2.73,2.85,4.65c-2.09-1.38-4.21-2.75-6.29-4.14
			c0.88,1.38,1.77,2.75,2.62,4.14c-5-4.1-6.17-3.11-9.27-4.65c2.38,1.69,4.14,3.69,5.73,5.71c-2.5-1.16-4.78-2.41-7.85-2.98
			c2.15,1.1,3.79,2.67,4.97,4.55c-4.02-1.23-8.29-1.38-12.12-3.64c1.17,2.51,2.78,3.3,4.17,4.96c-1.86-1.44-4.05-2.6-6.74-3.32
			c1.17,1.25,2.5,2.38,2.57,4.33c-1.4-1.73-3.95-2.98-7.75-3.73c1.48,1.85,3.16,3.42,3.1,5.18c-2.34-2.94-4.78-2-7.09-3.16
			c1.05,1.13,2.34,2.36,3.38,3.45c-3-1.23-6.02-0.85-8.89-1.23c1.67,0.87,3.35,1.76,5,2.63c-3.16-0.66-4.69,0.82-7.02,1.23
			c2.57-0.03,4.55,0.53,5.92,1.73c-2.95-0.63-6.14-0.69-9.78,0.29c3.42,0.44,4.27,1.73,6.14,2.7c-2.81-1.23-6.55-0.75-10-0.72
			c1.02,0.56,1.74,0.91,2.72,1.47c-4.12-0.69-5.88,1.54-8.71,3.16c3.52-1.6,6.42-1.01,9.93-1.57c-2.09,1.1-3.95,1.04-5.85,3.11
			c1.83-0.29,3.6-0.66,5.45-0.91c-4.5,2.51-3.98,3.98-6.02,5.86c2.59-1.57,4.52-1.42,6.64-2.38c-0.48,1.35-1.26,2.19-1.74,3.54
			c1.81-1.79,4.08-2.17,6.29-3.26c-1.52,1.32-2,3.2-3,4.83c1.52-1.85,3.79-2.19,5.54-3.2c1.86,0.6,3.35,0.34,5.22-0.31
			c-0.69,0.72-1.43,1.42-2.15,2.14c2.69-0.34,5.38-1.19,8.07-2c-0.6,0.82-1.43,1.47-2.66,1.81c0.41,0.03,1.4-0.12,1.77-0.1
			c2.15-0.29,3.1-0.12,4.36-0.03c1.07-0.31,1.74-0.91,2.34-1.6c-0.29,0.69-0.57,1.42-0.83,2.1c2.95,0.44,5.38-0.82,9.49-0.5
			c-0.26,0.5-0.57,0.75-0.83,1.25c1.45,0.6,3.64,0.63,5.69,0.38c4.21-1.42,8-1.13,11.83-0.91c1.55-0.82,1.14-1.66,4.69-2.41
			c0.12,0.85,0.69,0.85,1.02,1.28c2.62-1.95,5.35-1.79,8.07-1.28c-1.29,0.07-1.96,0.66-2.15,1.69c4.62-0.34,9.08-0.82,12.97-1.91
			c-0.38,0.87-1.24,1.54-1.86,2.04c3.1-0.1,5.95-0.12,9.05-0.22c0.5-1.42,2.57-1.23,3.52-1.81c1.1,0.97,2.85,0.72,4.71,0.85
			c0.12,0.82-0.57,1.57,2.12,1.47c3.04-1.04,6.04-1.88,9.49-1.57c1.77,0.12,4.21-0.63,5.38,0.38c0.98,1.35,5.98-0.07,10.31-1.04
			c3.83-0.6,5.5-0.44,5.07,0.53c-0.6,1.54,4.43,0.63,8.16,0.29c3.33-0.44,5.66-0.85,5.5,1.04c2.47-0.34,3.73-0.38,4.84,0.87
			c2.09,0.12,5.5,1.6,7.62,0.82c1.21-0.94,4.21-0.34,6.29-0.75c1.1-0.41,2.19-1.25,3.26-1.66c5.26-0.48,7.02-0.34,6.23,1.25
			c4.74,0.1,10.06,0.03,14.78,0.12c2.12-0.03,5.16-1.23,6.33,0.12c1.48,1.01,5.45,0,9.46-0.63c3.19-0.94,4.36-0.07,6.17,0.72
			c2.69,0.72,5.03,0.97,9.55,0.63c0.92-0.87,1.71-1.57,0.64-2.32l6.14,0.15c1.4,0.19,2.47,2.44,3.71,0.34
			c2.57-0.82,7.05,0.1,6.58-2.07c2.05-0.75,2.31,0.07,2.66,1.66c1.43,0.22,4.02,1.01,4.74,0.29c2.05-0.22,4.27-0.87,4.69,0.91
			c-1.05-1.73-0.1-2.67-0.69-4.24c0.86,1.28,1.86,1.98,2.72,3.26c-0.19-1.5-0.6-2.38-0.79-3.86c1.71,1.95,2.78,1.25,5.09,4.24
			c-0.26-1.28-1.02-1.73-0.83-3.83c2.43,1.16,3.19,2.19,4.02,3.39c0.35-2.92-1.43-3.39-1.1-6.46c1.64,1.13,2.72,1.91,4.33,3.08
			c-1.48-2.07-2.24-4.29-4.24-5.9c2.38-0.69,4.43-0.91,6.67-0.48c-2-1.57-4.27-2.67-7.02-3.13c1.17-1.06,3.07-1.66,5-2.22
			c-1.55-0.25-2.76-0.87-4.84-0.63c1.29-2.1,4.43-2.82,6.64-4.24c-4.02,0.72-5.76-0.44-11.1,1.81c1.17-1.06,1.48-2.48,3.26-3.26
			c-0.98-0.07-3.35,0.03-4.9,0.79c-0.73-1.32,2.02-2.57,4.52-3.79c-1.86-0.15-3.73-0.15-5.6,0.41c0.69-1.32,1.64-2.38,2.95-3.23
			c-2-0.19-3.76,0.29-5.28,1.42c0.98-2.48,2.72-4.2,5.07-5.8c-3.67,2.1-6.52,2.14-10.38,5.61c0.41-0.6,0.6-0.94,1.14-1.42
			c0.45-1.91,1.33-2.85,2.78-4.7c-2.97,2-6.52,2.22-9.43,4.99c1.4-2.73,2.69-4.67,4.08-7.4c-3.07,2.38-5.35,3.35-8.6,7.68
			c0.48-3.01,1.71-3.76,2.91-6.15c-3.29,2.38-6.48,1.73-10.09,6.49c1.45-2.44,1.83-5.08,3.92-7.06c-3.29,1.25-4.52,3.48-6.17,5.93
			c0.22-1.91,0.48-3.51,0.69-5.42c-3.6,7.9-15.54,7.3-24.14,10.29c-2.15-1.38-2.78-3.61-3.07-7.9c-1.02,1.79-2.31,2.89-3.33,4.67
			c-0.38-1.98-0.26-3.76-1.02-5.71c-0.88,2.22-2.59,3.35-3.73,5.21c-0.22-2.14-0.31-3.48-0.57-5.59c-0.83,1.98-1.62,3.23-2.43,5.21
			c-0.76-3.98-3.26-4.46-3.67-7.59c-0.26,2.67,0.73,6.99-1.26,7.66c-0.35-1.57-0.41-2.67-0.73-4.24c0,2.63-0.29,4.58-1.71,6.84
			c-0.92-2.51-1.43-4.73-2.34-7.25c-0.19,2.73,0.35,5.27-0.86,7.68c-2.81-5.33-8.92-6.02-13.54-9.31
			c-4.52,3.32-9.02,6.62-13.54,9.91c0.03-1.6-0.41-2.92,0.1-4.86c-1.07,1.5-2.34,2.29-3.57,3.26c0.5-1.79,1.02-3.57,1.55-5.37
			c-1.45,2.07-2.81,1.91-4.02,4.17c0.48-2.7,1.05-4.39,1.52-7.09c-2.66,3.88-5.54,4.8-8.42,6.65c-5.79,0.72-11.55,1.42-17.33,2.14
			c-0.19-1.98-0.12-2.92-0.35-4.86c-0.57,1.16-1.43,1.35-2,2.54c0.76-2.17,0.54-3.64,2.38-6.21c-2.81,2-2.5,2.73-3.76,4.29
			c-0.12-4.8-1.81-5.9-2.5-8.82c0.31,4.36-0.64,5.59-0.73,9.35c-1.21-1.06-1.07-3.76-2.76-5.45c0.38,2.63-0.64,4.8,0.45,7.43
			c-1.33-2.75-2.76-4.89-4.08-7.66c0.19,2.82-0.64,5.61,0.6,7.84c-1.21-1.79-2.5-2.6-3.71-4.39c0.5,2.44,0.88,3.48,1.4,5.9
			c-1.36-2-2.19-2.7-3.54-4.73c0.45,2.38,0.16,3.98,0.98,6.17c-3.83-3.73-4.93-3.48-9.65-6.93
			C207.84,196.11,201.63,196.64,200.22,200.95L200.22,200.95z"/>
		<path class="st5" d="M266.68,282.7c1.55-1.85,2.43-3.98,2.43-6.27c0-6.87-8-12.45-17.9-12.45c-9.87,0-18.45,5.59-18.45,12.45
			c0,2,0.67,3.88,1.83,5.59c1.45,1.81,2.31,3.92,2.31,6.15c0,6.9-8.04,12.45-17.9,12.45s-18.45-5.55-18.45-12.45
			c0-3.32,0.48-4.17,1.4-5.61c1.4-1.63,2.31-3.79,2.31-6.12c0-6.87-8-12.45-17.9-12.45c-9.87,0-17.88,5.59-17.88,12.45
			c0,2.51,1.05,4.83,3.04,7.81c0.5,1.98,0.67,2.94,0.67,3.92c0,6.9-8.57,12.45-18.47,12.45c-9.87,0-17.88-5.55-17.88-12.45
			c0-2.22,0.86-4.33,2.31-6.15c1.17-1.69,1.83-3.57,1.83-5.59c0-6.87-8-12.45-17.9-12.45c-9.87,0-17.88,5.59-17.88,12.45
			c0,2.29,0.88,4.43,2.09,5.86c1.24,1.44,2.12,3.61,2.12,5.86c0,6.68-8.52,12.7-18.38,12.39c4.46,11.04,11.8,20.95,22.37,28.92
			c21.33,16.15,47.39,24.8,72.29,33.77c23.92,8.63,47.33,20.2,66.15,37.41c18.83-17.21,42.23-28.79,66.15-37.41
			c24.93-8.97,50.97-17.62,72.29-33.77c10.95-8.25,18.45-18.6,22.87-30.14c-8.76-0.38-16.17-4.55-17.37-11.16
			c0-0.97-0.29-2.48,0.54-4.89c2-2.98,3.16-4.33,3.16-6.84c0-6.87-8-12.45-17.88-12.45c-9.9,0-17.9,5.59-17.9,12.45
			c0,2.32,0.76,4.36,2.15,5.99c0.92,1.44,1.45,2.79,1.55,5.74c0,6.9-8.57,12.45-18.45,12.45c-9.9,0-17.9-5.55-17.9-12.45
			c0-2.22,0.86-4.33,2.31-6.15c1.17-1.69,1.83-3.57,1.83-5.59c0-6.87-8.57-12.45-18.45-12.45c-9.9,0-17.9,5.59-17.9,12.45
			c0,2.29,1.24,4.36,2.05,5.8c0.83,1.44,1.36,3.67,1.36,5.93c0,6.9-8,12.45-17.9,12.45c-9.87,0-17.88-5.55-17.88-12.45
			C265.48,286.17,265.51,284.39,266.68,282.7L266.68,282.7z"/>
		<path class="st6" d="M315.34,195.99c-0.76-0.07-2.76,1.25-4.17,2.32c-1.02,0.79-1.74,0.91-1.43,1.79
			c-1.33,0.29-1.45,1.66-1.86,2.19c1.02-0.25,1.67-0.15,2.47,0.03c-0.67,1.6-2.24,2.36-2.28,4.61c1.67-0.69,3.95-0.34,6.26-0.79
			c-0.95,0.91-1.24,2.19-1.02,3.01c2.31-1.13,2.97-1.69,4.59-1.76c2.28,0.31,3.98,0.5,6.48,0.25c2.59-0.12,5.5-0.25,6.8-0.66
			c2.43-0.12,4.78-2.67,6.17-4.24c3.64-3.69,3.19-14.51,2.47-18.69c-0.45-3.73-4.52-6.05-3.76-10.82c0.67,0.41,1.02,2.29,1.74,3.32
			c1.48-2.51-0.31-2.19-0.86-6.93c-1.05-6.05-2.19-7.59-4.4-10.89c-0.41-0.63,3.48,3.83,3.1,3.13c-0.76-5.42-3.86-9.85-3.64-16.12
			c0.22-10.19-3.04-13.04-5.73-17.66c-0.64-1.1,3.35-0.34,3.04-1.06c-1.52-1.98-7.59-4.86-11.17-7.15
			c-0.86-1.23,4.84-0.41,3.45-1.42c-2.38-1.69-5.73-2.92-10.69-3.13c-0.95-0.79,6.23-0.82,5.09-1.47
			c-9.62-5.27-15.81-4.2-23.23-5.23c-5.69-0.82-11.86-1.38-18.38,0.12c-6.8,0.66-7.91,2.32-12.34,2.14
			c-1.17-0.07,1.05-0.91,2.02-2.54c-5.64,0.1-8.79,2.26-10.31,1.88c-1.55-0.34,0.22-1.35,2-2.57c-1.86-0.5-2.28,0.75-7.09,0.38
			c-1.21-0.56,3.45-0.94,2.15-1.38c-1.26-0.48-5.31,0.82-6.64,0.48c-1.33-0.31,5.22-1.85,3.86-2.04
			c-1.36-0.15-10.19-0.34-11.57-0.31c-11.9,0.31-9.62,2.44-19.87,5.37c-4.08,0.72-8.14,3.64-9.14,4.08
			c-6.58,2.92-12.81,4.27-25.97,16.12c-1.58-3.26-0.5-3.92-5.38-3.32c-1.62,0.5-5.5,2.07-5.88,4.61c-3.04,0.03-7.28,3.08-6.36,9.72
			c-1.05-0.38-0.95,3.13-4.27,4.36c-1.24,1.63-0.31,1.04-0.57,2.7c-0.86,1.54-0.5,4.61-0.41,5.18c-3.35,2.63-4.59,6.93-7.66,9.54
			c-1.21,0.6-2.72,1.98-3.52,3.11c-0.41,0.79,0.45,2.17,1.14,2.82c1.07,1.63,1.02,1.42,3.19,1.79c1.45,2.44,2.43,4.7,5.64,4.24
			c4.17-1.19,5.16-4.7,7.72-5.02c-1.1,1.95-4.88,5.59-5.64,6.21c-0.69,2.04,1.67,2.32,2.38,2.48c0.57,0.1,1.05,0.1,1.43,0.03
			c0.29-0.03-0.79-0.38-0.6-0.44c0.41-0.15,0.92,0.19,1.43,0c0.35-0.12,0.29-0.56,0.67-0.79c0.29-0.15,0.88,0.38,1.29,0.25
			c0.5-0.19,0.86-1.04,1.29-1.19c1.17-1.35,2.4-0.87,3.76-2.32c0.86,2.7-0.92,2.98-0.79,4.8c0.48-0.66,0.95,0.48,4.71-3.26
			c-0.83,2.44-1.07,4.14-0.69,3.83c0.1-0.34,2.05-1.13,4.08-3.69c0.57-0.15-0.79,2.94-0.26,2.75c-0.16-0.48,4.71-4.89,6.96-6.36
			c2.43-1.04,2.21-3.61,3-2.92c0.95,0.12,1.26-0.25,2.38,0.22c0.54-0.07,1.4,0.1,1.67-0.82c-0.1-0.48-0.12-0.85,1.86-0.97
			c0.45-0.41,0.76-0.63,1.17-1.04c0.45-0.87,1.26-1.06,2-0.38c1.26,0.03,0.5,3.04,1.21,3.39c0.35-0.1,0.6,4.39,0.92,4.27
			c-2.81,3.23-4.14,9.4-8.52,14.02c-5.12,4.08-0.1,1.6-10.76,7.93c-3.14,3.39-9.4,5.14-12.24,6.24c-4.5,0.41-9.17,5.86-9.24,7.62
			c1.55,0.12,2.47-1.23,2.59,0.03c-0.98,0.44-1.81,0.94-2.19,2.14c1.58,2.07,3.33,1.66,6.36,0c0,0.34-0.69,1.01-0.1,1.85
			c0.6,0.31,2.72,1.16,5.26-0.34c3.29-0.66,9.08,0.72,9.49,0.72c2.59,1.38,6.45-2.82,7.34-2.75c0.26-1.1,5.54-3.3,6.77-3.51
			c0.48-0.25-0.73,1.73-0.26,1.47c0.41,0.29,5.5-2.38,9.62-6.05c2.69-1.54,4.93-1.98,5.64-3.57c0.45-0.25,3.42-2.1,4.97-3.98
			c5.47-5.55,10.98-11.07,15.28-17.74c2.34,2.73,4.52,5.71,7.72,6.68c1.14,0.66,2.24,1.35,3.38,2c-0.26,1.25,0.73,1.81,0.19,2.7
			c-1.45,1.76-2.91,3.48-4.4,5.23c0.29-0.34-2.97,2.19-2.78,1.85c0.19-0.31-1.93,0.25-2.95,1.19c-4.65-1.04-6.9,4.17-6.55,3.54
			c-0.83-0.29-2.47,2.98-1.81,4.27c0.1-0.38,3.48-1.6,3.54-2c-0.29,0.69-1.4,1.95-1.43,2.92c0.03-0.41,4.14-1.47,5.26-1.16
			c-1.33,0.29-2.02,1.76-1.93,2.44c4.02-1.47,8.29-0.15,11.52-0.79c1.05,0.15,0.92-1.44,4.55-0.97c1.07,0.12,6.26-2.36,6.23-3.61
			c1.55-1.13,2.34-2.17,3.79-3.69c2.57-1.81,2.47-4.48,4.78-5.99c1.43-2.41,2.81-4.86,4.24-7.3c0.5-1.5,0.64-2.98-1.58-6.36
			c-0.16-0.79-0.5-1.47-0.67-2.22c3.57,0,6.71-1.25,9.43-2.38c-3.16,3.39-2.76,7.52-1.4,12.05c0.45,2.32,0.31,4.67,0.76,6.99
			c-0.98,1.54-1.83,3.48-2.78,5.02c0.12-0.48-3.6,4.86-4.69,5.42c-6.02,0.07-9.87,2.7-9.46,2.63c-0.45-0.6-2.91,1.88-4.08,3.01
			c1.29-0.34,1.58,0.41,2.69,0.48c-1.1,0.34-3.76,2.67-4.21,3.39c2.47,0.41,2.24-0.12,3.98-0.15c-0.29,0.34-0.73,0.63-1.02,1.54
			c-0.03,0.31,2.38,0.12,4.69,0.19c2.19,0.1,2.78,1.13,6.93,0.48c3.98,0.03,7.4,0.1,8.89-2.07c0.5,0.38-0.29,1.54-0.22,1.76
			c3.48,0.03,4.27-1.6,5.26-2.19c1.07,0.44-1.07,1.5-0.16,2.22c1.21-0.94,3.52-0.82,5.28-3.76c3.14-1.85,7.78-5.11,9.81-11.45
			c1.45-1.32-0.19-1.19,1.71-4.29c0.86-2.57,1.62-5.27,3.33-6.68c0.1-1.42,0.16-2.79,0.22-4.2c1.58-1.19,2.76-3.42,4.12-5.11
			c0.64-0.12,1.26-0.44,1.9-0.53c0.29,10.6,9.74,7.3,14.59,10.66c1.02,1.44,2.24,0.87,2.95,3.98c0.19,0.97,0.35,1.98,0.54,2.94
			C318.37,196.43,317.04,195.77,315.34,195.99L315.34,195.99z"/>
		<path class="st7" d="M250.71,197.94c-0.03,0.31-0.1,0.63-0.12,0.94c-1.14,1.19-0.67,0.75-2,1.73c-0.35,0.22-0.67,0.48-0.98,0.69
			c-0.95,0.79-1.9,1.54-2.85,2.32c-0.83,0.66,0.83-2.38,0-2.22c-1.43,1.91-2.69,2.54-3.83,2.94c-0.57,0.19-1.64,0.1-2.09,0.38
			c-0.03,0.03-0.1,0.03-0.16,0.03c-0.57,0.12-1.33-0.25-2-0.25c-0.88,0.1-1.74,0.19-2.59,0.25c-0.48-0.12,0.1-1.04-0.48-1.01
			c0.57-0.41,1.14-0.82,1.71-1.23c-0.83-0.31-1.67-0.6-2.5-0.87c0.26-0.31,0.54-0.66,0.83-1.01c-1.93,0.1-3.83,0.19-5.73,0.29
			c0.83-1.04,0.79-1.13,2.12-0.85c0.22-0.25,0.45-0.5,0.67-0.75c0.5,0.03,0.98,0.1,1.48,0.15c0.16-0.15,0.57-0.34,0.88-0.5
			c0.76,0.12,1.55-0.22,2.21-0.69c0.29-0.22-0.12,1.04,0.16,0.82c0.6-0.22,1.24-0.44,1.83-0.66c-0.64,0.79-1.26,1.57-1.9,2.32
			c0.07,0.38,0.1,0.75,0.16,1.13c1.1-0.69,2.21-1.38,3.35-2.1c-0.31,0.6-0.6,1.19-0.92,1.79c0.54-0.19,1.1-0.38,1.64-0.56
			c0.64-0.44,1.29-0.87,1.96-1.28c0.6-0.31,1.17-0.6,1.77-0.91c-0.31,0.72-0.64,1.42-0.98,2.1c0.19,0.15,0.38,0.34,0.57,0.5
			c0.35-0.53,0.67-1.04,0.98-1.54c1.24-0.53,2.47-1.04,3.67-1.54c0.6-0.5,1.21-1.04,1.81-1.54c-0.03,0.5-0.07,1.04-0.1,1.54
			c-0.45,0.29-0.92,0.6-1.36,0.87C248.86,198.78,249.79,198.37,250.71,197.94L250.71,197.94z M248.68,187.36
			c-0.12-0.63-0.22-1.25-0.35-1.88c-1.21,1.95-2.5,3.86-4.4,5.59c0.41,0.22,0.83,0.44,1.24,0.66c-0.5,0.41-1.05,0.79-1.55,1.19
			c0.48-0.03,0.98-0.03,1.45-0.07c-1.05,1.04-2.12,2.1-3.16,3.13c0.31,0,0.67,0,0.98,0c0,0.15,0,0.31,0,0.5
			c0.57-0.82,1.14-1.63,1.71-2.44c0.5-0.41,1.05-0.85,1.55-1.28c-0.07,0.41-0.12,0.82-0.16,1.23c-0.26,0.44-0.5,0.91-0.73,1.38
			c0.38-0.22,0.79-0.44,1.21-0.66c0.31-0.56,0.67-1.13,0.98-1.69c0.54-0.19,1.07-0.38,1.64-0.56c-0.48,0.82-0.95,1.6-1.4,2.41
			c0.79-0.53,1.58-1.06,2.34-1.6c0.86-0.6,1.71-1.19,2.53-1.79c-0.88,0-1.77,0-2.69,0c0.16-0.38,0.35-0.75,0.5-1.13
			c0.54-0.31,1.07-0.66,1.62-0.97c-0.6,0.07-1.24,0.1-1.86,0.15c-1.05,0.63-2.05,1.25-3.1,1.85c0.07-0.41,0.12-0.79,0.16-1.19
			c0.76-0.48,1.48-0.91,2.21-1.38c0.48-0.72,0.98-1.44,1.45-2.19C250.14,186.86,249.41,187.12,248.68,187.36L248.68,187.36z
			 M239.79,163.91c-0.92,1.01-1.83,2-2.78,3.01c0.45,0,0.88,0,1.33,0c0.22,1.95,0.48,3.88,0.73,5.8c0.26-0.31,0.54-0.63,0.83-0.94
			c-0.07-0.82-0.12-1.63-0.19-2.44c0-0.38-0.03-0.75-0.07-1.13c0.86,0.75,2.05,1.6,2.95,2.36c-0.22,1.19-0.79,2.29-0.98,3.48
			c0.38-0.1,0.76-0.19,1.14-0.25c0.6-0.75,1.24-1.5,1.86-2.26c0.35-0.19,0.69-0.38,1.05-0.56c0.16,0.38,0.29,0.75,0.41,1.13
			c-0.35,0.56-0.69,1.13-1.05,1.69c0.26,0.34,0.48,0.69,0.73,1.04c0.35-0.79,0.69-1.6,1.05-2.41c0.54-0.44,1.05-0.85,1.55-1.28
			c0.54-0.66,1.05-1.28,1.55-1.95c0.38,0,0.76,0,1.14,0c-0.07,0.69-0.16,1.42-0.22,2.1c-0.5,0.82-0.98,1.63-1.48,2.41
			c0.35,0.03,0.73,0.07,1.07,0.1c0.19-0.5,0.38-0.97,0.57-1.44c0.79-0.79,1.58-1.54,2.38-2.29c-0.07,0.5-0.12,0.97-0.19,1.47
			c0.76-0.63,1.48-1.25,2.21-1.85c0.1-0.44,0.22-0.87,0.31-1.32c0.48-0.53,0.92-1.06,1.4-1.6c0.54,0.07,1.07,0.15,1.62,0.25
			c-0.38,0.31-0.76,0.63-1.14,0.94c-0.12,0.69-0.26,1.35-0.38,2.04c-0.57,0.66-1.1,1.35-1.64,2c0.12,0.22,0.29,0.44,0.41,0.66
			c0.69-0.94,1.43-1.88,2.12-2.82c0.6-0.56,1.21-1.13,1.81-1.69c0.29-0.38,0.16-0.63,0.48-0.97c0.31,0.1,1.05,0.12,1.4,0.22
			c-0.35,0.5-0.67,0.97-0.98,1.47c0,0.5,0,1.01,0,1.54c0.29-0.1,0.6-0.15,0.88-0.25c0.45-0.79,0.88-1.57,1.29-2.36
			c0.5-0.5,0.98-1.01,1.48-1.54c0.12,0.29,0.26,0.56,0.41,0.82c-0.26,0.44-0.5,0.87-0.76,1.28c0.1,0.41,0.19,0.82,0.26,1.23
			c0.48-0.79,0.92-1.57,1.4-2.36c0.54-0.56,1.07-1.13,1.64-1.69c0,0.53,0,1.1,0,1.63c0.73-0.91,1.45-1.79,2.19-2.67
			c0.35-0.69,0.69-1.35,1.07-2.04c-2.4,0.41-4.21,2.73-6.29,1.69c-0.73,0.85-1.45,1.69-2.19,2.51c0-0.66,0-1.35,0-2
			c0.19-0.29,0.38-0.53,0.57-0.82c0.1-0.5,0.38-0.72,0.48-1.23c0.76-0.48,1.36-1.23,2.12-1.69c-1.17,0.63-2.02,1.57-3.19,2.17
			c-0.38,1.13-1.07,1.98-1.45,3.11c-0.41,0.07-0.79,0.15-1.21,0.25c0.12-0.41,0.26-0.79,0.41-1.16c0.19-0.72,0.41-1.44,0.64-2.17
			c-0.76,0.85-1.52,1.66-2.28,2.51c0-0.44,0-0.87,0-1.28c-0.26,0.12-0.48,0.25-0.73,0.38c-0.35,0.53-0.69,1.04-1.07,1.54
			c-1.43,0.48-2.88,0.94-4.31,1.38c-1.07,0.03-2.12,0.07-3.19,0.1c-0.57,0.1-1.14,0.22-1.71,0.31c0.03-1.42,0.07-2.85,0.1-4.27
			c-0.86,1.04-1.67,2.07-2.53,3.13c-0.31-0.34-0.67-0.69-0.98-1.06c-0.73,0.82-1.45,1.63-2.19,2.44c-0.22,0.03-0.45,0.03-0.67,0.07
			c0.1-0.48,0.22-0.97,0.31-1.44c0.35-0.38,0.73-0.75,1.07-1.13c0.22-0.69,0.45-1.35,0.64-2c-1.17,1.19-2.31,2.41-3.48,3.61
			c-0.22-0.31-0.45-0.63-0.67-0.94C239.12,165.6,239.47,164.76,239.79,163.91L239.79,163.91z M326.63,174.26
			c0.26-0.29,0.48-0.53,0.73-0.79c0.07,0.72,0.16,1.42,0.26,2.14c0.57-0.31,1.1-0.63,1.64-0.94c-0.31,0.56-0.6,1.13-0.92,1.69
			c-0.07,0.5-0.12,0.97-0.16,1.47c0.35-0.07,0.73-0.15,1.07-0.22c0,0.29,0,0.6,0,0.87c0.31,0.22,0.64,0.44,0.95,0.66
			c0.5-0.41,1.02-0.82,1.52-1.19c-0.41,1.23-0.83,2.44-1.26,3.67c0.22,0,0.45-0.03,0.67-0.03c0,0.94-0.03,1.88-0.07,2.82
			c0.29-0.31,0.54-0.63,0.79-0.94c0,0.41,0,0.82,0,1.23c-0.64,1.44-1.26,2.92-1.86,4.39c0,0.34,0,0.69,0,1.04
			c0.31-0.12,0.67-0.25,0.98-0.38c0.79-0.91,1.58-1.81,2.38-2.73c0.1,0.12,0.22,0.25,0.31,0.38c-0.29,1.13-0.54,2.26-0.83,3.39
			c0.16-0.15,0.31-0.29,0.5-0.44c0.35-0.07,0.73-0.1,1.07-0.15c-0.22,0.38-0.48,0.75-0.69,1.13c-0.07,0.44-0.12,0.87-0.16,1.32
			c0.26,0,0.54,0,0.83,0c0.16-0.31,0.31-0.63,0.48-0.94c0.22,0.15,0.41,0.31,0.6,0.44c-0.22,0.29-0.45,0.6-0.67,0.87
			c0,0.38,0,0.75,0,1.13c-0.22,0.31-0.48,0.63-0.69,0.94c-0.03,0.53-0.03,1.1-0.07,1.63c0.35,0.12,0.69,0.25,1.05,0.38
			c-0.22,0.19-0.48,0.41-0.69,0.6c0,0.41,0,0.85,0,1.25c0.31,0,0.67,0,0.98,0c-0.38,0.29-0.73,0.56-1.1,0.87
			c-0.95,1.04,0.29,2.79-1.26,2.89c-1.1,0.56-1.4,1.32-2.53,1.91c0.12-0.66-0.26-1.23-0.12-1.88c-1.05,1.42-4.31,3.51-6.04,2.6
			c-0.48,0.15-0.95,0.29-1.43,0.44c-1.67-0.07-3.33-0.1-5-0.15c-0.95-0.22,0.83-1.25,1.77-1.25c1.55-0.75,1.48-1.13,0.22-1.13
			c-0.03-0.22-0.07-0.44,0.1-0.69c-2.66-0.15-3.95,0.38-6.33,1.6c0.03-1.13,1.29-2,2.28-2.17c0.19-0.31,0.73-0.87,0.86-1.23
			c-0.22-0.1-0.41-0.19-0.64-0.31c-0.1-0.07-0.6,0.03-0.69-0.07c-1.02,0.29-1.55,0.41-2.53,0.66c0.35-0.69,0.86-1.28,1.55-1.76
			c0.6-0.38,2.47-0.41,2.72,0.34c0.57,0.15,0.95-0.12,1.48,0c1.1-0.12,1.67-0.82,2.72-0.53c0.73,0.69,1.29,1.44,1.4,2.48
			c0.35-0.22,0.73-0.44,1.1-0.66l0.41-0.22l0.03,0.75l-0.29,0.5l0.45,0.12l0.64,0.25l-0.1-0.63l0.5-0.15
			c-0.07,0.6,0.6-1.44,0.54-0.82c0.57-1.04,0.83-1.95,1.4-2.98c-0.45-1.91-0.95-1.13-2.15-0.41c-0.22-0.15,1.14-2.26,1.02-2.44
			c-0.45-0.07-0.86-0.15-1.29-0.22c-0.29,0.38-0.57,0.75-0.86,1.13c-0.54-0.6,1.07-1.63-0.29-2.7c0-0.82,0.38-0.5-0.88-1.28
			c-0.5,0.66-0.73,1.1-1.17,1.28c-0.1-1.13-0.16-2.26-0.26-3.35c-0.26-0.12-0.5-0.22-0.76-0.34c-0.1,0.29-0.22,0.56-0.31,0.85
			c-0.31-0.75-0.64-1.47-0.95-2.19c-0.26,0.07-0.54,0.12-0.83,0.15c0,0.41-0.03,0.82-0.03,1.19c-0.41-1.42-0.79-2.85-1.17-4.29
			c-0.16-0.44-0.29-0.87-0.45-1.35c-0.31,0.07-0.6,0.15-0.92,0.22c-0.1,0.79-0.16,1.6-0.22,2.38c-0.26-1.32-0.5-2.63-0.79-3.95
			c-0.26-0.12-0.5-0.22-0.76-0.34c-0.26,0.53-0.5,1.06-0.76,1.6c-0.19-1.25-0.41-2.51-0.6-3.76c-0.38,0.07-0.73,0.15-1.1,0.22
			c0-0.63-0.03-1.23-0.07-1.85c-0.29-0.41-0.57-0.85-0.86-1.25c-0.03-0.44-0.03-0.91-0.07-1.35c-0.29,0.19-0.6,0.38-0.88,0.6
			c-0.03-0.82-0.07-1.63-0.1-2.44c0.41-0.53,0.83-1.06,1.26-1.6c0,0.56,0.03,1.13,0.03,1.69c0,0.44-0.03,0.87-0.03,1.32
			c0.29-0.19,0.6-0.38,0.92-0.56c0.12,0.15,0.26,0.31,0.38,0.44c-0.12,0.19-0.29,0.34-0.45,0.5c0.07,0.31,0.12,0.66,0.19,0.97
			c0.19,0.07,0.38,0.15,0.6,0.22c0.41-0.41,0.83-0.79,1.26-1.19c-0.07,0.66-0.1,1.32-0.12,1.95c0.5-0.1,0.98-0.15,1.48-0.25
			c-0.07,0.31-0.16,0.66-0.22,0.97c0.54-0.03,1.05-0.07,1.58-0.12c0.35-0.29,0.67-0.6,0.98-0.91c0.16,0.1,0.29,0.22,0.41,0.31
			c-0.31,0.31-0.64,0.6-0.95,0.87c0.03,0.22,0.07,0.44,0.12,0.66c0.45-0.03,0.92-0.03,1.36-0.07c0.03,0.22,0.07,0.41,0.1,0.6
			c0.31-0.03,0.6-0.07,0.88-0.1c0.29-0.48,0.6-0.94,0.88-1.42c0.22,0,0.45,0,0.67,0c-0.03,0.82-0.1,1.63-0.12,2.44
			c0.48-0.29,0.95-0.6,1.43-0.87c0.1,0.31,0.16,0.63,0.22,0.94c-0.45,0.38-0.86,0.79-1.29,1.19c0.1,0.38,0.22,0.75,0.31,1.13
			c0.48-0.31,0.95-0.66,1.43-0.97c-0.12,0.34-0.26,0.69-0.38,1.04c0.03,0.31,0.03,0.6,0.07,0.91c0.31-0.12,0.6-0.29,0.92-0.44
			c-0.12,0.29-0.29,0.56-0.45,0.82c-0.1,0.25-0.22,0.48-0.31,0.72c0.26,0.31,0.48,0.63,0.73,0.91c0.07,0.34,0.12,0.66,0.19,1.01
			c0.86-0.5,1.67-1.01,2.5-1.47c-0.31,0.53-0.6,1.1-0.88,1.63c0.1,0.48,0.22,0.94,0.31,1.42c0.16,0.41,0.35,0.85,0.5,1.25
			c0.22-0.29,0.48-0.6,0.69-0.87c0.16,0.38,0.31,0.75,0.45,1.16c0.22-0.22,0.45-0.41,0.67-0.63c0.16-0.38,0.31-0.79,0.5-1.19
			c-0.03-0.79-0.07-1.6-0.07-2.38c-0.19,0.19-0.41,0.41-0.6,0.6c-0.03-0.87-0.03-1.73-0.07-2.6c-0.22,0.12-0.45,0.25-0.67,0.38
			c-0.07-0.87-0.12-1.79-0.22-2.67c-0.29-0.03-0.57-0.07-0.86-0.1c-0.12,0.12-0.22,0.25-0.35,0.38c0.07-0.63,0.12-1.25,0.16-1.85
			c-0.29-0.25-0.6-0.48-0.92-0.72c0.07-0.44,0.16-0.91,0.22-1.35c0-0.41,0-0.82,0-1.19c0.29-0.25,0.57-0.53,0.88-0.79
			c-0.48-0.56-0.95-1.13-1.43-1.66c0.07-0.5,0.16-1.01,0.26-1.47c-0.16-0.31-0.31-0.6-0.48-0.87c0.22-0.66,0.48-1.35,0.69-2
			c-0.35-0.34-0.69-0.66-1.05-0.97c0.03-0.79,0.07-1.57,0.12-2.36c-0.38-0.15-0.76-0.31-1.1-0.5c0.1-1.19,0.19-2.41,0.29-3.64
			c0.69-1.25,1.43-2.51,2.12-3.73c0.35-0.15,0.69-0.31,1.05-0.44c-0.95,0.82-1.77,3.54-2.21,4.73c0.64,0.91,0.73-1.5,1.26-0.53
			c-0.03,0.6-0.92-0.29-0.5,2.04c0.35-0.22,0.67-0.44,1.02-0.66c-0.19,0.44-0.38,0.87-0.57,1.32c-0.03,1.01,0.22,1.5,0.31,1.95
			c0.67,1.25,1.07-3.01,1.55-1.69c0.1,0.29-0.12,2.44-0.1,2.75c-0.19,0.29-0.38,0.56-0.57,0.82c0.12,0.38,0.26,0.75,0.38,1.13
			c-0.31,0.29-0.64,0.56-0.95,0.87c0,0.31,0,0.63,0,0.97c-0.16,0.22-0.31,0.48-0.5,0.69c0,0.48,0,0.91,0,1.38
			C326.15,174.1,326.37,174.16,326.63,174.26L326.63,174.26z M259.43,210.57c-0.03,0.15-0.07,0.29-0.07,0.44
			c-0.98,0.07-0.6,1.54-1.77,1.25c-0.76-0.19-0.5,0.44-1.26,0.41c-0.1,0-1.4,0-1.48,0c0.35-0.34,0.69-0.69,1.05-1.04
			c1.07-0.44,2.12-0.87,3.19-1.32c0.26-0.15,0.5-0.29,0.79-0.44c0.16,0,0.31,0.03,0.48,0.03c-0.12,0.15-0.26,0.29-0.41,0.41
			c0.07,0.15,0.1,0.29,0.16,0.41C259.88,210.67,259.66,210.64,259.43,210.57L259.43,210.57z M166.99,166.69
			c0.16,0.19,0.26,0.15,0.41,0.31c0-0.12,0.12-0.07,0.12-0.19c0.1,0,0.16-0.07,0.26-0.07c-0.16-0.03-0.22-0.12-0.35-0.22
			c0.07-0.07,0.12-0.15,0.16-0.22c0.57-1.13,0.95-1.95,1.48-3.08c-0.54-0.07-1.1-0.12-1.67-0.19c0.92-1.28,1.81-2.57,2.72-3.86
			c0.16-1.69,0.35-3.35,0.5-5.02c0.83,0.6,1.64,1.19,2.47,1.79c-0.03,0.41-0.07,0.82-0.12,1.23c0.69-0.15,1.36-0.34,2.05-0.5
			c-0.03,0.91-0.1,1.79-0.12,2.7c1.07-0.25,1.29,0.07,1.86-0.94c0.29-0.07,1.43-0.19,1.29,0.82c0.48-0.19,0.98-0.41,1.48-0.6
			c0,1.01,0.03,2,0.07,2.98c-0.54,1.66-1.07,3.32-1.62,4.99c-0.41,0.44-0.79,0.85-1.17,1.28c-0.26,1.01-0.48,2-0.69,3.01
			c0.76-0.79,1.48-1.57,2.24-2.36c0.07-0.34,0.16-0.72,0.22-1.1c0.26,0,0.5,0,0.76,0.03c0.03,0.97,0.07,1.95,0.07,2.94
			c0.1,0.22,5.69-7.3,5.76-7.09c0.03,0.48,0.07,0.91,0.1,1.38c0.16,0.66,0.31,1.28,0.48,1.95c2.09-2.89,2.95-5.11,2.95-5.11
			c0.26-0.38,0.48-0.75,0.73-1.13c0.1,0.31,0.22,0.63,0.35,0.94c-0.45,1.01-0.86,2-1.29,3.01c0.57-0.75,1.14-1.54,1.74-2.29
			c0.22,0.03,0.45,0.07,0.64,0.07c-0.29,0.91-0.57,1.79-0.86,2.67c1.29-1.73,2.59-3.45,3.92-5.18c0.03-0.6,0.1-1.19,0.12-1.79
			c0.5-0.12,1.02-0.25,1.52-0.38c-0.19,0.44-0.41,0.87-0.64,1.32c-0.07,0.44-0.16,0.91-0.22,1.35c-0.48,0.85-0.98,1.69-1.45,2.51
			c0.83-0.79,1.64-1.57,2.47-2.36c0.88-1.06,1.81-2.14,2.69-3.16c0.26-0.07,0.54-0.1,0.79-0.15c-0.54,1.5-1.07,3.01-1.58,4.55
			c0.73-1.04,1.48-2.07,2.24-3.11c0,0.29,0,0.56,0,0.87c0.54-0.66,1.05-1.32,1.58-1.95c0.38-0.41,0.79-0.82,1.17-1.23
			c-0.07-0.91-0.16-1.79-0.22-2.67c-0.29-0.15-0.57-0.29-0.88-0.44c-0.12,0.5-0.29,1.01-0.41,1.5c-0.67,0.5-1.33,1.01-1.96,1.5
			c-0.12-0.29-0.26-0.56-0.38-0.85c0.38-0.48,0.73-0.97,1.1-1.44c0.19-0.34,0.38-0.66,0.57-1.01c-0.95,0.12-1.9,0.25-2.81,0.34
			c-1.02,1.13-2,2.22-2.97,3.32c-1.1,0.48-2.19,0.94-3.29,1.44c-0.83,0.44-1.67,0.91-2.53,1.35c0-0.31,0-0.63,0-0.94
			c1.02-1.16,2-2.32,2.97-3.51c0.1-0.91,0.16-1.81,0.22-2.73c-0.54,0.87-1.1,1.73-1.67,2.6c-0.69,0.38-1.4,0.75-2.09,1.13
			c-0.57-1.04-1.1-2.1-1.67-3.16c1.74-2.17,2.59-4.99,3.42-7.84c0.45-1.5,0.92-3.04,1.36-4.58c0.31,0.94,0.6,1.85,0.88,2.79
			c0.38-0.41,0.76-0.82,1.17-1.23c0.1,0.34,0.22,0.69,0.35,1.01c0.57-0.6,1.17-1.19,1.74-1.79c0.07-0.44,0.16-0.87,0.22-1.28
			c0.38-0.1,0.76-0.15,1.17-0.22c0.22,0.94,0.48,1.91,0.73,2.85c-0.38,0.94-0.29,1.88-0.64,2.82c1.48-0.07,2.47-0.1,3.95-0.15
			c0.38-0.31,0.73-0.66,1.1-1.01c0.22,0.03,0.48,0.07,0.69,0.1c-0.16,1.32-0.31,2.67-0.5,4.02c2.43,0.85,4.02,2.07,4.93,3.51
			c0.54,0.75,1.07,1.5,1.62,2.22c-1.1,1.81-2.19,3.64-3.26,5.49c1.4-0.38,2.72-0.85,3.76-2.17c-0.26,0.53-0.5,1.04-0.73,1.57
			c0.95-0.44,1.93-0.85,2.91-1.28c0.38-0.34,0.76-0.66,1.14-1.01c0.26,0.53,0.5,1.04,0.73,1.57c-0.38,0.44-0.76,0.87-1.17,1.32
			c-0.5,1.1-1.02,2.19-1.52,3.3c-0.38,0.15-0.76,0.29-1.14,0.44c-0.76,1.13-1.52,2.26-2.24,3.39c-0.41,0-0.79,0.03-1.17,0.07
			c0.54-1.25,1.1-2.51,1.67-3.73c-0.92,1.13-1.81,2.29-2.69,3.45c0.03,0.63,0.03,1.28,0.07,1.95c-0.35,0.69-0.67,1.42-1.02,2.14
			c0.31,0.03,0.64,0.07,0.95,0.1c0.38-0.56,0.76-1.13,1.14-1.66c0.5-0.56,0.98-1.1,1.45-1.66c0.1,0.48,0.16,0.97,0.22,1.44
			c0.73-0.97,1.45-1.91,2.19-2.89c0.07-0.41,0.1-0.82,0.16-1.23c0.19-0.1,0.41-0.19,0.64-0.29c0.07,0.6,0.16,1.16,0.22,1.73
			c-0.1,0.48-0.19,0.97-0.29,1.44c0.6-0.63,1.21-1.25,1.81-1.88c0.76-0.63,1.52-1.28,2.24-1.91c0.1,0.6,0.16,1.23,0.22,1.85
			c0.29-0.5,0.6-1.01,0.88-1.5c-0.1-0.29-0.19-0.56-0.29-0.87c0.76,0.25,1.29-0.25,1.74-1.13c-0.1,0.41-0.16,0.82-0.22,1.23
			c-0.16,0.63-0.29,1.25-0.45,1.85c0.67-0.56,1.29-1.13,1.96-1.73c0.19-0.34,0.38-0.72,0.57-1.06c0.38-0.07,0.73-0.1,1.1-0.15
			c-0.26,0.82-0.5,1.63-0.73,2.44c-0.5,0.69-1.02,1.35-1.55,2.04c-0.5,1.16-1.05,2.32-1.58,3.51c-0.22-0.15-0.45-0.34-0.67-0.5
			c-0.57,1.1-1.14,2.19-1.74,3.3c-0.5,0.25-1.02,0.5-1.52,0.72c0.22-0.75,0.45-1.54,0.67-2.29c0.29-0.34,0.57-0.69,0.86-1.01
			c-0.67,0.44-1.33,0.85-2.02,1.28c-0.22,0.72-0.48,1.44-0.73,2.17c-0.29-0.6-0.57-1.16-0.86-1.73c-0.31,1.79-0.64,3.57-0.95,5.4
			c-0.41-0.1-0.83-0.19-1.24-0.29c-0.26,0.94-0.54,1.91-0.79,2.85c-1.07,0.66-2.15,1.32-3.19,1.95c-1.07,1.73-2.12,3.45-3.19,5.18
			c-0.38-1.23-0.76-2.44-1.17-3.67c-0.41,1.98-0.86,3.95-1.29,5.9c-0.45,0.15-0.92,0.29-1.4,0.44c-0.22-0.48-0.48-0.97-0.69-1.44
			c-0.35,0.87-0.69,1.79-1.05,2.67c-1.81,0.97-3.57,2.04-5.28,3.83c-0.12-0.44,0.1-0.87-0.03-1.32c0.64-0.6,0.92-1.19,1.55-1.79
			c-0.07-0.31-0.12-0.63-0.22-0.94c-0.73,0.85-1.48,1.69-2.24,2.51c-0.26,0-0.54-0.03-0.79-0.07c-0.16,0.6-0.35,1.19-0.5,1.79
			c-0.5,0.82-1.02,1.6-1.52,2.38c-0.48,0.22-0.92,0.44-1.4,0.66c-0.29,0.56-0.57,1.13-0.86,1.73c-0.6-0.48-1.21-0.91-1.83-1.38
			c-0.1,0.12-0.19,0.25-0.29,0.38c0.26,0.44,0.5,0.91,0.73,1.35c0,0.79,0,1.54,0,2.32c-0.67,0.1-1.24,0.79-1.81,1.57
			c-0.45,0.03-0.88,0.07-1.29,0.07c0.19-0.53,0.41-1.04,0.6-1.57c-2.21-0.38-2.5-1.06-5.19,0c-2.15,1.44-4.62,1.23-7.02,1.28
			c-0.31,0.03-0.67,0.1-0.98,0.12c-1.17,0.1-2.5,1.47-3.45,2.14c-0.48,0.34-0.98,0.69-1.48,1.69c1.55-0.6,2.5-1.44,3.79-1.66
			c0.16-0.34,0.31-0.69,0.48-1.04c0.29-0.12,1.33,0.15,1.45,0.1c0,0.38,0,0.72,0,1.1c-0.26,0.12-0.48,0.29-0.73,0.41
			c0.57-0.07-1.64,2.04-1.21,1.79c-1.17,0.79-2.31,1.42-2.38,2.73c1.02-0.56,1.29-1.35,2.69-1.19c1.1,0.12,1.62-1.1,2.69-0.94
			c0.38,0.03,0.12-1.38,0.57-1.35c0.35,0.29,0.69,0.53,1.07,0.82c-0.16,0.6-0.38,1.1-0.5,1.69c0.07,0.07-1.71,0.75-1.93,2
			c1.14-0.31,2.97-1.32,3.19-1.5c0.31-0.12,0.07,0.12,0.76,0.41c1.64,0.63,4.52,1.5,5.35,1.35c0.69-0.22,2.12-0.69,2.43-0.97
			c0.03,0-0.1-0.87-0.07-0.85c0.41-0.25-1.9-0.25-1.62-0.41c0.26,0.07,0.57-0.34,0.76-0.41c1.21-0.6,1.4,0.29,2.59-0.44
			c0.26,0.19,0.48,0.38,0.69,0.56c0.03-0.22,0.03-0.48,0.03-0.72c1.14-0.66,0.54,0.03,1.71-0.53c0.26-0.12,5.16-7.62,5.35-7.87
			c0.12,0.69,0.26,1.35,0.38,2.04c-0.31,0.31-0.67,0.63-1.02,0.94c0.16,0.38,0.29,0.72,0.45,1.1c0.35-0.53,0.67-1.04,1.02-1.54
			c0.22-0.07,0.45-0.12,0.67-0.19c-0.1,0.38-0.16,0.75-0.22,1.13c0.16,0.44,0.35,0.87,0.5,1.28c0.29-0.75,0.57-1.5,0.86-2.29
			c-0.12-0.19-0.29-0.38-0.41-0.56c0.22-0.25,0.48-0.5,0.73-0.72c0.22,0.34,0.48,0.66,0.73,1.01c-0.1,0.48-0.16,0.94-0.22,1.44
			c0.1,0.15,0.19,0.31,0.29,0.5c0.5-0.53,1.02-1.06,1.52-1.6c0.12-0.5,0.26-1.01,0.35-1.5c0.07-0.48,0.1-0.94,0.16-1.44
			c0.35-0.25,0.67-0.5,1.02-0.79c0.07,1.1,0.1,2.17,0.16,3.23c0.64-0.31,1.29-0.66,1.96-1.01c0.26-0.31,0.5-0.66,0.79-1.01
			c0.26-0.5,0.54-1.01,0.79-1.5c0.07,0.5,0.1,1.01,0.16,1.5c0.29-0.1,0.57-0.19,0.86-0.29c0.48-0.48,0.92-0.97,1.4-1.44
			c0.31-0.5,0.67-1.01,1.02-1.5c0.19,0.03,0.38,0.03,0.57,0.07c0.07,0.44,0.1,0.87,0.16,1.32c1.14-2.14,2.28-4.27,3.38-6.43
			c0.12,0.25,0.26,0.5,0.38,0.72c0.19,0.5,0.38,1.04,0.57,1.54c0.57-0.72,1.1-1.42,1.67-2.1c0.57-1.88,1.17-3.79,1.74-5.68
			c0.26,0.44,0.48,0.91,0.73,1.38c0.69-1.5,1.71-2.17,2.09-4.48c0.31,0.1,0.6,0.19,0.88,0.31c-0.19,0.29-0.38,0.6-0.57,0.91
			c0.07,0.87,0.12,1.73,0.19,2.6c0.54-1.1,1.05-2.17,1.55-3.23c0.22-0.5,0.41-1.01,0.64-1.5c0.03-0.72,0.07-1.44,0.1-2.17
			c0.19-0.66,0.41-1.28,0.64-1.95c0.29-0.03,0.6-0.07,0.88-0.07c-0.19,0.72-0.41,1.47-0.6,2.22c0.07,0.41,0.1,0.85,0.16,1.28
			c0,0.5,0.22,1.25,0.22,1.76c3.45-4.58,2.19-9.91,6.83-15.9c0.57,3.64,1.36,6.72,3,7.52c-0.07-1.04-0.1-2.07-0.16-3.11
			c1.71,2-2.59-2.92,0.03-2.1c0.69,0.31,1.43,0.63,2.12,0.94c-0.67-1.79-1.33-3.57-2-5.33c0.38,0.19,0.79,0.38,1.21,0.56
			c0.86,1.73,1.67,3.48,2.53,5.23c0-1.6,0-3.16,0-4.77c0.29,0.31,0.54,0.6,0.83,0.87c0.64,1.42,1.29,2.82,1.96,4.2
			c-0.1-1.57-0.19-3.16-0.26-4.77c0.45,1.32,0.92,2.6,1.4,3.88c0.16-1.35,0.31-2.7,0.48-4.05c-0.29-0.5-0.54-1.01-0.83-1.54
			c0.16-0.79,0.29-1.6,0.41-2.41c-0.98,0.5-1.77,1.42-2.43,2.67c-0.5,0.1-0.98,0.15-1.45,0.25c0.38-1.1,0.79-2.17,1.21-3.23
			c-1.02,0.79-2.62,1.28-3.64,2.07c0.29-0.82,1.17-1.35,1.45-2.17c0.29-0.66,0.6-1.35,0.88-2c-0.95,0.25-1.9,0.48-2.85,0.72
			c-0.03-0.48-0.07-0.97-0.1-1.44c1.05-0.56,2.09-1.1,3.1-1.63c0.41-0.48,0.83-0.97,1.24-1.44c0.45,0.03,0.92,0.1,1.4,0.15
			c-0.03,0.6-0.07,1.19-0.1,1.79c-0.35,0.31-0.69,0.63-1.05,0.94c0.03,0.38,0.1,0.72,0.16,1.06c0.95-0.85,1.9-1.66,2.85-2.51
			c0.29,0.12,0.6,0.22,0.88,0.31c0.1,0.79,0.16,1.57,0.26,2.36c1.02-1.1,2-2.19,3-3.3c-0.26,0.72-0.54,1.44-0.83,2.17
			c0.57-0.6,1.14-1.19,1.71-1.79c0.26,0,0.5,0,0.76,0c-0.1,0.75-0.16,1.47-0.26,2.19c0.41-0.31,0.83-0.66,1.24-0.97
			c0-0.48,0.03-0.97,0.07-1.44c0.41-0.38,0.83-0.72,1.24-1.06c0.07,0.44,0.16,0.87,0.26,1.28c-0.12,0.56-0.22,1.1-0.35,1.63
			c0.88-0.85,1.74-1.66,2.62-2.51c0.35-0.1,0.69-0.22,1.05-0.31c-0.12,0.44-0.26,0.91-0.41,1.38c-0.31,0.31-0.64,0.63-0.98,0.94
			c-0.26,0.56-0.54,1.1-0.79,1.63c0.88-0.87,1.77-1.73,2.69-2.57c0.07,0.31,0.16,0.63,0.22,0.94c0.64-0.6,1.26-1.23,1.9-1.85
			c0.83-0.69,1.77-1.06,2.91-0.72c0.73-0.44,1.43-0.85,2.12-1.28c0.26,0.07,0.16,0.5,0.41,0.56c-0.12,0.79,0.12,1.23,0,2
			c0.67-1.01,1.29-1.98,1.96-2.98c0.29,0.12,0.54,0.29,0.83,0.41c0.16,0.6,0.31,1.19,0.48,1.76c0.19-0.75,0.38-1.54,0.57-2.32
			c0.45-1.54,0.88-3.08,1.29-4.61c0.1,2.14,0.19,4.27,0.26,6.36c0.69-1.88,1.43-3.76,2.12-5.64c0.5-0.19,0.86,0.22,1.33,0.03
			c0.1,1.69,0.31,2.79,0.38,4.48c0.5-2.04,0.98-4.08,1.48-6.12c0.26-1.35,0.54-2.7,0.79-4.05c0.69,1.19,1.36,2.41,2.05,3.64
			c-0.19-1.1-0.35-2.22-0.5-3.32c-0.86-0.34-1.48-2.38-2.12-4.51c-0.19,1.5-0.12,2.89-0.31,4.39c-0.64-1.25-1.55-2.41-2.21-3.67
			c0.26,2.04,0.48,3.88,0,4.86c-0.88-1.6-1.86-3.16-2.76-4.77c-0.26,1.06-0.5,2.14-0.73,3.23c-0.67-1.16-1.33-2.32-1.96-3.48
			c-1.14-1.44-2.53-1.57-3.42-4.36c0.6-0.29,1.17-0.53,1.77-0.82c0.92,1.63,2.88-0.19,3.52-0.22c0.83-1.1,1.58-1.25,2.43-2.36
			c0.67-1.32,1.33-2.63,2.02-3.95c-1.24,1.04-2.43,2.07-3.67,3.08c-0.83,0.25-1.67,0.48-2.5,0.69c0.41-0.69,0.83-1.35,1.24-2
			c0.07-0.56,0.16-1.13,0.26-1.69c-2.05,2.17-2.38,2.63-5,4.05c1.26-1.73,2.28-3.67,3.1-5.71c0.07-0.66,0.1-1.32,0.12-1.98
			c-0.86,0.66-1.74,1.32-2.62,1.98c-0.64,0.15-1.26,0.34-1.9,0.53c0.03-0.48,0.1-0.91,0.12-1.35c-0.57,0.48-1.17,0.94-1.74,1.42
			c-0.41-0.25-0.45-0.5-0.83-0.75c0.26-0.63,0.16-1.25,0.41-1.88c-1.05,0.07-1.74,0.53-2.78,0.6c-0.03-0.34-0.45-1.13-0.48-1.47
			c-0.26,0.03-0.57,1.13-0.83,1.13c-0.31,0.03,0.07-0.63-0.29-0.82c-0.41-0.29-1.58-0.07-2.02-0.03c-0.45,0.48-0.88,0.94-1.33,1.42
			c-0.22-0.34-0.41-0.66-0.64-1.01c-0.95,0.25-1.9,0.5-2.85,0.72c0.26-0.53,0.5-1.06,0.76-1.6c0-0.75,0-1.5,0-2.29
			c-0.67,1.23-1.29,2.48-2.43,3.11c0.19,0.34,0.35,0.72,0.54,1.06c0.31,0.07,0.64,0.12,0.95,0.19c-0.86,0.12-1.71,0.25-2.57,0.34
			c-0.19,0.6-0.38,1.23-0.57,1.81c-0.6,0.5-1.21,1.04-1.81,1.54c-0.31-0.22-0.6-0.44-0.88-0.66c0.38-0.69,0.76-1.35,1.14-2
			c-0.03-1.63-0.03-3.23-0.07-4.86c-0.35,0-0.67-0.03-1.02-0.07c0.26,1.01,0.22,1.88-0.35,2.48c0.16,0.25,0.31,0.5,0.48,0.75
			c-0.1,0.79-0.19,1.57-0.26,2.36c-0.6,0.22-1.21,0.44-1.77,0.66c-0.6-0.94-1.24-1.88-1.83-2.82c-0.29,0-0.35,0.1-0.64,0.1
			c-0.67-1.25-1.52-2.79-1.93-4.92c-0.16,0.5-0.29,1.01-0.41,1.47c0.26,0.63,0.5,1.23,0.73,1.81c0.12,0.53,0.26,1.04,0.35,1.54
			c-0.19,0.03-0.41,0.07-0.6,0.1c-0.12-0.44-0.22-0.87-0.35-1.28c-0.26-0.07-0.54-0.1-0.83-0.12c-0.07-0.79-0.16-1.54-0.26-2.29
			c-0.29-0.48-0.54-0.94-0.83-1.42c0.1,0.66,0.19,1.28,0.29,1.95c-0.22,0.48-0.41,0.94-0.64,1.42c-0.54-1.28-1.07-2.54-1.62-3.83
			c-0.41-0.5-0.83-1.01-1.21-1.47c-0.26,0.1-0.48,0.22-0.69,0.31c0.54,0.79,1.05,1.54,1.55,2.29c0.03,0.85,0.07,1.73,0.1,2.57
			c-0.35,0.03-0.69,0.07-1.05,0.12c-0.29-0.91-0.57-1.79-0.86-2.7c-0.48-0.72-0.92-1.42-1.36-2.14c-0.07-0.44-0.16-0.85-0.22-1.28
			c-0.19-0.12-0.41-0.29-0.6-0.41c-0.1,0.22-0.19,0.44-0.29,0.69c0.29,0.79,0.57,1.6,0.83,2.41c0.22,0.34,0.41,0.72,0.6,1.06
			c0,0.69,0,1.38,0,2.07c-0.26,0.15-0.54,0.31-0.79,0.48c-0.31-0.31-0.6-0.66-0.88-1.01c0.07-0.44,0.12-0.87,0.19-1.35
			c-0.48-0.97-0.95-1.95-1.43-2.94c-0.26-0.19-0.54-0.41-0.79-0.6c-0.22,0.19-0.41,0.34-0.64,0.53c0.64,1.16,1.26,2.32,1.9,3.48
			c0.16,0.22,0.29,0.41,0.41,0.63c-0.22,0.19-0.45,0.41-0.67,0.6c-0.29-0.41-0.6-0.82-0.88-1.23c-0.12,0.29-0.22,0.56-0.35,0.82
			c0.16,0.38,0.31,0.75,0.48,1.13c-0.29,0.22-0.57,0.41-0.88,0.63c-0.57-0.38-1.17-0.72-1.74-1.1c-0.79-1.01-1.58-2-2.38-3.01
			c-0.07,0.6-0.1,1.16-0.16,1.76c0.31,0.25,0.6,0.5,0.88,0.72c-0.12,0.48-0.29,0.94-0.41,1.42c-2.66-0.48-5.09-0.38-6.64,1.95
			c-0.35-0.03-0.73-0.07-1.1-0.12c-0.12,0.29-0.26,0.56-0.35,0.87c-0.35-0.1-0.67-0.19-1.02-0.25c-0.38,0.91-0.79,1.81-1.17,2.75
			c-0.19,0-0.41,0.03-0.6,0.07c-0.54-0.66-1.05-1.32-1.55-1.98c-0.41,0.91-0.83,1.85-1.24,2.75c-0.12,0.91-0.22,1.85-0.31,2.75
			c-0.29,0.22-0.54,0.41-0.83,0.63c0-0.44-0.03-0.87-0.07-1.28c-0.41,1.01-0.86,1.98-1.29,2.98c-0.16-0.03-0.35-0.07-0.54-0.12
			c0.03-0.72,0.07-1.44,0.12-2.19c-0.76,1.54-1.48,3.08-2.24,4.61c-0.45-0.03-0.88-0.07-1.36-0.07c0.69-2.38,1.43-4.73,2.12-7.11
			c-1.05,1.76-2.05,3.51-3.1,5.27c-0.26,0.03-0.5,0.1-0.73,0.12c0.1-1.1,0.22-2.19,0.35-3.32c-0.6-1.1-1.24-2.22-1.83-3.35
			c-0.35,0.85-0.67,1.66-1.02,2.51c0,0.85-0.03,1.73-0.07,2.57c0.12,1.28,0.22,2.57,0.31,3.86c-0.22,0.1-0.45,0.19-0.67,0.25
			c-0.38-0.29-0.76-0.56-1.14-0.85c0.16,0.41,0.31,0.82,0.45,1.23c0,0.63-0.03,1.25-0.07,1.91c-0.31,0.1-0.67,0.19-0.98,0.29
			c-0.07,1.13-0.12,2.26-0.19,3.39c-0.19,0.34-0.38,0.69-0.57,1.04c-0.07,0.5-0.16,0.97-0.22,1.47c-0.19,0.12-0.38,0.25-0.57,0.38
			c-0.1,0.25-0.19,0.48-0.31,0.72c-0.19-0.19-0.41-0.41-0.6-0.6c-0.16,1.01-0.35,2-0.5,2.98c-0.45,0.12-0.86,0.22-1.29,0.31
			c-0.12-0.38-0.26-0.79-0.38-1.16c-0.07,0.34-0.16,0.66-0.26,0.97c-0.29,0.29-0.57,0.6-0.86,0.87c-0.22-0.12-0.45-0.22-0.67-0.31
			c0,0.38,0,0.72,0,1.1c-0.35,0.41-0.67,0.82-1.02,1.23c-0.1,0.69-0.19,1.42-0.29,2.1c-0.26,0.12-0.5,0.29-0.76,0.41
			c-0.1-0.29-0.19-0.56-0.31-0.85c0.26-0.44,0.5-0.91,0.76-1.35c-0.26,0-0.5,0-0.76,0c-0.35,0.79-0.57,1.57-0.95,2.32
			c-0.29-0.22-0.73-0.44-1.02-0.66c0.12-0.69,0.26-1.35,0.35-2.04c-0.29,0-0.6-0.03-0.92-0.07c0,0.19,0,0.38,0,0.56
			c-0.41,0.5-0.98,0.72-1.74,0.6c0.19-0.19,0.38-0.41,0.57-0.6c0.07-1.25,0.12-2.51,0.19-3.73c-0.31-0.07-0.64-0.12-0.92-0.19
			c0,0.25,0,0.53,0,0.79c-0.31,0.5-0.6,1.01-0.88,1.47c0.16-0.22,0.31-0.48,0,0c-0.38,0.1-0.73,0.22-1.1,0.31
			c0.22-0.6,0.45-1.19,0.67-1.79c0.38-2.14,0.76-4.24,1.14-6.36c0.35,0.69,0.73,1.38,1.1,2.07c0.12-1.13,0.29-2.29,0.45-3.42
			c0.64,1.19,1.26,2.36,1.9,3.54c0.03-1.54,0.03-3.04,0.07-4.58c0-0.1-0.1-0.44-0.12-0.5c0.31,0.31,0.64,0.63,0.95,0.91
			c0.19-0.6,0.41-1.23,0.6-1.81c1.48,2.79,2.85,4.55,3.57,1.54c0.41,0,0.79,0,1.21,0c0.98,1.13,1.26-0.15,1.1-2.82
			c-0.69-0.79-1.43-1.57-2.12-2.36c1.48-0.72,0.67-1.35-1.9-1.88c-0.1-0.41-0.16-0.82-0.26-1.23c1.67-0.48,1.74-1.44,0.54-2.57
			c-0.38-0.1-0.79-0.1-1.21-0.19c-0.19-0.48-1.1-1.98-1.29-2.44c-0.29-0.6,0.31-0.1,0.1-0.72c-0.07-0.1-0.6,0.29-0.67,0.15
			c-0.54,0-1.52-0.1-2-0.07c-0.67,0.25-1.26-0.1-2.12,1.28c-0.57,0.5-1.02,1.04-1.07,1.5c-0.1,0.63-0.54,0.85-0.67,1.5
			c0.12,1.01,0.26,2,0.38,3.01c-0.03,0.79,1.21,0.63,0.54,1.44c-1.29,1.54-1.52,1.91-1.9,2.85c0.29,0.1,0.57,0.22,0.86,0.31
			c-0.16,0.44-0.31,0.91-0.45,1.35c-0.19,0.44-0.38,0.87-0.57,1.32c0.1,0.07,0.16,0.15,0.26,0.25c0.1,0.22,0.16,0.44,0.26,0.69
			c0.26-0.34,0.54-0.69,0.79-1.04c-0.03,0.25-0.07,0.5-0.1,0.75c0.45-0.25,0.88-0.5,1.33-0.75c0.12,0.19,0.26,0.38,0.38,0.56
			c-1.43,0.82-2.78,1.73-3.42,3.39c-0.35,0.15-0.73,0.31-1.07,0.48c0.07-0.53,0.16-1.1,0.22-1.63c-0.57,0.15-1.1,0.31-1.64,0.5
			c-0.03,0.44-0.07,0.91-0.1,1.35c-0.19-0.5-0.31-1.06-1.1-0.87c0.16-0.19,0.31-0.38,0.48-0.53c0.12-0.19,0.26-0.38,0.38-0.56
			c0.31-0.19,0.64-0.38,0.95-0.6c-0.35,0-0.73,0-1.07-0.03c-0.38-0.12-0.73-0.25-1.07-0.34c0.07-0.34,0.1-0.66,0.16-0.97
			c-0.16-0.63-0.29-1.25-0.45-1.85c-0.12,0.29-1.29,0.29-1.48,0.56c-0.73,1.04,0.12,2.07-0.95,2.67c0.03,0.41,0.79,0.6,0.73,1.06
			c-0.45,0.69-0.88,1.35-1.29,2.04c-0.29,0.53-0.57,1.04-0.86,1.57c-0.38,0.69-1.62,1.47-1.45,2.22c-0.03,0.34-0.07,0.66-0.12,1.01
			c-0.22,0.41-0.48,0.82-0.73,1.23c-1.29,1.04-2.28,2.44-3.16,3.83c-1.1,1.69-2.09,2.7-3.52,4.17c-0.29,0.29-0.64,1.25-0.92,1.5
			c-0.07,0.07-0.16,0.12-0.22,0.19c-0.1,0.07-0.16,0.1-0.26,0.12c0.48-0.07,0.98-0.12,1.45-0.19c0.12,0.19-0.76,1.5-0.6,1.73
			c0.35,0.1,0.48-0.22,0.79-0.15c-0.26,0.75-0.26,1.44-0.54,2.19c0.19,0.38,0.12,0.75,0.29,1.13c0.5,0.82,1.33,2.63,2.24,2.19
			c0.41,0.25,0.92-0.22,1.4-0.29c3.29-1.04,2.47-2.63,4.74-3.3c0.67-0.53,1.36-1.1,2.05-1.63
			C164.49,166.92,166.3,166.67,166.99,166.69L166.99,166.69z M167.91,167.24c-0.26,1.35-0.48,2.57-0.73,3.95
			c-0.48,0.6-0.92,1.19-1.36,1.81c0.41-0.07,0.83-0.15,1.24-0.22c0.57-0.22,0.16-0.29,0.57-0.75c0.64-0.6,1.26-1.19,1.9-1.79
			c0.1,0.25,0.16,0.48,0.26,0.69c-0.12,0.25-0.26,0.53-0.38,0.79c1.62-1.13,3.23-2.29,4.84-3.42c-0.07-0.79-0.12-1.54-0.19-2.29
			c-0.69,0.75-1.36,1.47-2.05,2.22c-0.67,0.22-1.33,0.44-1.96,0.66c0.41-0.53,0.83-1.06,1.24-1.6c-0.07-0.29-0.12-0.6-0.19-0.91
			c-0.29,0.38-0.54,0.72-0.83,1.1c-0.12-0.41-0.22-0.82-0.35-1.23c0.45-0.44,0.88-0.85,1.36-1.28c-0.26-0.15-0.5-0.29-0.76-0.44
			c-0.45,0.6-0.88,1.16-1.36,1.73C168.58,166.38,168.51,167.1,167.91,167.24L167.91,167.24z M303.35,171.99
			c-0.54,0.63-0.88-0.72-1.45-0.12c-1.93,3.79-5.85,6.87-9.52,7.81c0.1,1.6,0.22,3.23,0.31,4.83c-0.03,0.15-1.48,4.65-1.58,4.83
			c-0.12,0.15-0.73,4.17-0.92,4.36c-0.16,0.22-0.22-1.23-0.45-1.01c-0.19,0.22,0.31-3.16,0.1-2.92c-0.22,0.22-0.38,0.66-0.6,0.87
			c-0.22,0.21-0.29,3.64-0.45,3.83c-0.19,0.22-1.14-3.13-1.24-2.94s-0.5-0.6-0.5-0.48c-0.41,0.48,0,4.55-0.57,4.7
			c-0.57,0.15-0.31-2.85-0.92-2.75c-0.6,0.07-0.1,3.86-0.54,4.08c-0.48,0.22-0.16-3.73-0.35-3.13c-0.1,0.15-0.69-1.32-0.88-1.32
			c-0.19,0-0.54,1.42-0.76,1.28c-0.26-0.12,0.29,4.39,0.03,4.2c-0.26-0.19-0.6,3.67-0.88,3.48c-0.26-0.22-0.31-3.69-0.57-3.88
			c-0.26-0.15-0.48-1.06-0.67-1.16c-0.19-0.12,0.16,2.75,0.07,2.75c-0.12,0.03-0.41,2.44-0.41,2.63c-0.22-0.94-0.41-1.85-0.6-2.75
			c-0.41-0.72-0.83-1.44-1.21-2.17c-0.5,1.5-0.41,7.52-0.73,8.53c-0.31,0.87-1.1-3.26-1.26-2.54c-0.19,0.97-0.22,1.91-0.07,3.16
			c-0.26,0.22-0.5,0.44-0.79,0.63c-0.54-0.6-1.07-1.23-1.64-1.81c-0.38,0.63,0.73,1.76,0.31,2.07c-0.29-0.31,0.45,2.75,0.03,2.6
			c-0.86-1.69-1.71-3.39-2.57-5.04c-0.03,0.53-0.07,1.1-0.1,1.63c-0.03,0.53-0.03,1.1-0.07,1.63c-0.5-0.07-0.76-2.1-1.21-1.76
			c-0.16-0.29,0,3.01-0.26,2.82c-0.22,0.66-0.48,1.32-0.69,2c-0.48,0.38-0.95,0.79-1.45,1.16c-0.35,0.53-0.6,0.72-0.98,0.41
			c-0.16-0.1,0.22-0.63-0.45-0.79c-0.19-0.03-0.54,0.56-0.83,0.53c-0.1,0-1.07,0.6-1.17,0.6c-0.12-0.03,0.54-1.35,0.45-1.35
			c-0.12-0.03,0.26-0.53,0.16-0.53c-0.1-0.03-0.54-0.29-0.64-0.29s-0.67,0.25-0.76,0.25c-0.1-0.03-0.57,0.56-0.67,0.56
			c-0.07,0-0.29,0.63-0.35,0.6c-0.07,0-0.73,0.31-0.79,0.31c0-0.56,0.03-1.1,0.03-1.63c-0.45,0.22-0.88,0.44-1.36,0.66
			c-0.41,0.07-0.22-2.07-0.57-2.04c0.1-0.19,0.16-0.41,0.26-0.63c-0.31,0-0.64-0.03-0.95-0.03c-0.12,0.15-0.26,0.31-0.38,0.48
			c-0.03-0.12-0.1-0.25-0.16-0.38c-0.29,0-0.6,0.03-0.88,0.07c0.03,0.15,0.03,0.29,0.07,0.44c-0.26,0-0.5,0.03-0.76,0.03
			c0-0.1,0-0.19,0-0.31c-0.19-0.03-0.41-0.07-0.64-0.1c0,0.15-0.03,0.34-0.03,0.5c-0.38,0.07-0.73,0.15-1.07,0.22
			c-0.31,0.25-0.6,0.53-0.92,0.82c-0.54-0.07-1.07-0.1-1.62-0.15c0.54-0.34,1.1-0.72,1.67-1.1c0.48-0.22,0.95-0.48,1.43-0.69
			c0.12-0.12,0.29-0.22,0.41-0.34c0.07-0.15,0.12-0.34,0.22-0.5c-0.73-0.07-1.45-0.15-2.19-0.22c0.22-0.07,1.29-0.29,1.45-0.31
			c1.74-0.6,1.4-0.79,3.23-0.82c0.03,0.31,0.03,0.66,0.07,0.97c0.54-0.03,1.07-0.03,1.62-0.07c0.07-0.22,0.16-0.44,0.22-0.66
			c0.64-0.53,1.24-1.06,1.86-1.57c-0.03,0.31-0.03,0.6-0.03,0.91c0.5,0.07,1.02,0.12,1.52,0.19c0.86-1.42,1.74-2.79,2.62-4.2
			c1.02-1.6,0.88,1.54,1.9-0.07c0.35-0.56,0.67-1.13,1.02-1.69c0.19-0.5,0.41-1.04,0.6-1.54c-0.41-2.29,1.26,4.92,0.86,2.6
			c0.67-0.5,1.36-1.01,2.05-1.5c-0.19-1.16-0.38-2.36-0.57-3.54c1.1-2.51,1.07-3.45,1.81-6.8c-0.35-0.87-0.69-1.79-1.05-2.7
			c0.19-0.5,0.35-1.04,0.54-1.54c0.31,1.01,0.64,2,0.95,3.01c0.22-0.79,0.48-1.54,0.73-2.29c-0.26-1.54-0.5-3.04-0.73-4.58
			c1.05-0.34,0.83-2.1,0.19-4.36c0.6,0.5,1.21,0.97,1.77,1.47c0.12-3.76-0.95-7.56-2.59-11.32c1.17,1.1,2.09,2.7,2.81,4.67
			c0.45,0.07,0.92,0.12,1.36,0.22c-0.31-1.6-0.07-3.39-0.38-4.99c-0.26-3.35-1.67-1.63-2.24-9.44c0.67,1.47,1.33,3.2,1.9,2.79
			c0.12-2.38,0.29-4.77,0.41-7.15c0.79,1.63,1.62,3.26,2.4,4.86c0.03-1.01,0.07-2,0.1-2.98c-0.22-0.48-0.48-0.91-0.73-1.35
			c-0.16-1.32,0.1-2.48-0.07-3.79c0.48-0.19,0.54-0.56,1.02-0.79c0,1.25,0,2.48,0,3.73c0.26,0.91,0.48,1.79,0.73,2.7
			c0.31,0,0.64,0,0.95,0c0-0.69,0-1.38,0-2.07c0.1-2.19,0.22-4.36,0.31-6.53c0.29-0.31,0.57-0.63,0.83-0.94
			c-0.03,1.01-0.07,2-0.1,3.01c0.35,0.63,0.69,1.23,1.05,1.85c0.29-0.75,0.57-1.5,0.86-2.29c-0.26-1.57-0.5-3.16-0.76-4.77
			c0.07-1.13,0.1-2.26,0.12-3.42c0.67-1.19,0.64-3.42,0.5-5.8c0.31,1.32,0.57,2.79,1.17,3.23c-0.22,0.56-0.45,1.16-0.64,1.76
			c0.38-0.03,0.76-0.07,1.14-0.12c0.29-0.79,0.57-1.57,0.86-2.38c0-0.66,0-1.32,0-1.95c0.41,0.34,0.73-0.1,1.05-0.75
			c-0.03,1.23-0.1,2.44-0.12,3.64c0.19,0.85,0.35,1.66,0.54,2.51c0.31,0.12,0.64,0.25,0.95,0.41c0.16-1.19,0.35-2.36,0.5-3.54
			c0.03-0.53,0.07-1.1,0.12-1.66c0.19-2,0.41-4.02,0.6-5.99c0.16,1.06,0.29,2.44,0.45,3.51c0.41,0.03,0.83-0.25,1.24-0.22
			c0.29-1.81,0.57-3.64,0.86-5.49c0.41-1.28,0.83-2.54,1.24-3.83c0.22,1.06,0.45,2.14,0.64,3.2c-0.07,0.5-0.12,0.97-0.19,1.47
			c0.41,0.19,0.83,0.41,1.24,0.6c0.22-1.19,0.45-2.41,0.64-3.61c0.26,0.44,0.5,0.87,0.73,1.35c0.38-0.75,0.79-1.47,1.17-2.19
			c0.29-1.32,0.54-2.63,0.83-3.92c0.31,0,0.64,0,0.95,0c0.1-1.13,0.22-2.22,0.31-3.32c0.64,1.79,1.26,3.57,1.86,5.4
			c-0.45,0-0.88,0-1.36,0c-0.29,0.31-0.6,0.6-0.92,0.91c-0.26,2.1-0.5,4.17-0.73,6.24c-0.19-0.72-0.38-1.44-0.54-2.19
			c-0.35,0.87-0.69,1.76-1.05,2.6c-0.19,0.72-0.35,1.44-0.54,2.19c-0.31-0.85-0.6-1.66-0.92-2.51c-0.41-0.12-0.79-0.29-1.17-0.41
			c-0.19,2.6-0.41,5.18-0.64,7.78c-0.6-0.72-1.17-1.04-1.62-2.14c-0.26-0.03-0.54-0.53-0.79-0.56c0.26,3.11-0.22,5.74-0.5,8.5
			c-0.35-0.82-0.69-1.66-1.05-2.48c-0.54,1.81-1.05,3.67-1.58,5.49c-0.26-0.03-0.48-0.07-0.73-0.1c-0.03-1.47-0.1-2.92-0.54-4.36
			c-0.45,2.07-0.88,4.14-1.36,6.21c-0.26,1.32-0.54,2.63-0.83,3.95c-0.29-0.34-0.88-0.22-1.17-0.56c-0.45,2.48-0.57,4.43-1.05,6.9
			c-0.26-0.85-0.54-1.66-0.83-2.51c-0.38,2.44-0.76,4.86-1.14,7.28c-0.31-0.56-0.64-1.1-0.95-1.66c-0.26,2.51-0.5,5.04-0.73,7.56
			c-0.29-0.12-0.57-0.25-0.86-0.41c0.16,2.92,0.29,5.8,0.45,8.72c0.73-1.73,1.45-3.45,2.19-5.18c0.12-1.1,0.29-2.17,0.41-3.23
			c0.29,0.66,0.57,1.32,0.86,1.98c0.35-0.19,0.69-0.34,1.05-0.53c-0.19-2.57-0.26-4.99,1.67-4.65c0-1.47,0-2.92,0-4.36
			c0.22-0.94,0.48-1.88,0.73-2.82c-0.07,1.95,0.1,3.51,0.83,4.27c0.19-0.22,0.35-0.41,0.54-0.63c0.1,0.41,0.19,0.85,0.31,1.25
			c-0.12-1.69-0.22-3.39-0.31-5.08c0.16-1.5,0.35-2.98,0.5-4.46c0.38-0.48,0.79-0.91,1.17-1.35c-0.19,0.94-0.35,1.91-0.54,2.89
			c0.29,0.25,0.57,0.5,0.86,0.72c0.41-0.75,0.83-1.5,1.24-2.26c-0.1-0.91-0.19-1.81-0.31-2.7c0.45-0.75,0.86-1.47,1.26-2.19
			c0.12,0.72,0.29,1.44,0.41,2.19c0.03,1.01,0.1,1.98,0.12,2.98c0.22-0.34,0.48-0.69,0.73-1.04c0.16-1.01,0.35-2,0.5-3.01
			c0.26,0,0.5,0,0.73,0c0.07,1.5-0.31,2.41-0.29,3.92c0.16-0.29,0.76,0,0.92-0.29c0.16,0.5,0.29,0.97,0.45,1.47
			c0.1-2.54,0.19-5.04,0.29-7.59c0.29-1.06,0.57-2.14,0.86-3.2c0.22,0.91,0.26,2.07,0.48,3.01c-0.22,0.85-0.26,1.5-0.48,2.38
			c0.31,0.41,0.64,0.82,0.95,1.23c0.35-1.47,0.69-2.98,1.05-4.46c0.19,0.1,0.41,0.22,0.64,0.31c-0.16-1.38-0.29-2.75-0.45-4.14
			c0.48-1.35,0.92-2.7,1.36-4.05c-0.03,1.16-0.07,2.36-0.1,3.51c0.35-0.07,0.69-0.12,1.05-0.19c0.35-1.35,0.69-2.7,1.05-4.05
			c0.07,0.5,0.16,1.04,0.22,1.54c0.35-0.1,0.69-0.19,1.05-0.31c0.16-1.28,0.35-2.54,0.5-3.83c0.35-0.15,0.31-0.03,0.67-0.19
			c-0.19,0.97,0.03,1.69-0.12,2.67c0.48-0.48,0.98-0.97,1.45-1.44c0.22-1.19,0.41-2.36,0.64-3.54c0.31-0.03,0.64-0.07,0.95-0.1
			c0.12-0.85,0.29-1.73,0.41-2.6c0.41,1.47,0.92,1.47,1.45,0.63c-0.03,0.94-0.07,1.88-0.1,2.82c-0.29-0.22-0.57-0.44-0.83-0.63
			c-0.12,0.72-0.22,1.44-0.31,2.17c-0.19-0.34-0.35-0.69-0.54-1.04c-0.6,3.98-1.17,7.97-1.77,11.91c-0.26-0.38-0.48-0.75-0.73-1.13
			c0.19-2.22,0.03-4.1-0.54-5.59c-0.41,3.92-0.83,7.87-1.24,11.83c-0.57-1.91-1.14-3.83-1.67-5.71c-0.5,4.27-0.98,8.56-1.48,12.86
			c-0.41-1.38-0.83-2.75-1.24-4.17c-0.22,1.81-0.45,3.61-0.64,5.4c-0.29-1.38-0.57-2.75-0.86-4.14c-0.12,3.11-0.64,6.02-1.45,8.72
			c-0.31-0.29-0.64-0.56-0.95-0.85c-0.22,0.6-0.48,1.19-0.73,1.79c-0.19-1.13-0.1-1.79-0.31-2.89c-0.5,1.85-1.36,3.23-1.86,5.04
			c-0.12-1.44,0.07-2.6-0.03-4.05c-0.73,2.63-1.77,5.02-2.5,7.68c-0.5-0.94-1.05-1.88-1.55-2.79c-0.22,1.6-0.45,3.23-0.64,4.86
			c-0.69-0.85-1.4-1.73-2.09-2.6c0.1,1.5,0.19,2.98,0.31,4.48c-0.54-0.5-1.05-0.97-1.58-1.47c0.45,2.32,0.35,4.65-0.31,6.96
			c-0.41-1.04-0.83-2.07-1.26-3.11c-0.03,1.23-0.07,2.48-0.1,3.73c-0.5-0.87-1.05-1.73-1.58-2.6c-0.35,0.1-0.69,0.22-1.05,0.31
			c0.48,1.63,0.5,2.85-0.5,3.01c-0.31,0.66-0.64,1.32-0.95,1.98c-0.22,2.85-0.79,4.33-1.86,3.51c-0.57,2.6-1.14,5.21-1.74,7.81
			c0.57,0.15,1.07,0.07,1.1-1.38c0.69-1.19,1.4-2.41,2.09-3.64c-0.12,0.75-0.29,1.47-0.41,2.19c0.26,0.07,0.48,0.12,0.73,0.19
			c0.29-0.03,0.57-0.07,0.86-0.07c0.16-0.97,0.35-1.95,0.5-2.92c0.54-0.6,1.1-1.19,1.67-1.79c0.12-0.53,0.29-1.1,0.41-1.66
			c0.29,0.72,0.57,1.42,0.83,2.1c0.31-1.04,0.64-2.1,0.95-3.13c0.22,0.6,0.41,1.19,0.64,1.79c0.54-0.6,1.05-1.19,1.58-1.79
			c0.07,0.53,0.12,1.04,0.19,1.57c0.29,0,0.48-0.94,0.76-0.94c0.19-2.17,0.45-3.42,0.6-5.59c0.73-0.48,1.48-0.91,2.21-1.35
			c0.41-1.47,0.83-2.92,1.24-4.36c0.29,0.5,0.57,1.04,0.86,1.54c0.76-0.97,1.33-2.41,1.67-4.36c0.16,0.79,0.12,1.69,0.31,2.44
			c0.69-0.19,1.26-1.13,1.55-2c0.54-0.22,1.05-0.44,1.58-0.63c0.26-2.57,0.48-5.11,0.73-7.68c0.73,1.1,1.14,3.23,0.88,5.55
			c0.64-0.87,0.88-1.88,1.52-2.75c-0.03,1.54,0.12,3.01,0.1,4.51c1.17-1.19,1.71-3.45,2.31-6.17c0.31-1.95,0.64-3.92,0.95-5.9
			c-0.1,2.63-0.22,5.27-0.31,7.87c1.24-1.13,2.21-3.16,3.04-5.71c0.57-1.35,1.1-2.7,1.67-4.05c0.29-2.94,0.54-5.93,0.83-8.91
			c0.22,2.38,0.45,4.77,0.64,7.15c0.54-0.94,1.05-1.85,1.58-2.79c0.31-0.66,0.64-1.32,0.95-1.98c0.12,0.85,0.26,1.66,0.41,2.48
			c0.69-1.13,1.4-2.26,2.09-3.42c-0.07-0.48-0.12-0.97-0.22-1.44c0.5-0.19,0.83-1.01,1.17-1.66c0.07,2.1,0.83,2.29,0.95,3.32
			c0.31-0.41-0.03-1.25,0.29-1.66c0.07-1.73,0.26-3.26,0.31-4.99c-0.16-2-0.35-4.02-0.5-6.02c0.29,0.1,0.6,0.97,0.88,1.04
			c1.1,2.41,2.19,4.02,3.29,6.46c-0.79-0.94-1.62-1.88-2.4-2.82c0.64,1.81,1.26,3.61,1.9,5.4c-0.54-0.34-1.07-0.69-1.58-1.04
			c0.98,1.91,1.45,3.88,1.58,5.93c-0.57-0.94-1.14-1.88-1.67-2.82c-0.26,1.81-0.5,3.61-0.76,5.4c-0.48-0.85-0.95-1.73-1.45-2.57
			c-0.29,1.98-0.57,3.92-0.83,5.9c-0.31-1.23-0.64-2.48-0.95-3.73c-0.35,2.44-0.69,4.92-1.05,7.37c-0.29-0.79-0.57-1.6-0.86-2.38
			c-0.6,2-1.24,4.02-1.86,6.02c-0.41-0.82-0.86-1.6-1.26-2.38C309.08,167.14,306.42,169.9,303.35,171.99L303.35,171.99z
			 M166.75,139.29c-0.16-0.12-0.31-0.22-0.45-0.34c0.31-0.38,0.67-0.72,1.07-0.94c-0.38-0.63-0.26-1.28,0.03-2
			c0.22-0.19,0.45-0.38,0.67-0.56c0.26-0.03,0.48-0.03,0.73-0.07c-0.16-0.19-0.31-0.38-0.48-0.56c-0.26,0.03-0.5,0.1-0.73,0.12
			c0-0.19,0-0.38,0-0.6c-0.16,0-0.31-0.03-0.5-0.03c-0.22,0.25-0.48,0.5-0.69,0.75c0,0.66-0.26,1.04-0.57,1.35
			c0.03,0.29,0.07,0.53,0.1,0.79c0.16,0.07,0.29,0.12,0.41,0.19c-0.1,0.1-0.22,0.19-0.31,0.29c0,0.1-0.03,0.22-0.03,0.34
			c0.12,0.03,0.38,0.1,0.54,0.15c-0.29,0.1-0.67,0.19-0.95,0.31c0.12,0.07,0.22,0.1,0.31,0.15c-0.12,0.12-0.26,0.29-0.38,0.41
			C165.92,139.1,166.33,139.19,166.75,139.29L166.75,139.29z"/>
		<polygon class="st5" points="146.05,59.23 151.24,75.19 168.16,75.16 154.47,85.01 159.71,100.94 146.05,91.06 132.38,100.94 
			137.64,85.01 123.93,75.16 140.83,75.19 		"/>
		<path class="st8" d="M156.3,210.45c-1.43-2.19-1.24-3.26-3.6-5.52c0.54,1.79,1.1,3.57,1.67,5.4c-2.78-2.7-4.02-1.91-6.04-2.85
			c1.14,1.42,2.05,2.1,3.16,3.51 M152,211.17c-1.58-1.38-3.67-1.42-5.54-1.54c1.81,1.01,3.26,1.95,3.26,4.2 M149.56,212.76
			c-2.38-1.19-2.69-0.38-3.83-0.53c-1.36-0.19-2.05,0.22-3.52,0.31c1.52,0.82,3.04,1.63,4.55,2.44c-1.96-0.25-3.14-0.29-4.65,1.1
			 M210.62,209.44c1.17-0.29,2.15,0.31,3.35-0.15c-0.45,1.57-1.9,1.63-2.69,3.51 M208.37,208.25c1.58-0.15,2.85-1.47,4.14-2.63
			c-0.45,2.54-1.58,3.35-2.43,5.18 M202.27,212.52c0.54-2.26,0.45-3.76,1.77-5.74c0.54,1.28,0.86,3.26,1.07,4.77 M205.12,209.92
			c1.17-2.04,2.21-2.48,3.57-3.95c-0.54,1.98-0.6,3.48-1.1,5.42 M211.82,211.92c1.45-0.1,2.59,0.63,3.86,0.53
			c-0.76,0.48-0.92,0.91-1.67,1.38 M213.41,213.83c1.21-0.03,2.21,0.34,3.16,0.97c-0.86,0.66-1.83,1.13-2.97,1.38 M222.24,216.4
			c-0.26-2.19,0.26-3.35-0.31-6.02c1.1,1.6,1.67,2.89,2.78,4.48c-0.16-1.28-0.48-2.6-0.64-3.88c0.79,1.16,1.58,2.29,2.38,3.45
			c-0.07-2.17-0.92-3.86-1.58-6.02c2.91,2.94,2.69,4.39,4.02,6.72 M228.4,214.3c0.03-1.25,0.07-1.88,0.1-3.11
			c0.57,0.94,1.64,1.85,2.19,3.61 M230.39,213.99c0.45-1.6,0.69-2.04,1.33-3.42c0.12,1.44,0.35,2.41,0.48,3.86 M236.09,212.23
			c-0.76,0.34-1.48,1.42-2.24,2.57c0.38-1.63,0.98-2.75,1.4-4.39c-1.02,1.1-2.19,1.66-3.19,2.73 M216.25,217.44
			c-0.03-0.87-0.07-1.76-0.1-2.63c0.12,0.6,1.62,2.26,1.74,2.82 M296.23,211.76c0.73-0.03,1.58,0.19,2.31,0.15
			c-0.5,0.85-1.21,1.44-1.74,2.29c0.98-0.1,1.9-0.41,2.72-0.25 M333.22,216.84c1.24-0.5,2.38-0.12,3.73-0.31
			c-0.73,0.69-1.52,0.91-2.21,1.6c0.86-0.07,1.71-0.07,2.57,0.6 M353.77,204.55c0.98-0.82,1.96-1.63,2.95-2.44
			c-0.38,0.91-0.79,1.81-1.17,2.73c1.45-0.94,3.57-0.56,5.26-1.04c-0.69,1.19-1.52,2.38-2.34,2.92 M359.6,205.93
			c2.62-0.34,3.92,0.22,6.52-0.1c-2.57,0.75-3.79,2.29-5.73,3.61 M362.16,208.16c1.07,0.12,1.86,0.63,2.95,0.75
			c-0.92,0.5-1.52,0.69-2.43,1.19c1.17-0.25,2.34-0.22,3.54,0.12 M282.69,218.13c0.38-2.04,2.12-2,1.07-6.15
			c0.69,1.35,1.81,1.32,2.4,3.13 M285.76,215.68c0.1-1.63,0.83-2.26,0.45-4.48c1.24,0.79,1.21,2.19,1.83,3.32
			c-0.12-2.89,1.43-4.58-0.45-7.81c1.71,0.79,2.47,2.41,2.4,6.05c0.26-1.23,0.54-2.41,0.79-3.64c0.26,1.44,0.54,2.89,0.79,4.29
			c0.22-2.63,1.33-3.64,2.4-5.42c-0.22,1.88-0.41,3.08-0.64,4.96 M293.82,212.11c1.43-0.91,2.31-2.79,3.76-3.7
			c-0.79,1.81-1.36,3.3-2.15,5.14 M324.41,212.3c0.92-0.03,1.62-0.44,2.21-0.72c-1.14,1.01-1.29,2.57-1.86,3.57 M324.96,214.62
			c1.67-1.16,3.23-1.28,4.74-2.17c-0.67,1.04-1.52,1.6-2.19,2.67c2.47-1.13,4.17-2.17,7.53-2.51c-2.4,1.1-2.76,2.07-4.27,3.3
			c1.1-0.19,2-0.38,3.38-0.25c-0.67,0.82-1.52,1.06-2.02,2.19 M315.97,212.76c0.92-1.73,2.66-2.89,4.33-4.1
			c-1.21,1.95-0.67,2.98-1.55,4.61 M319.58,212.01c2.66-2.67,4.81-2.14,7.62-3.67c-1.77,1.35-2.43,3.39-3.64,5.08 M143.4,203.51
			c0.45,0.38,0.57,0.82,1.02,1.16"/>
		<path class="st6" d="M226.98,150.33c0.92,0.72-0.35,1.63,0.45,2.6c-0.79-0.5,1.64,0.34,0.88-0.15c0.07,0.5,0.41,0.53,0.5,1.04
			c-0.41-0.29-0.88,0.94-1.29,0.66c0.07,0.79-3.83,1.01-3.76,1.76c-0.03-0.1-0.07,0.29-0.41,0.41c-0.31,0.1-0.86-0.19-1.26-0.03
			c-0.57,0.25-1.33,1.95-1.55,2.07c-1.24,0.72-1.17,1.6-1.55,1.54c-0.19-0.69-1.05-1.66-0.22-1.6c0.19-0.38,0.69-2,0.92-2.38
			c-0.1-0.44,0.1-2.57,0.03-2.94c-0.03-0.41,1.17-1.01,1.17-1.38s0.92,0.1,0.95-0.25c0.07-0.34-0.26,0.97-0.19,0.66
			c0.1-0.31-0.22,1.32-0.12,1.04c0.12-0.25-0.67,1.13-0.5,0.87c0.12-0.22,1.29,0.25,1.48,0.07c0.16-0.19-0.22-1.76-0.03-1.91
			c0.16-0.1,0.67-0.79,0.79-0.91c0.16-0.12,0.76-0.34,0.88-0.5c0.12-0.12,0.26,1.73,0.38,1.57c0.12-0.15-0.54,0.94-0.45,0.79
			c0.12-0.15,0.69,0.29,0.79,0.12c0.12-0.15,0.35-0.53,0.45-0.66c0.1-0.13,0.54-1.23,0.64-1.32c0.1-0.12,0.19-0.85,0.29-0.91
			C226.82,149.99,226.57,149.17,226.98,150.33L226.98,150.33z M220.43,167.73c-0.07-0.56-0.1-1.13-0.16-1.69
			c0.6,0.41,1.21,0.85,1.81,1.28c0.1,1.1,0.22,2.17,0.35,3.26c-0.48,0.15-0.92,0.31-1.4,0.48c-0.38,0.72-0.76,1.44-1.17,2.17
			c0,0.44-0.03,0.87-0.07,1.28c-0.54,0.44-1.07,0.87-1.64,1.32c-0.41,0.82-0.83,1.63-1.24,2.44c-0.35,0.66-0.73,1.28-1.07,1.95
			c-0.1-0.38-0.19-0.75-0.29-1.13c-0.22,0.41-0.41,0.85-0.64,1.28c-0.5,0.44-1.05,0.91-1.55,1.35c0-1.06,0.03-2.14,0.07-3.2
			c0.38-0.69,0.76-1.38,1.17-2.1c0.41-1.1,0.86-2.22,1.29-3.32c0.6-0.12,1.17-0.29,1.77-0.41c0.12-0.6,0.29-1.19,0.41-1.76
			c0.5-0.48,1.02-0.91,1.52-1.38c-0.16-0.48-0.29-0.94-0.41-1.42C219.6,168.01,220.02,167.86,220.43,167.73L220.43,167.73z
			 M184.46,153.24c0.5,0,1.02,0.03,1.48,0.07c-0.03,0.72-0.03,1.47-0.07,2.19c-0.31-0.25-0.6-0.5-0.88-0.72c0,0.87,0,1.76,0,2.63
			c-0.48-0.25-0.95-0.5-1.43-0.75c0.1,0.56,0.16,1.13,0.22,1.69c-0.45,0.94-0.88,1.85-1.33,2.79c-0.5,0-1.02,0-1.55,0
			c0.16-0.91,0.31-1.81,0.45-2.73c0.29-0.1,0.54-0.22,0.83-0.34c0-0.82,0-1.63,0-2.41c0.35-0.6,0.69-1.19,1.05-1.76
			c0.35-0.07,0.67-0.12,1.02-0.15C184.33,153.56,184.39,153.41,184.46,153.24L184.46,153.24z M166.94,156.1
			c0.26,0,0.48,0.03,0.73,0.03c0.54-0.63,1.05-1.25,1.55-1.88c0.22-0.63,0.45-1.23,0.69-1.85c0.6-1.13,0.35-1.73-0.48-2.57
			c-0.19,0.48-0.54,0.6-0.69,1.04c-0.41-0.03-0.79-0.07-1.21-0.12c-0.38-0.19-0.76-0.41-1.17-0.6c0-0.25,0-0.5,0-0.75
			c-0.88,1.28-1.81,2.48-3.14,3.13c-0.22,0.29-0.45,0.53-0.64,0.82c0.83,0,1.64,0.03,2.47,0.07c-0.07,0.72,0.1,1.23,0.03,1.98
			c0.64,0.19,1.43-0.34,1.83-0.75C166.94,155.1,166.94,155.6,166.94,156.1L166.94,156.1z M176.61,132.61
			c0.07,0.22,0.6,0.44,0.69,0.66c0.45,0.03,0.45-0.25,0.88-0.25c-0.1-0.94,0.26-2.44-0.92-2.7c-0.35,0.1-0.83,0.15-1.21,0.19
			c-0.48,0.03,0.1,0.79-0.31,0.85c-0.38,0.82-1.05,1.04-1.43,1.85c0,0.75-0.03,1.54-0.07,2.29c0.19,0.34,0.38,0.41,0.57,0.75
			c-0.19,0.15-0.38,0.6-0.57,0.75c-0.03,0.53,0.48,0.53-0.03,1.23c0.41,0.07,0.69,0.44,1.1,0.5c0.35-0.29,0.69-0.56,1.05-0.85
			c0-0.34,0-0.69,0-1.04c0.19,0.07,0.38,0.12,0.57,0.15c0.1,0.25,0.19,0.48,0.29,0.69c0.26-0.07,0.5-0.12,0.76-0.19
			c-0.22-0.19-0.41-0.38-0.64-0.53c0-0.6,0-1.19,0-1.79c-0.38-0.41-0.79-0.79-1.17-1.16c0.19-0.15,0.38-0.29,0.57-0.44
			C176.71,133.17,176.65,133.05,176.61,132.61L176.61,132.61z M168.23,157.6c0.19-0.19,0.38-0.34,0.57-0.53
			c-0.1,0.75-0.22,1.5-0.35,2.26c-0.54,0.41-1.07,0.85-1.58,1.28c-0.22-0.07-0.41-0.1-0.6-0.15c0.03,0.34,0.07,0.69,0.1,1.01
			c0.26,0.1,0.5,0.19,0.79,0.31c-0.73,0.03-1.45,0.1-2.19,0.12c-0.19-0.25-0.38-0.53-0.57-0.79c-0.48,0-0.92,0-1.4,0
			c0.19,0.22,0.38,0.44,0.57,0.66c-0.03,0.29-0.1,0.6-0.12,0.91c-0.69,0.03-1.43,0.07-2.12,0.1c-0.12-0.22-0.22-0.44-0.35-0.66
			c-0.31,0.07-0.64,0.1-0.95,0.15c-0.35,0.63-0.73,1.28-1.07,1.91c0,0.5,0.03,0.97,0.07,1.44c0.38-0.22,0.76-0.48,1.17-0.72
			c0.5,0.12,1.02,0.25,1.52,0.38c-0.19,0.72-0.35,1.44-0.5,2.17c-1.17,0.12-2.31,0.29-3.45,0.44c-0.92,0.44-1.86,0.85-2.78,1.28
			c0-0.56,0-1.13,0.03-1.66c-0.22-0.03-0.41-0.03-0.6-0.07c0.1-0.85,0.22-1.66,0.31-2.51c0.22-0.19,0.45-0.34,0.67-0.53
			c0.03-0.38,0.07-0.72,0.1-1.06c1.26-1.13,2.57-2.26,3.83-3.39c0.5-0.25,1.02-0.53,1.52-0.79c0-0.44,0-0.87,0-1.28
			c0.69-0.63,1.36-1.25,2.02-1.88c0.31,0.1,0.64,0.19,0.95,0.29c-0.26,0.5-0.54,1.01-0.79,1.5c0.16,0.03,0.35,0.07,0.5,0.1
			c0.38-0.41,0.73-0.82,1.07-1.23c0.1-0.19,0.16-0.38,0.22-0.6c0.41,0.34,0.79,0.69,1.17,1.01c0.31-0.07,0.64-0.12,0.95-0.19
			c-0.45,0.38-0.5,0.75-0.95,1.13c0.26,0.31,0.12,0.63,0.38,0.94c0.41-0.53,0.86-1.06,1.29-1.57
			C167.85,157.45,168.04,157.51,168.23,157.6L168.23,157.6z M190.44,196.71c0.45,0.12-3.67,3.01-3.14,2.89
			c-0.07-1.01,0.41-0.03,1.55,0.66c0.5-0.19,1.26-0.31,1.77-0.53c0.5-0.19,0.45-0.15,0.95-0.41c0.5-0.25,2.31-0.48,2.78-0.75
			c-0.1-0.91,1.71-1.5,2.78-1.16c0.48-0.31,1.33-1.25,1.81-1.6c0.45-0.34-0.6,1.38-0.16,1.01c2.05-1.35-1.74,1.23-0.03,2.1
			c0.45-0.44,0.22,0.44,0.64-0.03c0.41-0.44,0.67-1.5,1.07-1.98c-0.16-1.54,1.24-1.66,1.21-2.14c0.26-0.12-0.6,0.6-0.1,1.69
			c0.19-0.29,0.79,0.5,1.14,0.19c0.35-0.31-0.1-1.38,0.07-1.69c0.5-0.6,0.98-1.23,1.45-1.85c0.26,0.56,0.54,1.13,0.79,1.73
			c0.54-0.75,1.07-1.47,1.62-2.22c0.26-0.91,0.5-1.81,0.76-2.73c0.31-0.63,0.64-1.25,0.95-1.88c0.41-0.63,0.83-1.25,1.24-1.88
			c0.31-1.28,0.6-2.54,0.92-3.83c-0.76,0.38-1.52,0.75-2.28,1.16c-0.57,0.82-1.17,1.66-1.74,2.51c-0.29,0.5-0.57,1.04-0.86,1.54
			c-0.86-0.53-0.41-2.41-1.52-2c-0.76,3.42-4.52,5.37-3.83,5.68c-0.64-0.5-0.12-1.66-0.92-1.81c-0.57,0.79-0.69,2.14-1.29,2.82
			c-0.6,0.69,0.1-1.98-0.57-1.35c-0.6,0.63-0.6,1.6-0.95,1.66c-1.77-0.75-0.35-0.31-0.73-0.53c-0.86,1.13-1.93,2.85-2.76,3.2
			c-0.83,0.34,1.33-2.54,0.35-2.19C193,194.11,190.75,195.2,190.44,196.71L190.44,196.71z M241.88,136.09
			c0.73,0.19-1.48,1.23-0.76,1.42c-0.19-0.6,2.21,0.34,1.64-0.22c2.05-0.19-3.73,1.66-1.64,2.73c-0.19-0.44,2.66,1.23,2.43,0.79
			c2-0.53,6.74,2.38,6.14,2.54c-1.02-1.42,1.07-2.22,0.12-2.22c1.58-0.75-2.28-1.57-0.07-0.85c-0.88-0.38-0.79-0.03-1.67-0.41
			c-1.45-0.91,1.74-0.25,1.81-1.47c-0.35,0.25,0.45-1.06,0.1-0.82c0.12,0.48-0.54,0.44-1.96-0.12c-1.14-0.31,1.24-0.38,0.1-0.69
			c0.12,0.72-1.1,0.15-1.96,0.19c-0.48-0.34-0.07-0.53-0.54-0.85c0.31-0.63-2.28-0.56-0.83-0.69c-0.45-0.12,1.74-1.6,1.26-1.73
			c-1.55,0.63-1.48-0.44-3.07,0.19c0.76,0.25-3.79-0.6-3.04-0.34c-0.83,0.15,0.31,1.69-0.5,1.85
			C239.95,135.77,241.38,135.72,241.88,136.09L241.88,136.09z M235.36,135c-1.17-0.48,4.14,1.1,2.97,0.66c1.77,0-3,3.13-2.78,1.91
			c0.07,0.53,2.95,0.75,3,1.28c-0.95,0.5-1.86,1.01-2.81,1.54c1.21-0.03,2.43-0.07,3.64-0.07c0.16,0.22,0.35,0.48,0.5,0.69
			c-0.64,0.07-1.29,0.12-1.93,0.22c0.54,0.29,1.1,0.6,1.67,0.87c0.45-0.07,0.86-0.12,1.29-0.19c0.29,0.38,0.57,0.75,0.86,1.16
			c0.57,0.34,3.45-0.94,3.9,0.15c-0.35,0,2.97,1.57,2.62,1.57c0.19,1.35,0.29,1.73-0.1,3.08c-0.26-0.12-0.41,0.69-0.67,0.56
			c0.22,1.1-0.41,0.63-0.22,1.69c-0.26-0.03-0.5,0.56-0.76,0.53c0.1,0.91-0.38,0.94-0.26,1.85c-0.29-0.1-0.57-0.19-0.86-0.31
			c-1.52,0.22-2.15,1.73-2.66,3.39c-0.98,0.48-1.96,0.94-2.95,1.44c0.57-0.07,1.17-2.38,1.71-2.44c0.03-1.73,1.21-0.69,0.67-2.22
			c-0.54-2.32,2.21-2.85,0.16-4.48c0.5,0.29-1.48,0.25-3.35,0.79c-2.47,1.25-5.19,2-6.02,1.98c0.26-0.53,1.43-2.32,1.67-2.82
			c0.1,0.38-1.4-0.5-1.29-0.12c-0.45,0.29-0.92,0.6-1.4,0.91c-0.31,0.22-0.64,0.44-0.95,0.66c-0.07,0.29-0.16,0.6-0.26,0.87
			c-0.29-0.12-0.6-0.25-0.88-0.38c0.1-0.5,0.19-0.97,0.31-1.47c0.41-0.38,0.86-0.72,1.29-1.1c0.79-0.44,1.58-0.91,2.4-1.35
			c-0.76-0.07-1.48-0.12-2.21-0.19c-0.41,0.41-0.83,0.82-1.24,1.23c-0.64,0.34-1.29,0.72-1.93,1.1c-0.1-0.29-0.16-0.56-0.22-0.85
			c0.76-0.69,1.52-1.42,2.28-2.14c-0.03-0.25-0.03-0.53-0.07-0.82c-0.41,0.1-0.83,0.15-1.24,0.25c-0.48,0.44-0.95,0.91-1.43,1.35
			c-0.98,0.25-1.93,0.48-2.91,0.72c-0.35,0.25-0.69,0.5-1.05,0.75c-0.07-0.5-0.12-0.97-0.19-1.47c1.21-0.94,2.4-1.88,3.64-2.82
			c0.54-0.82,1.07-1.63,1.62-2.44c-0.79,0.38-1.62,0.72-2.4,1.1c-0.38,0.44-0.79,0.87-1.17,1.35c-0.41,0.03-0.86,0.1-1.29,0.12
			c0.16-0.5,0.31-1.04,0.48-1.54c1.07-1.5,2.19-3.01,3.29-4.51c-0.1-0.25-0.22-0.5-0.31-0.75c-0.76,0.44-1.52,0.87-2.28,1.35
			c-0.19,0.22-0.38,0.48-0.57,0.69c-0.29-0.1-0.57-0.22-0.86-0.31c0.35-0.5,0.69-1.04,1.05-1.54c0.5-0.22,1.05-0.44,1.55-0.66
			c0.03-0.38,0.1-0.75,0.12-1.16c-0.29,0.31-0.57,0.63-0.86,0.91c-0.54,0.12-1.1,0.25-1.67,0.38c-0.26,0.19-0.5,0.34-0.76,0.53
			c0-0.38,0.03-0.72,0.07-1.1c0.54-0.56,1.1-1.16,1.67-1.73c-0.19-0.25-0.38-0.48-0.6-0.72c-0.26,0.31-0.54,0.66-0.83,0.97
			c-0.26-0.03-0.54-0.1-0.79-0.12c-0.54,0.38-1.07,0.75-1.62,1.16c-0.22-0.12-0.45-0.29-0.67-0.41c0-0.34,0-0.66,0-1.01
			c0.41-0.34,0.79-0.66,1.17-0.97c-0.69-0.97-1.43-1.95-2.12-2.89c-0.67-0.12-1.29-0.22-1.96-0.34c-0.69,0.07-1.36,0.1-2.05,0.12
			c0.26-0.44,0.5-0.87,0.76-1.35c0.1,0.15,0.19,0.31,0.26,0.48c1.17-0.66,2.31-1.35,3.45-2c2.76,0,5.5-0.03,8.23-0.07
			c0.1,0.53,0.19,1.06,0.29,1.6c-0.22,0.29-0.45,0.56-0.67,0.85c0.45,0.31,0.92,0.6,1.36,0.91c0.45-0.19,0.86-0.34,1.29-0.53
			c0.31,0.22,0.6,0.41,0.92,0.6c0,0.56,0,1.1,0,1.66c0.64-0.07,1.29-0.12,1.93-0.19c0.5,0.6,1.02,1.19,1.48,1.79
			c0.38,0,0.76,0,1.1,0c0.07,0.34,0.1,0.69,0.12,1.04C235.86,134.46,235.62,134.74,235.36,135L235.36,135z M215.93,150.49l0.76-0.44
			l-0.03-0.48l-0.92,0.12l-0.22-0.79l0.76-0.94l-0.41-0.34l1.67-1.88l0.69-3.08l0.95-1.35l-0.88-0.19l-0.88,0.5l-0.88,1.06
			l-0.54-0.66l0.69-0.91l0.19-2.14l-1.26-1.13l-0.88,0.38l-0.31-1.28l-0.07-3.08l-0.57-0.31l-0.83-0.03l-0.64-0.69l-0.86,0.03
			l-0.57-0.79l-1.96-0.72l-0.57,0.41l-1.26-0.29l-0.67,0.75l-1.17,0.25l-0.16,1.19l-0.83-0.15l-0.79,0.6l-0.92,0.03l-1.17,2.26
			l-1.26,0.6l1.24,0.5l1.21-0.48l0.57-1.25l2.12-0.72l-0.48,0.91l-0.48,0.75l-0.98,0.85v1.1l-0.88,0.79l-0.54,1.35l-0.35,1.01
			l1.58-0.29l0.1-0.66l0.73-0.03l0.03-0.6l0.88-1.16l-0.03,1.38l-0.45,0.72l0.6,0.1l0.67-0.48l1.21-1.66l0.83-1.5l0.41,1.19
			l-0.64,0.41l0.19,0.75l-0.64,1.5l2.02-2l0.26,0.63l-0.92,0.6l0.03,0.6l-0.73,0.63v0.85l0.92,0.29l1.17-1.54l0.57-0.87l0.67,0.75
			l-1.26,2.19l-1.45,2.07l-0.79,1.5l0.64,1.19l2-2.85l0.19,0.82l1.05-0.79l-0.19-0.5l0.22-0.66h1.62l-0.95,0.34l0.07,0.69
			l-0.86,0.91l-0.54,0.91l0.54,0.79l0.54-0.6l1.14,0.15l-0.07,1.19l0.38,0.29l-0.22,2.29l-0.35,0.44v1.13l1.14-0.15l-0.79,1.28
			l-0.16,0.85l2.12-1.6l0.1-1.32c-0.16-0.12-0.31-0.25-0.48-0.38L215.93,150.49z"/>
		<g>
			<path class="st9" d="M63.13,295.25l2.34,5.56L63.82,302l-0.35-0.82c-0.1-0.23-0.29-0.32-0.56-0.28c-0.28,0.06-0.6,0.21-0.98,0.49
				l-8.68,6.29l1.94,4.61l8.24-5.97c0.62-0.45,1.05-0.84,1.24-1.14c0.2-0.3,0.25-0.6,0.12-0.89l-0.29-0.7l1.65-1.19l2.34,5.56
				l-1.65,1.19l-0.31-0.75c-0.12-0.29-0.32-0.4-0.61-0.34c-0.29,0.06-0.68,0.27-1.18,0.63l-20.03,14.51
				c-0.59,0.42-0.99,0.8-1.21,1.12c-0.22,0.32-0.28,0.59-0.19,0.81l0.35,0.84L42,327.18l-2.34-5.56l1.65-1.19l0.36,0.85
				c0.1,0.23,0.29,0.32,0.56,0.25c0.27-0.07,0.67-0.3,1.22-0.69l9.55-6.93l-1.94-4.61l-9.55,6.93c-0.51,0.38-0.87,0.7-1.07,0.96
				s-0.27,0.49-0.19,0.66l0.4,0.97l-1.65,1.19l-2.34-5.56l1.65-1.19l0.38,0.9c0.09,0.21,0.27,0.28,0.54,0.2
				c0.27-0.08,0.67-0.3,1.19-0.69l19.99-14.49c0.62-0.45,1.04-0.83,1.24-1.14c0.2-0.31,0.25-0.61,0.13-0.87l-0.29-0.7L63.13,295.25z
				"/>
			<g>
				<path class="st9" d="M49.34,338.17c-1.96,1.8-3.25,3.13-3.85,3.95c-0.38,0.53-0.5,0.92-0.38,1.16c0.12,0.22,0.37,0.3,0.74,0.22
					c0.38-0.09,1.08-0.43,2.12-1.06l0.46,0.87c-1.94,1.24-3.62,1.95-5.03,2.11c-1.42,0.17-2.34-0.17-2.79-1
					c-0.44-0.83-0.28-1.81,0.47-2.96c0.75-1.15,2.38-2.62,4.88-4.4c-0.27-0.22-0.52-0.48-0.76-0.74c-0.23-0.27-0.44-0.58-0.6-0.9
					c-1.07-2.04-0.69-4.58,1.17-7.64c1.85-3.06,4.75-5.86,8.71-8.41c3.96-2.54,7.6-3.96,10.9-4.24c3.31-0.28,5.51,0.62,6.6,2.68
					c1.09,2.07,0.73,4.65-1.13,7.72c-1.85,3.08-4.68,5.85-8.5,8.31c-2.35,1.52-4.56,2.62-6.66,3.33
					C53.61,337.86,51.49,338.2,49.34,338.17L49.34,338.17z M53.13,334.51c2.31-1.05,4.88-2.49,7.7-4.3
					c2.87-1.85,5.02-3.45,6.47-4.83c1.45-1.38,2.42-2.61,2.88-3.7c0.47-1.08,0.5-2,0.1-2.74c-0.39-0.75-1.16-1.16-2.28-1.23
					c-1.13-0.07-2.47,0.22-4.05,0.9c-2.22,0.95-4.81,2.38-7.77,4.28c-3.55,2.29-6.21,4.35-7.95,6.18c1.72-1.06,3.2-1.63,4.45-1.68
					c1.26-0.06,2.13,0.4,2.65,1.36c0.37,0.7,0.37,1.54,0,2.5C54.98,332.18,54.25,333.28,53.13,334.51L53.13,334.51z M48.32,335.54
					l0.99-0.61c1.73-1.12,2.95-2.15,3.63-3.09c0.68-0.94,0.87-1.71,0.55-2.31c-0.27-0.52-0.86-0.73-1.77-0.64
					c-0.9,0.09-1.89,0.46-2.95,1.15c-0.98,0.63-1.82,1.4-2.53,2.32c-0.19,0.81-0.16,1.46,0.12,1.97c0.2,0.38,0.47,0.66,0.79,0.87
					C47.47,335.39,47.88,335.5,48.32,335.54z"/>
				<path class="st9" d="M85.77,342.1l2.86-1.69l0.59,0.6l-9.05,9.33l-0.75-0.75c2.43-2.87,3.97-5.25,4.63-7.18
					c0.65-1.92,0.57-3.3-0.26-4.13c-0.9-0.92-2.49-0.85-4.74,0.2c-2.25,1.04-5.17,3.32-8.75,6.86c-3.78,3.73-6.27,6.84-7.46,9.3
					c-0.92,1.95-0.87,3.44,0.15,4.46c1.02,1.03,2.6,1.17,4.73,0.45c1.54-0.52,3.44-1.69,5.68-3.51l0.73,0.73
					c-2.8,2.42-5.39,3.94-7.78,4.57c-2.39,0.63-4.22,0.31-5.49-0.96c-1.64-1.65-1.9-4.13-0.78-7.43c1.13-3.31,3.42-6.68,6.9-10.11
					c3.86-3.81,7.58-6.21,11.16-7.19c3.05-0.84,5.3-0.52,6.75,0.95c0.58,0.58,0.94,1.29,1.08,2.12
					C86.12,339.56,86.06,340.68,85.77,342.1z"/>
				<path class="st9" d="M94.68,345.47L80.85,371.7c-0.38,0.74-0.58,1.28-0.59,1.65c-0.01,0.35,0.11,0.65,0.4,0.87l0.5,0.39
					l-1.32,1.55l-6.5-4.82l1.32-1.55l0.6,0.46c0.47,0.37,0.98,0.38,1.32,0.33c0.33-0.06,0.64-0.23,0.9-0.55
					c0.21-0.24,0.41-0.56,0.61-0.94l2.86-5.41l-5.11-3.96l-2.27,1.71c-0.95,0.72-1.6,1.29-1.95,1.71c-0.61,0.73-0.97,1.43-1.06,2.11
					c-0.09,0.69-0.18,1.48,0.33,1.88l0.41,0.25l-1.32,1.55l-4.85-4.18l1.32-1.55l0.29,0.23c0.33,0.25,0.78,0.3,1.36,0.1
					c0.81-0.25,1.67-0.73,2.58-1.42l22.97-17.45L94.68,345.47L94.68,345.47z M87.86,350.6l-10.22,7.77l4.35,3.37L87.86,350.6z"/>
				<path class="st9" d="M98.61,350.88l1.17-1.69l6.72,4.91l-1.17,1.69l-1.13-0.83c-0.32-0.23-0.64-0.27-0.95-0.11
					c-0.31,0.17-0.66,0.53-1.06,1.11l-14.02,20.21c-0.57,0.82-0.87,1.39-0.9,1.71c-0.03,0.32,0.18,0.64,0.64,0.97l1.89,1.38
					c0.7,0.51,1.84,0.3,3.4-0.64c1.57-0.94,3.57-2.81,6-5.62l0.78,0.56l-7.51,10.2l-11.91-7.89l1.17-1.69l1.16,0.85
					c0.26,0.19,0.54,0.19,0.86,0.01c0.31-0.18,1.04-1.03,1.37-1.52l14.41-20.79c0.35-0.5,0.54-0.92,0.56-1.24
					c0.02-0.32-0.12-0.61-0.46-0.84L98.61,350.88z"/>
				<path class="st9" d="M110.91,356.45l7.31,4.6l-1.05,1.78l-1.33-0.87c-0.28-0.19-0.56,0-0.81,0.13
					c-0.27,0.14-0.52,0.43-0.78,0.86L101.2,385.1c-0.3,0.52-0.45,0.93-0.45,1.24c0,0.4,0.17,0.71,0.5,0.92l1.18,0.77l-1.05,1.78
					l-7.85-4.5l1.05-1.78l1.12,0.74c0.39,0.25,1.27,0,1.58-0.15c0.31-0.15,0.61-0.48,0.9-0.98l12.9-21.9
					c0.32-0.54,0.48-0.98,0.49-1.34c0.01-0.35-0.15-0.63-0.45-0.84l-1.27-0.84L110.91,356.45z"/>
				<path class="st9" d="M119.37,361.38l14.17,7.01l-5.74,10.47l-0.94-0.5c1.58-3.19,2.41-5.53,2.46-7.05
					c0.06-1.52-0.56-2.61-1.84-3.3l-2.35-1.24c-0.35-0.18-0.67-0.18-0.97,0c-0.3,0.18-0.6,0.51-0.87,1l-5.54,9.75l0.85,0.45
					c1.7,0.9,3.73-0.45,6.1-4.04l0.94,0.5l-7.62,13.43l-0.94-0.5c0.79-1.46,1.31-2.67,1.55-3.62c0.25-0.95,0.3-1.77,0.17-2.44
					c-0.13-0.69-0.46-1.17-0.98-1.45l-1.07-0.56l-6,10.59c-0.31,0.55-0.47,1.02-0.46,1.36c0.02,0.51,0.19,0.84,0.51,1.01l1.5,0.8
					l-1.03,1.81l-8.38-4.19l1.03-1.81l1.41,0.74c0.32,0.18,0.67-0.09,1.04-0.32c0.36-0.23,0.68-0.59,0.95-1.06l12.61-22.21
					c0.32-0.56,0.46-1.01,0.41-1.32c-0.04-0.31-0.35-0.62-0.88-0.91l-1.09-0.58L119.37,361.38z"/>
				<path class="st9" d="M140.9,371.71c1.47,0.64,2.53,1.9,3.18,3.78c0.65,1.88,0.79,4.13,0.45,6.74c-0.35,2.61-1.17,5.37-2.49,8.26
					c-1.99,4.4-4.42,7.74-7.28,10.01s-5.44,2.91-7.7,1.91c-1.51-0.65-2.57-1.91-3.16-3.77s-0.73-4.07-0.39-6.64
					c0.33-2.57,1.17-5.35,2.53-8.36c2.01-4.45,4.43-7.8,7.27-10.05C136.13,371.37,138.67,370.74,140.9,371.71L140.9,371.71z
					 M140.09,373.65c-0.84-0.37-1.77-0.25-2.78,0.34c-1.02,0.6-2.13,1.78-3.37,3.55c-1.24,1.77-2.61,4.34-4.13,7.69
					c-1.6,3.53-2.63,6.28-3.12,8.24c-0.49,1.97-0.6,3.53-0.35,4.68c0.25,1.15,0.8,1.91,1.66,2.29c1.27,0.55,2.73-0.02,4.41-1.71
					c1.67-1.7,3.65-5.07,5.92-10.09c1.58-3.52,2.61-6.23,3.09-8.13c0.47-1.9,0.58-3.43,0.32-4.58
					C141.5,374.78,140.94,374.01,140.09,373.65z"/>
				<path class="st9" d="M147.83,374.22l8.25,3.44c1.34,0.55,2.3,1.35,2.88,2.39c0.58,1.03,0.85,2.22,0.81,3.57
					c-0.04,1.35-0.33,2.74-0.89,4.18c-0.88,2.3-2.12,3.94-3.71,4.93c-1.21,0.75-2.69,0.95-4.46,0.59c0.73,0.61,1.19,1.32,1.41,2.08
					c0.22,0.77,0.28,1.81,0.17,3.12c-0.13,1.71-0.48,3.69-1.02,5.94c-0.36,1.45-0.32,1.87-0.32,2.28c0,0.41,0.09,0.65,0.26,0.72
					c0.47,0.2,1.23-0.93,2.28-3.39l0.94,0.39c-1.08,2.6-2.11,4.37-3.07,5.29c-0.96,0.93-1.91,1.19-2.86,0.8
					c-0.67-0.28-1.12-0.79-1.31-1.5c-0.2-0.72-0.2-1.66,0-2.8c0.11-0.66,0.28-1.66,0.9-4c0.75-2.74,1.19-4.6,1.34-5.6
					c0.13-1,0.12-1.78-0.04-2.35c-0.17-0.59-0.49-0.97-0.98-1.17l-1.16-0.49l-4.46,11.57c-0.2,0.51-0.27,0.93-0.22,1.26
					c0.08,0.44,0.26,0.72,0.55,0.84l1.43,0.6l-0.75,1.96l-8.23-3.19l0.75-1.95l1.24,0.52c0.31,0.13,0.84-0.09,1.14-0.35
					c0.29-0.27,0.55-0.7,0.78-1.28l9.11-23.64c0.25-0.65,0.36-1.16,0.32-1.53c-0.03-0.37-0.19-0.61-0.47-0.72l-1.35-0.56
					L147.83,374.22L147.83,374.22z M147.59,390.62l1.34,0.55c1.18,0.5,2.34,0.29,3.48-0.63c0.87-0.71,1.72-2.14,2.56-4.3
					c0.77-2,1.08-3.57,0.94-4.7c-0.15-1.13-0.85-1.96-2.1-2.48c-0.67-0.28-1.15-0.31-1.43-0.09c-0.28,0.22-0.61,0.83-1,1.83
					L147.59,390.62z"/>
				<path class="st9" d="M162.71,379.83l4.81,1.91l1.36,25.43l4.8-15.02c0.47-1.48,0.71-2.99,0.59-4.05
					c-0.11-1.05-0.47-2.08-1.18-2.48l0.58-1.7l5.66,2.26l-0.58,1.7c-0.85-0.14-1.63,0.42-2.23,1.1c-0.6,0.66-1.22,2.04-1.72,3.62
					l-8.05,25.25l-1.19-0.5l-1.47-29.29l-5.62,17.6c-0.65,2.01-1.09,4.03-0.95,5.12c0.15,1.1,0.68,1.5,1.34,1.77l0.26,0.1l-0.64,2
					l-6.36-2.38l0.64-2l0.44,0.18c0.61,0.24,1.15,0.37,1.9-0.48c0.75-0.85,1.71-2.78,2.21-4.37l6.63-20.74
					c-0.04-1.53-0.44-2.43-1.16-2.72l-0.69-0.28L162.71,379.83z"/>
				<path class="st9" d="M180.53,386.56l8.39,3.21l-0.62,2l-1.48-0.67c-0.31-0.14-0.58-0.12-0.8,0.07c-0.22,0.2-0.64,1.04-0.78,1.54
					l-7.71,24.9c-0.18,0.59-0.23,1.03-0.16,1.34c0.09,0.41,0.32,0.7,0.69,0.86l1.32,0.6l-0.61,2l-8.21-3.35l0.66-2.14l1.25,0.56
					c0.44,0.2,0.78-0.04,1.05-0.25c0.27-0.21,0.49-0.6,0.66-1.16l7.62-24.63c0.19-0.61,0.25-1.1,0.17-1.45
					c-0.08-0.37-0.28-0.63-0.62-0.79l-1.43-0.65L180.53,386.56z"/>
				<path class="st9" d="M196.69,393.16l0.52,32.88c0.02,0.93,0.11,1.59,0.27,2c0.16,0.41,0.4,0.71,0.76,0.9l0.61,0.32l-0.4,2.06
					l-7.86-3.76l0.4-2.06l0.74,0.39c0.58,0.31,1.03,0,1.29-0.13c0.27-0.13,0.44-0.41,0.52-0.83c0.07-0.33,0.09-0.73,0.09-1.21
					l-0.11-6.79l-6.26-3.31l-1.14,2.47c-0.47,1.03-0.76,1.83-0.87,2.39c-0.19,0.96-0.59,2.95-0.35,3.75c0.25,0.8,0.5,1.07,1.13,1.4
					l0.54,0.28l-0.35,1.77l-6.5-2.88l0.58-2.1l0.36,0.19c0.4,0.21,0.81,0.31,1.23-0.03c0.58-0.48,1.63-2.36,2.08-3.34l11.47-25.04
					L196.69,393.16L196.69,393.16z M193.26,400.54l-5.1,11.14l5.33,2.82L193.26,400.54z"/>
				<path class="st9" d="M281.24,406.34l11.16,25.07c0.32,0.7,0.61,1.5,0.87,1.66c0.27,0.17,0.73,0.48,1.07,0.27l0.62-0.37
					l0.33,1.99l-8.05,4.28l-0.33-1.99l0.74-0.43c0.58-0.34,0.96-0.7,1.14-1.07s0.23-1.13,0.17-1.54c-0.06-0.32-0.17-0.66-0.32-1.02
					l-2.3-5.18l-6.31,3.67l-0.15,3.05c-0.06,1.27-0.04,2.18,0.06,2.73c0.16,0.94,0.47,1.59,0.93,1.97c0.47,0.38,1.02,0.38,1.64,0.01
					l0.6-0.12l0.33,1.99l-6.45,3.53l-0.33-1.99l0.37-0.21c0.41-0.23,0.73-0.7,0.96-1.37c0.32-0.94,0.51-2.04,0.58-3.25l1.43-30.95
					L281.24,406.34L281.24,406.34z M280.78,415.52l-0.64,13.77l5.37-3.13L280.78,415.52z"/>
				<path class="st9" d="M288.11,401.69l14.03-7l3.17,12.45l-0.98,0.49c-0.84-2.6-1.61-4.57-2.32-5.91
					c-0.71-1.34-1.37-2.21-1.99-2.61c-0.61-0.4-1.21-0.46-1.77-0.19c-0.32,0.17-0.54,0.42-0.62,0.77c-0.09,0.37-0.08,0.8,0.04,1.32
					l5.76,25.82c0.11,0.49,0.28,0.86,0.49,1.11c0.22,0.24,0.44,0.33,0.65,0.23l1.82-0.91l0.46,2.07l-8.58,4.27l-0.46-2.07l1.73-0.86
					c0.26-0.13,0.44-0.39,0.51-0.77c0.08-0.39,0.07-0.83-0.04-1.34l-5.73-25.68c-0.13-0.6-0.31-1.01-0.52-1.22
					c-0.22-0.21-0.49-0.23-0.83-0.07c-1.84,0.92-2.31,5.07-1.4,12.42l-0.96,0.48L288.11,401.69z"/>
				<path class="st9" d="M303.21,393.93l8.42-3.45l0.56,2.07l-1.53,0.63c-0.32,0.13-0.52,0.37-0.6,0.69
					c-0.08,0.33-0.04,0.74,0.09,1.25l6.95,25.75c0.17,0.61,0.36,1,0.58,1.18c0.29,0.24,0.62,0.3,0.99,0.14l1.36-0.55l0.56,2.07
					l-8.42,3.45l-0.56-2.07l1.29-0.53c0.45-0.19,0.71-0.46,0.81-0.84s0.08-0.85-0.09-1.44l-6.87-25.47
					c-0.17-0.63-0.38-1.05-0.62-1.28c-0.25-0.23-0.55-0.28-0.9-0.13l-1.47,0.6L303.21,393.93z"/>
				<path class="st9" d="M320.23,386.5c1.6-0.49,3.31-0.23,5.14,0.76c1.83,1,3.53,2.6,5.1,4.8c1.57,2.21,2.88,4.85,3.91,7.9
					c1.56,4.65,2.04,8.78,1.42,12.39c-0.62,3.61-2.17,5.8-4.63,6.55c-1.64,0.5-3.35,0.24-5.12-0.76c-1.77-1.01-3.44-2.6-4.99-4.77
					c-1.55-2.17-2.87-4.83-3.94-8.01c-1.58-4.7-2.06-8.84-1.45-12.4C316.29,389.4,317.8,387.24,320.23,386.5L320.23,386.5z
					 M320.97,388.51c-0.92,0.28-1.55,0.98-1.92,2.1c-0.36,1.12-0.4,2.75-0.11,4.92c0.29,2.16,1.04,5.01,2.22,8.55
					c1.25,3.73,2.39,6.49,3.39,8.31c1.02,1.81,2.02,3.06,3.04,3.77c1,0.71,1.98,0.92,2.9,0.63c1.37-0.42,2.11-1.83,2.21-4.23
					s-0.75-6.24-2.53-11.55c-1.25-3.72-2.37-6.44-3.35-8.2c-0.98-1.75-1.98-2.98-2.98-3.68
					C322.86,388.43,321.89,388.22,320.97,388.51z"/>
				<path class="st9" d="M328.71,383.84l4.91-1.78l16.96,17.98l-5.69-14.68c-0.56-1.45-1.22-2.52-1.96-3.22s-1.52-0.94-2.32-0.73
					l-0.76-1.96l6.05-2.08l0.76,1.96c-0.75,0.51-1.42,0.89-1.46,1.81c-0.04,0.93,0.23,2.18,0.84,3.72l9.94,25.06l-1.24,0.52
					l-19.81-21.2l6.67,17.2c0.76,1.97,1.55,3.31,2.34,4.02c0.8,0.71,1.54,0.93,2.21,0.64l0.27-0.11l0.76,1.96l-6.38,2.68l-0.76-1.96
					l0.45-0.19c0.62-0.27,0.97-0.98,1.02-2.15c0.04-1.17-0.23-2.53-0.84-4.09l-7.87-20.28c-0.98-1.11-1.85-1.78-2.6-1.47l-0.71,0.3
					L328.71,383.84z"/>
				<path class="st9" d="M352.38,375.01l19.07,23.81c0.54,0.66,0.98,1.08,1.32,1.26c0.33,0.18,0.77,0.44,1.12,0.29l0.57-0.18
					l0.9,1.83l-7.76,3.1l-0.89-1.9l0.73-0.31c0.57-0.24,0.9-0.53,1-0.85c0.1-0.32,0.07-0.66-0.12-1.04
					c-0.15-0.29-0.36-0.61-0.62-0.95l-3.94-4.91l-6.14,2.68l0.64,2.74c0.27,1.15,0.52,1.97,0.77,2.48c0.42,0.86,0.95,1.49,1.56,1.87
					c0.61,0.39,1.24,0.44,1.85,0.18l0.52-0.23l0.9,1.84l-6.22,2.71l-0.9-1.84l0.36-0.15c0.4-0.18,0.64-0.55,0.71-1.14
					c0.12-0.82,0.04-1.79-0.2-2.89l-6.45-27.83L352.38,375.01L352.38,375.01z M354.24,383.26l2.87,12.39l5.22-2.28L354.24,383.26z"
					/>
				<path class="st9" d="M362.19,373.24l-0.93-1.85l8.55-3.7l0.93,1.85l-1.36,0.67c-0.39,0.19-0.58,0.48-0.6,0.83
					c-0.01,0.35,0.13,0.85,0.45,1.48l11.1,22.14c0.45,0.9,0.81,1.44,1.08,1.62c0.27,0.18,0.68,0.12,1.23-0.15l2.25-1.13
					c0.84-0.42,1.24-1.57,1.21-3.45c-0.03-1.88-0.69-4.58-1.98-8.11l0.93-0.46l5.56,11.98l-13.97,6.48l-0.93-1.85l1.38-0.7
					c0.3-0.15,0.46-0.42,0.47-0.8s-0.12-0.82-0.39-1.36l-11.42-22.77c-0.28-0.55-0.56-0.92-0.85-1.08
					c-0.28-0.17-1.12-0.46-1.51-0.28L362.19,373.24z"/>
				<path class="st9" d="M395.42,353.81l0.68-0.48l7.15,10.33l-0.84,0.58c-2.59-2.98-4.75-4.93-6.47-5.86
					c-1.72-0.93-3.05-1.06-3.98-0.4c-0.73,0.5-1.1,1.38-1.15,2.63c-0.04,1.26,0.36,2.9,1.18,4.92c0.84,2.02,2.25,4.59,4.27,7.7
					c2.27,3.48,4.1,5.99,5.48,7.49s2.63,2.48,3.74,2.9c1.1,0.43,2.03,0.39,2.77-0.13c0.97-0.67,1.38-1.75,1.23-3.22
					c-0.15-1.46-0.8-3.09-1.98-4.88l-1.64-2.52c-0.3-0.45-0.58-0.75-0.86-0.91c-0.27-0.14-0.52-0.13-0.76,0.03l-1.47,1.03
					l-1.12-1.71l6.76-4.71l1.12,1.71l-0.85,0.59c-0.3,0.21-0.45,0.49-0.42,0.82s0.18,0.73,0.46,1.16l6.37,9.92l-0.74,0.51l-3.96-3.6
					c0.52,1.98,0.67,3.6,0.45,4.82c-0.22,1.24-0.8,2.19-1.76,2.85c-1.27,0.89-2.81,1.1-4.62,0.63c-1.82-0.46-3.68-1.53-5.59-3.21
					c-1.92-1.67-3.82-3.96-5.7-6.86c-2.79-4.28-4.4-8.24-4.84-11.93c-0.45-3.67,0.3-6.18,2.24-7.53c0.71-0.5,1.5-0.74,2.32-0.72
					c0.83,0.02,1.9,0.33,3.19,0.92L395.42,353.81z"/>
				<path class="st9" d="M398.35,351.41l7.35-5.47l1.29,1.66l-1.41,1.15c-0.2,0.17-0.26,0.42-0.17,0.76
					c0.09,0.35-0.08,0.55,0.33,1.08l11.47,14.77c1.62,2.08,3.14,3.44,4.58,4.09c1.44,0.64,2.66,0.55,3.66-0.27
					c0.74-0.61,1.17-1.46,1.29-2.58c0.09-0.82-0.13-1.86-0.67-3.14c-0.54-1.28-1.42-2.71-2.65-4.3l-8.81-11.34
					c-1.12-1.44-1.74-1.91-2.63-2.36c-0.89-0.45-1.53-0.56-2.09-0.1l-0.3,0.29l-1.29-1.66l5.07-4.57l1.48,1.91l-0.36,0.3
					c-0.55,0.44-0.65,1.19-0.31,2.22c0.33,1.04,0.58,1.67,1.5,2.84l9.55,12.29c2.12,2.73,3.36,5.32,3.71,7.74
					c0.35,2.46-0.3,4.36-1.96,5.72c-1.18,0.97-2.51,1.45-3.97,1.42c-1.46-0.03-2.85-0.5-4.13-1.37c-1.29-0.89-2.7-2.3-4.21-4.25
					l-11.66-15c-0.54-0.7-0.98-1.12-1.32-1.26s-0.68-0.08-1.04,0.22l-1.02,0.84L398.35,351.41z"/>
				<path class="st9" d="M416.62,335.86l24.92,17.11c0.7,0.48,1.77,1.27,2.13,1.33c0.36,0.07,0.65-0.03,0.89-0.29l0.42-0.45
					l1.44,1.5l-5.33,5.72l-1.44-1.5l0.5-0.54c0.39-0.42,0.57-0.81,0.55-1.15c-0.02-0.34-0.73-1.19-1.03-1.5
					c-0.23-0.24-0.52-0.49-0.88-0.73l-5.14-3.54l-4.25,4.57l1.54,2.48c0.65,1.03,1.16,1.75,1.55,2.17c0.67,0.71,1.35,1.15,2.01,1.33
					c0.67,0.18,1.43,0.22,1.85-0.23l0.36-0.39l1.44,1.5l-4.52,4.44l-1.44-1.5l0.25-0.27c0.28-0.3,0.35-0.74,0.2-1.34
					c-0.2-0.84-0.61-1.76-1.23-2.74l-15.64-25.06L416.62,335.86L416.62,335.86z M421.22,343.3l6.95,11.15l3.63-3.88L421.22,343.3z"
					/>
				<path class="st9" d="M420.58,331.62l4.9-6.67c0.86-1.05,1.85-1.68,2.98-1.86c1.13-0.19,2.32-0.02,3.58,0.48
					c1.27,0.51,2.52,1.26,3.74,2.27c1.96,1.62,3.21,3.33,3.76,5.16c0.41,1.38,0.23,2.83-0.54,4.36c0.76-0.46,1.54-0.66,2.32-0.6
					c0.78,0.07,1.79,0.37,3,0.92c1.58,0.72,3.38,1.73,5.39,3c1.28,0.83,1.29,0.87,1.69,1.02s0.64,0.14,0.75,0.01
					c0.3-0.37-0.58-1.46-2.65-3.29l0.6-0.74c2.2,1.9,3.63,3.47,4.26,4.68c0.65,1.22,0.66,2.19,0.06,2.94
					c-0.44,0.53-1.02,0.76-1.75,0.7c-0.73-0.07-1.4-0.22-2.43-0.8c-0.6-0.33-1.34-0.92-3.4-2.31c-2.41-1.65-4.07-2.7-4.98-3.18
					c-0.9-0.46-1.65-0.73-2.24-0.77c-0.59-0.04-1.04,0.12-1.36,0.51l-0.75,0.92l9.88,8.15c0.44,0.35,0.89,0.83,1.22,0.9
					c0.44,0.08,0.75,0.01,0.93-0.22l0.92-1.13l1.58,1.12l-4.82,6.76l-1.66-1.37l0.79-0.97c0.2-0.25,0.22-0.56,0.04-0.92
					c-0.18-0.37-0.84-1.21-1.34-1.63l-20.18-16.64c-0.56-0.45-0.95-0.69-1.31-0.77c-0.36-0.1-0.57,0.11-0.75,0.32l-0.59,1.04
					l-1.46-1.18L420.58,331.62z M435.88,337.02l0.86-1.05c0.76-0.93,0.85-2.09,0.27-3.46c-0.46-1.05-1.61-2.33-3.46-3.86
					c-1.71-1.4-3.11-2.23-4.23-2.49c-1.1-0.25-2.06,0.12-2.86,1.1c-0.44,0.53-0.58,0.96-0.44,1.29c0.13,0.34,0.64,0.86,1.48,1.56
					L435.88,337.02z"/>
				<path class="st9" d="M428.64,319.49l3.31-6.98c0.49-1.33,1.41-2.22,2.9-2.44c1.51-0.22,3.1,0.06,5.4,0.93
					c2.3,0.87,4.77,2.21,7.39,4.02c2.71,1.87,4.99,3.76,6.81,5.66c1.82,1.9,3.14,3.78,3.95,5.64c0.81,1.86,1,3.37,0.56,4.57
					l-2.79,7.57l-1.7-1.17l0.41-1.13c0.1-0.28,0.02-0.59-0.22-0.93c-0.25-0.35-0.65-0.71-1.19-1.08l-20.59-14.17
					c-0.56-0.38-0.98-0.59-1.29-0.61c-0.3-0.02-0.52,0.13-0.65,0.48l-0.59,0.84l-1.47-1.02L428.64,319.49z M456.93,330.6
					c0.31-0.84,0.16-1.88-0.46-3.12c-0.61-1.24-1.6-2.51-2.97-3.81c-1.37-1.31-3.59-3.02-6.7-5.14c-3.26-2.25-5.81-3.78-7.67-4.64
					c-1.86-0.85-3.27-1.24-4.21-1.16c-0.95,0.08-1.64,0.69-2.05,1.81c-0.23,0.62-0.27,1.08-0.11,1.38c0.15,0.3,0.5,0.64,1.06,1.03
					l20.7,14.25c0.61,0.42,1.08,0.66,1.4,0.73c0.31,0.06,0.54-0.04,0.64-0.32L456.93,330.6z"/>
				<path class="st9" d="M216.04,403.51l4.72,34.59c0.13,1,0.31,1.71,0.51,2.17c0.2,0.45,0.48,0.8,0.84,1.02l0.62,0.4l-0.11,2.17
					l-7.97-4.39l0.11-2.17l0.75,0.48c0.59,0.38,0.99,0.5,1.24,0.38c0.23-0.12,0.37-0.41,0.39-0.85c0.02-0.34-0.01-0.77-0.08-1.28
					l-0.97-7.29l-6.36-4.06l-0.76,2.56c-0.31,1.07-0.49,1.89-0.51,2.49c-0.06,1.02,0.09,1.97,0.42,2.83
					c0.33,0.87,0.73,1.81,1.36,2.22l0.54,0.34l-0.11,2.17l-6.89-3.5l0.33-2.06l0.37,0.23c0.41,0.27,0.57,0.12,0.92-0.22
					c0.49-0.46,1.42-2.12,1.72-3.14l7.68-25.9L216.04,403.51L216.04,403.51z M213.73,411.14l-3.42,11.53l5.42,3.46L213.73,411.14z"
					/>
				<path class="st9" d="M224.95,409.93l7.99,6.17l-0.08,2.07l-1.44-1.04c-0.31-0.22-0.54-0.25-0.68-0.09s-0.23,0.5-0.26,1.01
					l-0.99,25.75c-0.02,0.61,0.03,1.08,0.17,1.44c0.18,0.46,0.45,0.83,0.79,1.1l1.28,0.93l-0.08,2.07l-7.97-4.79l0.09-2.29
					l1.22,0.89c0.42,0.31,0.64,0.07,0.83-0.11c0.18-0.18,0.37-1.01,0.39-1.59l0.98-25.47c0.02-0.63-0.03-1.15-0.18-1.56
					c-0.15-0.41-0.41-1.16-0.75-1.4l-1.38-1.01L224.95,409.93z"/>
				<path class="st9" d="M234.31,417.31l7.83,7.22c1.31,0.98,2.41,1.83,3.23,3.13c0.81,1.29,1.41,2.68,1.79,4.15
					c0.38,1.47,0.56,2.92,0.52,4.35c-0.04,2.28-0.59,3.75-1.64,4.4c-0.79,0.5-2,0.3-3.62-0.59c0.8,0.87,1.42,1.77,1.84,2.68
					c0.42,0.91,0.79,2.07,1.1,3.47c0.41,1.85,0.73,3.93,0.96,6.25c0.15,1.49,0.28,2.46,0.4,2.91c0.12,0.45,0.27,0.74,0.44,0.86
					c0.46,0.34,0.76-0.69,0.89-3.09l0.92,0.69c-0.12,2.57-0.45,4.23-0.98,4.97c-0.52,0.75-1.26,0.79-2.19,0.09
					c-0.66-0.5-1.18-1.16-1.57-2.01c-0.39-0.84-0.68-1.88-0.86-3.09c-0.11-0.7-0.26-2.25-0.44-4.65c-0.2-2.81-0.4-4.73-0.58-5.79
					c-0.19-1.05-0.45-1.92-0.76-2.6c-0.32-0.69-0.71-1.21-1.21-1.56l-1.14-0.85l-0.23,11.49c-0.01,0.5,0.06,0.95,0.2,1.33
					c0.2,0.51,0.45,0.86,0.73,1.07l1.37,1.26l-0.04,1.94l-7.98-5.19l0.04-1.94l1.24,0.73c0.31,0.23,0.7-0.46,0.87-0.67
					c0.17-0.21,0.26-0.61,0.27-1.19l0.59-24.02c0.01-0.64-0.04-1.17-0.19-1.58c-0.15-0.41-0.35-0.72-0.61-0.92l-1.32-0.98l0.12-1.23
					L234.31,417.31z M239.32,436.4l1.31,0.98c1.16,0.86,2.09,0.95,2.77,0.27c0.52-0.53,0.8-1.88,0.85-4.03
					c0.04-1.99-0.18-3.62-0.66-4.91c-0.47-1.28-1.33-2.39-2.54-3.3c-0.66-0.49-1.07-0.65-1.24-0.5c-0.18,0.17-0.27,0.74-0.29,1.73
					L239.32,436.4z"/>
				<path class="st9" d="M257.84,425.6l4.43-3.89l9.53,16.77l-0.7-16.37c-0.07-1.46-0.32-2.51-0.78-3.15
					c-0.45-0.64-1.05-0.79-1.81-0.45l-0.09-1.98l5.22-4.39l0.36,2.26c-0.79,0.64-1.34,1.46-1.64,2.47c-0.31,1-0.2,3.02-0.12,4.59
					l1.23,25.6l-1.23,0.72l-10.49-17.57l0.41,16.34c0.09,1.99,0.39,3.3,0.88,3.95c0.49,0.64,1.03,0.38,1.7-0.02l0.27-0.15l0.09,1.98
					l-6.28,4.13l-0.09-1.98l0.44-0.25c0.62-0.37,1.13-1.17,1.51-2.42c0.38-1.25,0.52-2.67,0.46-4.24l-0.56-19.45
					c-0.54-1.04-1.17-1.34-1.91-0.91l-0.7,0.41L257.84,425.6z"/>
			</g>
		</g>
	</g>
</g>
</svg>
